<mxfile host="app.diagrams.net" modified="2024-05-15T17:19:55.146Z" agent="Mozilla/5.0 (Macintosh; Intel Mac OS X 10_15_7) AppleWebKit/537.36 (KHTML, like Gecko) Chrome/123.0.0.0 Safari/537.36" etag="w-3GVajfvXB5k91t4Fou" version="24.4.0" type="device">
  <diagram name="spreadsheet-db" id="_12jYgz5AbTNy7-3DDBR">
    <mxGraphModel dx="2760" dy="1744" grid="1" gridSize="5" guides="1" tooltips="1" connect="1" arrows="1" fold="1" page="1" pageScale="1" pageWidth="1700" pageHeight="1100" math="0" shadow="0">
      <root>
        <mxCell id="0" />
        <mxCell id="1" parent="0" />
        <mxCell id="0v8Zg-rZT7xSfdYN5Gm1-1" value="&lt;font style=&quot;font-size: 24px;&quot;&gt;Architecture Diagram - spreadsheet-db&lt;/font&gt;" style="text;html=1;align=center;verticalAlign=middle;whiteSpace=wrap;rounded=0;" vertex="1" parent="1">
          <mxGeometry x="630" y="30" width="440" height="40" as="geometry" />
        </mxCell>
        <mxCell id="0v8Zg-rZT7xSfdYN5Gm1-2" value="&lt;font color=&quot;#999999&quot; style=&quot;font-size: 24px;&quot;&gt;Frontend&lt;/font&gt;" style="text;html=1;align=center;verticalAlign=middle;whiteSpace=wrap;rounded=0;" vertex="1" parent="1">
          <mxGeometry x="184" y="100" width="190" height="40" as="geometry" />
        </mxCell>
        <mxCell id="0v8Zg-rZT7xSfdYN5Gm1-5" value="&lt;font color=&quot;#999999&quot; style=&quot;font-size: 24px;&quot;&gt;Backend&lt;/font&gt;" style="text;html=1;align=center;verticalAlign=middle;whiteSpace=wrap;rounded=0;" vertex="1" parent="1">
          <mxGeometry x="771" y="100" width="190" height="40" as="geometry" />
        </mxCell>
        <mxCell id="0v8Zg-rZT7xSfdYN5Gm1-6" value="&lt;font color=&quot;#999999&quot; style=&quot;font-size: 24px;&quot;&gt;Database&lt;/font&gt;" style="text;html=1;align=center;verticalAlign=middle;whiteSpace=wrap;rounded=0;" vertex="1" parent="1">
          <mxGeometry x="1363" y="100" width="190" height="40" as="geometry" />
        </mxCell>
        <mxCell id="0v8Zg-rZT7xSfdYN5Gm1-9" value="" style="endArrow=none;html=1;rounded=0;dashed=1;" edge="1" parent="1">
          <mxGeometry width="50" height="50" relative="1" as="geometry">
            <mxPoint x="520" y="1060" as="sourcePoint" />
            <mxPoint x="520" y="120" as="targetPoint" />
          </mxGeometry>
        </mxCell>
        <mxCell id="0v8Zg-rZT7xSfdYN5Gm1-10" value="" style="endArrow=none;html=1;rounded=0;dashed=1;" edge="1" parent="1">
          <mxGeometry width="50" height="50" relative="1" as="geometry">
            <mxPoint x="1220" y="1060" as="sourcePoint" />
            <mxPoint x="1220" y="120" as="targetPoint" />
          </mxGeometry>
        </mxCell>
        <mxCell id="0v8Zg-rZT7xSfdYN5Gm1-30" value="" style="group" vertex="1" connectable="0" parent="1">
          <mxGeometry x="179" y="510" width="215" height="115" as="geometry" />
        </mxCell>
        <mxCell id="0v8Zg-rZT7xSfdYN5Gm1-16" value="" style="rounded=0;whiteSpace=wrap;html=1;strokeColor=#3399FF;" vertex="1" parent="0v8Zg-rZT7xSfdYN5Gm1-30">
          <mxGeometry y="20" width="200" height="80" as="geometry" />
        </mxCell>
        <mxCell id="0v8Zg-rZT7xSfdYN5Gm1-17" value="&lt;font style=&quot;font-size: 14px;&quot;&gt;&lt;b&gt;useGrid.ts&lt;/b&gt;&lt;/font&gt;" style="text;html=1;align=center;verticalAlign=middle;whiteSpace=wrap;rounded=0;fillColor=default;" vertex="1" parent="0v8Zg-rZT7xSfdYN5Gm1-30">
          <mxGeometry x="53.75" width="92.5" height="40" as="geometry" />
        </mxCell>
        <mxCell id="0v8Zg-rZT7xSfdYN5Gm1-18" value="Hook for handling Create, Read, Update, and Delete (CRUD) operations on" style="text;html=1;align=center;verticalAlign=middle;whiteSpace=wrap;rounded=0;" vertex="1" parent="0v8Zg-rZT7xSfdYN5Gm1-30">
          <mxGeometry x="20" y="30" width="160" height="60" as="geometry" />
        </mxCell>
        <mxCell id="0v8Zg-rZT7xSfdYN5Gm1-44" value="" style="shape=image;verticalLabelPosition=bottom;verticalAlign=top;imageAspect=0;image=data:image/svg+xml,PHN2ZyB4bWxucz0iaHR0cDovL3d3dy53My5vcmcvMjAwMC9zdmciIHZpZXdCb3g9IjAgMCAzMiAzMiIgaGVpZ2h0PSI4MDBweCIgd2lkdGg9IjgwMHB4Ij48dGl0bGU+ZmlsZV90eXBlX3R5cGVzY3JpcHRfb2ZmaWNpYWw8L3RpdGxlPjxyZWN0IHN0eWxlPSJmaWxsOiMzMTc4YzYiIHJ4PSIxLjMxMiIgaGVpZ2h0PSIyOCIgd2lkdGg9IjI4IiB5PSIyIiB4PSIyIi8+PHBhdGggc3R5bGU9ImZpbGw6I2ZmZmZmZjtmaWxsLXJ1bGU6ZXZlbm9kZCIgZD0iTTE4LjI0NSwyMy43NTl2My4wNjhhNi40OTIsNi40OTIsMCwwLDAsMS43NjQuNTc1LDExLjU2LDExLjU2LDAsMCwwLDIuMTQ2LjE5Miw5Ljk2OCw5Ljk2OCwwLDAsMCwyLjA4OC0uMjExLDUuMTEsNS4xMSwwLDAsMCwxLjczNS0uNywzLjU0MiwzLjU0MiwwLDAsMCwxLjE4MS0xLjI2Niw0LjQ2OSw0LjQ2OSwwLDAsMCwuMTg2LTMuMzk0LDMuNDA5LDMuNDA5LDAsMCwwLS43MTctMS4xMTcsNS4yMzYsNS4yMzYsMCwwLDAtMS4xMjMtLjg3NywxMi4wMjcsMTIuMDI3LDAsMCwwLTEuNDc3LS43MzRxLS42LS4yNDktMS4wOC0uNDg0YTUuNSw1LjUsMCwwLDEtLjgxMy0uNDc5LDIuMDg5LDIuMDg5LDAsMCwxLS41MTYtLjUxOCwxLjA5MSwxLjA5MSwwLDAsMS0uMTgxLS42MTgsMS4wMzksMS4wMzksMCwwLDEsLjE2Mi0uNTcxLDEuNCwxLjQsMCwwLDEsLjQ1OS0uNDM2LDIuNDM5LDIuNDM5LDAsMCwxLC43MjYtLjI4Myw0LjIxMSw0LjIxMSwwLDAsMSwuOTU2LS4xLDUuOTQyLDUuOTQyLDAsMCwxLC44MDguMDU4LDYuMjkyLDYuMjkyLDAsMCwxLC44NTYuMTc3LDUuOTk0LDUuOTk0LDAsMCwxLC44MzYuMyw0LjY1Nyw0LjY1NywwLDAsMSwuNzUxLjQyMlYxMy45YTcuNTA5LDcuNTA5LDAsMCwwLTEuNTI1LS40LDEyLjQyNiwxMi40MjYsMCwwLDAtMS45LS4xMjksOC43NjcsOC43NjcsMCwwLDAtMi4wNjQuMjM1LDUuMjM5LDUuMjM5LDAsMCwwLTEuNzE2LjczMywzLjY1NSwzLjY1NSwwLDAsMC0xLjE3MSwxLjI3MSwzLjczMSwzLjczMSwwLDAsMC0uNDMxLDEuODQ1LDMuNTg4LDMuNTg4LDAsMCwwLC43ODksMi4zNCw2LDYsMCwwLDAsMi4zOTUsMS42MzlxLjYzLjI2LDEuMTc1LjUwOWE2LjQ1OCw2LjQ1OCwwLDAsMSwuOTQyLjUxNywyLjQ2MywyLjQ2MywwLDAsMSwuNjI2LjU4NSwxLjIsMS4yLDAsMCwxLC4yMy43MTksMS4xLDEuMSwwLDAsMS0uMTQ0LjU1MiwxLjI2OSwxLjI2OSwwLDAsMS0uNDM1LjQ0MSwyLjM4MSwyLjM4MSwwLDAsMS0uNzI2LjI5Miw0LjM3Nyw0LjM3NywwLDAsMS0xLjAxOC4xMDUsNS43NzMsNS43NzMsMCwwLDEtMS45NjktLjM1QTUuODc0LDUuODc0LDAsMCwxLDE4LjI0NSwyMy43NTlabS01LjE1NC03LjYzOGg0VjEzLjU5NEg1LjkzOHYyLjUyN0g5LjkyVjI3LjM3NWgzLjE3MVoiLz48L3N2Zz4=;aspect=fixed;flipV=0;" vertex="1" parent="0v8Zg-rZT7xSfdYN5Gm1-30">
          <mxGeometry x="185" y="85" width="30" height="30" as="geometry" />
        </mxCell>
        <mxCell id="0v8Zg-rZT7xSfdYN5Gm1-175" value="" style="endArrow=classic;html=1;rounded=0;strokeColor=#8A8A8A;dashed=1;entryX=0.75;entryY=1;entryDx=0;entryDy=0;dashPattern=8 8;" edge="1" parent="0v8Zg-rZT7xSfdYN5Gm1-30">
          <mxGeometry width="50" height="50" relative="1" as="geometry">
            <mxPoint x="30" y="20" as="sourcePoint" />
            <mxPoint x="30" y="-40.00000000000023" as="targetPoint" />
          </mxGeometry>
        </mxCell>
        <mxCell id="0v8Zg-rZT7xSfdYN5Gm1-43" value="" style="group" vertex="1" connectable="0" parent="1">
          <mxGeometry x="179" y="360" width="220" height="130" as="geometry" />
        </mxCell>
        <mxCell id="0v8Zg-rZT7xSfdYN5Gm1-12" value="" style="rounded=0;whiteSpace=wrap;html=1;strokeColor=#3399FF;" vertex="1" parent="0v8Zg-rZT7xSfdYN5Gm1-43">
          <mxGeometry y="20" width="200" height="90" as="geometry" />
        </mxCell>
        <mxCell id="0v8Zg-rZT7xSfdYN5Gm1-13" value="&lt;font style=&quot;font-size: 14px;&quot;&gt;&lt;b&gt;GenericGrid.tsx&lt;/b&gt;&lt;/font&gt;" style="text;html=1;align=center;verticalAlign=middle;whiteSpace=wrap;rounded=0;fillColor=default;" vertex="1" parent="0v8Zg-rZT7xSfdYN5Gm1-43">
          <mxGeometry x="35" width="130" height="40" as="geometry" />
        </mxCell>
        <mxCell id="0v8Zg-rZT7xSfdYN5Gm1-14" value="Generic component that utilizes AG Grid serving as primary UI&amp;nbsp;" style="text;html=1;align=center;verticalAlign=middle;whiteSpace=wrap;rounded=0;" vertex="1" parent="0v8Zg-rZT7xSfdYN5Gm1-43">
          <mxGeometry x="20" y="30" width="160" height="60" as="geometry" />
        </mxCell>
        <mxCell id="0v8Zg-rZT7xSfdYN5Gm1-41" value="" style="shape=image;verticalLabelPosition=bottom;verticalAlign=top;imageAspect=0;aspect=fixed;image=data:image/svg+xml,PHN2ZyB4bWxucz0iaHR0cDovL3d3dy53My5vcmcvMjAwMC9zdmciIGZpbGw9Im5vbmUiIHZpZXdCb3g9IjAgMCAzMiAzMiIgaGVpZ2h0PSI4MDBweCIgd2lkdGg9IjgwMHB4Ij4mI3hhOzxwYXRoIGZpbGw9IiM1M0MxREUiIGQ9Ik0xOC42Nzg5IDE1Ljk3NTlDMTguNjc4OSAxNC41NDE1IDE3LjQ3OTYgMTMuMzc4NSAxNiAxMy4zNzg1QzE0LjUyMDYgMTMuMzc4NSAxMy4zMjExIDE0LjU0MTUgMTMuMzIxMSAxNS45NzU5QzEzLjMyMTEgMTcuNDEwNSAxNC41MjA2IDE4LjU3MzQgMTYgMTguNTczNEMxNy40Nzk2IDE4LjU3MzQgMTguNjc4OSAxNy40MTA1IDE4LjY3ODkgMTUuOTc1OVoiLz4mI3hhOzxwYXRoIGZpbGw9IiM1M0MxREUiIGQ9Ik0yNC43MDA0IDExLjE1MzdDMjUuMjY2MSA4LjkyNDc4IDI1Ljk3NzIgNC43OTE0OCAyMy40NzA0IDMuMzkwMTZDMjAuOTc1MyAxLjk5NDk1IDE3LjcyODQgNC42Njg0MyAxNi4wMTM5IDYuMjczMThDMTQuMzA0NCA0LjY4NDQyIDEwLjk2NjMgMi4wMjIzNyA4LjQ2MTYzIDMuNDI4MTRDNS45Njc1MSA0LjgyODAzIDYuNzM2NjQgOC44OTI4IDcuMzE0OSAxMS4xMzU3QzQuOTg4MzEgMTEuNzc2NCAxIDEzLjE1NjQgMSAxNS45NzU5QzEgMTguNzg3NCA0Ljk4NDE2IDIwLjI4ODggNy4yOTY5OCAyMC45Mjg5QzYuNzE2NTggMjMuMTg0MiA1Ljk4NTk2IDI3LjE5MDkgOC40ODMyNyAyOC41ODc3QzEwLjk5NzMgMjkuOTkzMiAxNC4zMjUgMjcuMzk0NSAxNi4wNTU0IDI1Ljc3MjJDMTcuNzgwOSAyNy4zODY0IDIwLjk5NjYgMzAuMDAyMSAyMy40OTIyIDI4LjYwMTRDMjUuOTk1NiAyNy4xOTYzIDI1LjM0MzYgMjMuMTE4NCAyNC43NjUzIDIwLjg2MjVDMjcuMDA3MyAyMC4yMjEgMzEgMTguNzUyMyAzMSAxNS45NzU5QzMxIDEzLjE4MzUgMjYuOTkwMyAxMS43OTIzIDI0LjcwMDQgMTEuMTUzN1pNMjQuNDE2MiAxOS42NjdDMjQuMDM2NSAxOC41MDE2IDIzLjUyNCAxNy4yNjIzIDIyLjg5NzEgMTUuOTgyMUMyMy40OTU1IDE0LjczMjEgMjMuOTg4MSAxMy41MDg4IDI0LjM1NzIgMTIuMzUwOUMyNi4wMzU5IDEyLjgyMjggMjkuNzE4NSAxMy45MDEzIDI5LjcxODUgMTUuOTc1OUMyOS43MTg1IDE4LjA3IDI2LjE4NDYgMTkuMTU4NyAyNC40MTYyIDE5LjY2N1pNMjIuODUgMjcuNTI2QzIwLjk4OCAyOC41NzEgMTguMjIyMSAyNi4wNjk2IDE2Ljk0NzggMjQuODgwOUMxNy43OTMyIDIzLjk4NDQgMTguNjM4IDIyLjk0MjIgMTkuNDYyNSAyMS43ODQ5QzIwLjkxMjkgMjEuNjYwMiAyMi4yODMgMjEuNDU2MiAyMy41MjU2IDIxLjE3NzdDMjMuOTMyNiAyMi43NzM0IDI0LjcyMDIgMjYuNDc2MyAyMi44NSAyNy41MjZaTTkuMTIzNjIgMjcuNTExMUM3LjI2MTQzIDI2LjQ3IDguMTEyNTggMjIuODk0NiA4LjUzOTU3IDIxLjIzMzNDOS43NjgzNCAyMS40OTY5IDExLjEyODYgMjEuNjg2NSAxMi41ODI0IDIxLjgwMDhDMTMuNDEyMyAyMi45MzMyIDE0LjI4MTYgMjMuOTc0MSAxNS4xNTc2IDI0Ljg4NTdDMTQuMDc1MyAyNS45MDA4IDEwLjk5NDUgMjguNTU3IDkuMTIzNjIgMjcuNTExMVpNMi4yODE0OSAxNS45NzU5QzIuMjgxNDkgMTMuODc0IDUuOTQyMDcgMTIuODAzMyA3LjY1OTA0IDEyLjMzMjZDOC4wMzQ1MSAxMy41MTY1IDguNTI2OTUgMTQuNzU0NCA5LjEyMTIzIDE2LjAwNjJDOC41MTkyNSAxNy4yNzY2IDguMDE5NzcgMTguNTM0MSA3LjY0MDg1IDE5LjczMkM2LjAwMzY5IDE5LjI3NzYgMi4yODE0OSAxOC4wNzkxIDIuMjgxNDkgMTUuOTc1OVpNOS4xMDM3IDQuNTAzNTRDMTAuOTczNSAzLjQ1NDE2IDEzLjg3NDcgNi4wMDk4MyAxNS4xMTU5IDcuMTYwMTNDMTQuMjQ0NCA4LjA2NzU0IDEzLjM4MzEgOS4xMDA2IDEyLjU2MDMgMTAuMjI2NUMxMS4xNDk0IDEwLjM1MzMgOS43OTg3NSAxMC41NTY5IDguNTU3MDkgMTAuODI5N0M4LjA5MTI1IDkuMDIwNzEgNy4yMzU5MiA1LjU1MTc5IDkuMTAzNyA0LjUwMzU0Wk0yMC4zNzkzIDExLjU3NzFDMjEuMzM2NSAxMS42OTQyIDIyLjI1MzYgMTEuODUgMjMuMTE0NyAxMi4wNDA2QzIyLjg1NjIgMTIuODQ0IDIyLjUzNCAxMy42ODQxIDIyLjE1NDUgMTQuNTQ1M0MyMS42MDQ0IDEzLjUzMzMgMjEuMDEzOSAxMi41NDE2IDIwLjM3OTMgMTEuNTc3MVpNMTYuMDE0MyA4LjA0ODFDMTYuNjA1NCA4LjY2ODk3IDE3LjE5NzQgOS4zNjIzIDE3Ljc3OTggMTAuMTE0NUMxNi41OTg1IDEwLjA2MDMgMTUuNDE1MyAxMC4wNjAxIDE0LjIzNCAxMC4xMTM3QzE0LjgxNjkgOS4zNjg0OCAxNS40MTQgOC42NzYxOCAxNi4wMTQzIDguMDQ4MVpNOS44NTY1IDE0LjU0NDRDOS40ODMyOSAxMy42ODYyIDkuMTYzOTggMTIuODQyNCA4LjkwMzIyIDEyLjAyNzVDOS43NTkxOCAxMS44NDE4IDEwLjY3MiAxMS42OSAxMS42MjMgMTEuNTc0OEMxMC45ODY2IDEyLjUzNzIgMTAuMzk3MSAxMy41Mjg1IDkuODU2NSAxNC41NDQ0Wk0xMS42NTAzIDIwLjQ2NTdDMTAuNjY3OSAyMC4zNTk0IDkuNzQxMjYgMjAuMjE1MyA4Ljg4NTU2IDIwLjAzNDdDOS4xNTA0NCAxOS4yMDU1IDkuNDc2NzggMTguMzQzNSA5Ljg1Nzk2IDE3LjQ2NjhDMTAuNDA2IDE4LjQ5MzMgMTEuMDA0NSAxOS40OTQyIDExLjY1MDMgMjAuNDY1N1pNMTYuMDQ5OCAyMy45OTE1QzE1LjQ0MjQgMjMuMzU2IDE0LjgzNjUgMjIuNjUzMSAxNC4yNDQ4IDIxLjg5NzFDMTUuNDMyOCAyMS45NDIzIDE2LjYyMzEgMjEuOTQyNCAxNy44MTEgMjEuODkxQzE3LjIyNjggMjIuNjYwOCAxNi42MzY5IDIzLjM2NDcgMTYuMDQ5OCAyMy45OTE1Wk0yMi4xNjY3IDE3LjQyMjJDMjIuNTY3NyAxOC4zMDg0IDIyLjkwNTcgMTkuMTY1NyAyMy4xNzQyIDE5Ljk4MDlDMjIuMzA0MyAyMC4xNzM0IDIxLjM2NTIgMjAuMzI4NCAyMC4zNzU3IDIwLjQ0MzVDMjEuMDE1IDE5LjQ2MDcgMjEuNjE0OSAxOC40NTM2IDIyLjE2NjcgMTcuNDIyMlpNMTguNzQ3MyAyMC41OTQxQzE2LjkzMDEgMjAuNzIgMTUuMTAxNiAyMC43MTg2IDEzLjI4MzggMjAuNjA0NEMxMi4yNTA5IDE5LjE0MTUgMTEuMzMxNCAxNy42MDMgMTAuNTM3NyAxNi4wMDU4QzExLjMyNzYgMTQuNDExOSAxMi4yNDA0IDEyLjg3NjQgMTMuMjY4NCAxMS40MTU4QzE1LjA4NzUgMTEuMjgyNSAxNi45MTc4IDExLjI4MjEgMTguNzM2OSAxMS40MTY2QzE5Ljc1NjEgMTIuODc3MSAyMC42Njc1IDE0LjQwODYgMjEuNDc1NyAxNS45ODgxQzIwLjY3NzEgMTcuNTgxMiAxOS43NTk1IDE5LjExOTggMTguNzQ3MyAyMC41OTQxWk0yMi44MzAzIDQuNDY2NkMyNC43MDA2IDUuNTEyNTQgMjMuODY4MSA5LjIyNzI2IDIzLjQ1OTUgMTAuODQyNkMyMi4yMTQ5IDEwLjU2NDEgMjAuODYzMyAxMC4zNTY5IDE5LjQ0ODMgMTAuMjI4MUMxOC42MjM5IDkuMDkwMDQgMTcuNzY5OCA4LjA1NTE4IDE2LjkxMjQgNy4xNTk0OUMxOC4xNjk1IDUuOTg0NDEgMjAuOTc4MSAzLjQzMDg5IDIyLjgzMDMgNC40NjY2WiIgY2xpcC1ydWxlPSJldmVub2RkIiBmaWxsLXJ1bGU9ImV2ZW5vZGQiLz4mI3hhOzwvc3ZnPg==" vertex="1" parent="0v8Zg-rZT7xSfdYN5Gm1-43">
          <mxGeometry x="180" y="90" width="40" height="40" as="geometry" />
        </mxCell>
        <mxCell id="0v8Zg-rZT7xSfdYN5Gm1-42" value="" style="shape=image;verticalLabelPosition=bottom;verticalAlign=top;imageAspect=0;aspect=fixed;image=data:image/png,iVBORw0KGgoAAAANSUhEUgAAAtAAAAD6CAYAAACI/3DlAAAACXBIWXMAAAsSAAALEgHS3X78AAAcTUlEQVR42u3dCbAdRb0HYELYEnbQECU8g2wa8EGURRFBoLBUFqMxPBBRUHwSXICiVCxQUVFkUUBFEOSxqlFEtrAlD3NZXYAnRkERkKC4oSAogqz3dVudVIwhufd2z5yZOd9X9S8pq3Knp6fPzO/MmeleZhkAAAAAAAAAAAAAAAAAAAAAAAAAAAAAAAAAAAAAAAAAAAAAAAAAAAAAAAAAAAAAAAAAAAAAAAAAAAAAAAAAAAAAAAAAAAAAAAAAAAAAAAAAAAAAAAAAAAAAAAAAAAAAAAAAAAAAAAAAAAAAAAAAAAAAAAAAAAAAAAAAAAAAAAAAAAAAAAAAAAAAAAAAAAAAAAAAAAAAAAAAAAAAAAAAAAAAAAAAAAAAAAAAAAAAAAAAAAAAAAAAAAAAAAAAAAAAAAAAAOiCmbPnjAt1saqtTjfqAADaHaAnhhpUtdU8ow4AQIBWAjQAgACtBGgAAARoARoAAAFagAYAQIAWoAEAEKAFaKMOAECAVgI0AIAArQRoAAAEaAEaAAABWoAGAECA7mCdf/XAzdMuvWmgQzXDpwgAEKBVJfX1WQNz/+vSmwandavm+RQBAAK0Ep4FaAAAAVp4FqABAARo4VmABgAQoLtR3+h+eBagAQABWpWpGbMG7ty7++FZgAYABGglPAvQAAACtPAsQAMACNDCswANACM2esJuXwn18AjrK33WV1uEGhhhXS9Aq8XVN2cN3NOH4VmABqDVofDsUIMjrLP7rK9em9FXgwK0Ep4FaKjyIrVqqPVCbZbu+Lwi1ORQ/xlqYqh1Q43VU608tmukY7h5OrZbpv/dNP3/40OtqKcEaAG6FQH6haFuUyOrc68e+Gkfh2cBGkZ4IRoT6pWh3hfqy6H+N9QvQz0+jAvSI6HuCHV1qK+GOijUq2MA18M9Pbarh9op1GGhzgx1Xah5oZ4cxrH9U6jbQl0e6uRQ+4d6uXAtQAvQdEEIj4dP6+/wLED3wQnzraEOGWGtpgf/pS/jncZPpOcBn8y5EA2hbg91UqhdQ62i9ys9rqND7RDqhFC3hnq2wuP6dKgfhPp0qO1DreAICNACNMKzAE2zTpbjQj2RccI8WB/utkGoT4X6VcWBeUkVw/qlofYMtZKRXezYbpl+PfhTD4/t30KdE2qXUMs6KgK0AI3wLEDT+5PlkZkX9/hIwqg+7bsYaC6r+G7kSCo+9nFaqI2N8BEd1+VCvS3dBR5sWP0u3Zke50gJ0AI0wrMATe+Cwv0FLuqv77N+e1OomxsYrhatGOwvDLWN0T7kz8OBPf4lYagVn6M/NdSGjpwALUAjPAvQ1Hui3LPQxfyKPumvV4W6sQXhanF1cahNjPrnPLZTQ93VwuMan5c+xR1pAVqARngWoKnvRHldwTudG3S4n9YO9T8tDc6LPid9jGek/+XYbhRqdgeO7V9CTe/Xx6kEaAEa4VmApq6T5OaFL+AndrSf9gj1hw4ErIXrF/3+WEcMmvEF2FCPdezYzolzTTvDCdACNMKzAE01J8kzK3hxbeUO9c8KaYq4wY7WU6E+0Kdjf6308mdXj+3D/fZeggAtQCM8C9DUFSCquPN2YEf6Jz6ycW2HA9b8Lzzb9OHYf0mouzt+bOP+TXCmE6AFaIRnAZqyJ8gPV7iwx6iW982Elr5MJjwv/dhuk+7OCs8CtAAtQCM8C9AM6+Q4Oi05XNUFfKcW982Ghab1E56bd2x36uDzzsKzAC1At8DM2XP2C3VUF+oLV173sRAKB9SQa4ZPQHdOjm+q+CJ+UYvvPN8tPHf2zvMjwrMALUAL0D0K0AOhBjtQN4Va3RGlXy8k11R8IX+mbbMAhPauEuq2moJOvMP97bT099vTxSouF/3SNKXaFqG2ii+BhXpXWiny/NS+J4XnYR/b9WtchvsXacntI9O80vHYTo4rQqZnr+OxfWWo3UK9N42BuNDNnelzIzwL0AK0AN3U+l6osY4m/XoR2bSmIHFsi/okTmd2acX9cVOo9+euGhf+/di0fPhxoe4VnpfaX6uGuqPimUwuD7VvqPGZbY0v9r4lLcH+Z+FZgBagBWjhGZpzYvxKTQH6wVBjWtInh1cYrk6raqnlFPx3SHcwnxWeF9tHMyp8FOaoqlb/S1MovjnUDcJzsT6NXz7XGGGN7bO+EqAFaOEZFjoprh7q0RqfyXx3C/pky7QUcul9/05Vwfk59mNSqKuE53/pk/0qejzpxFDPqznMzBWeEaAFaOEZenNSPKTml5p+3PD+WLGCn/fjioVv6eE+7Z2WdB5MM05s26djfb0Kpqv7Waite7Q/y4X6aPpVY/5z9Os5qyFAC9DCM1R7Qly2R3Mbv6bBfXJE4X2NC6+s04D9ii+s3dLm6QQL9MEFhY9tfH52pQbs147xi2mdv24gQAvQfRmghWdIJ8Q39mhqrW83tD/WLTwn8BmhljfSGnFsdyw8hg/VqwjQAnQfBWjhGRY6IV7ZowAdf3Jet4H9cUbBfTy17asvdmicxxcrf1jw2E7XqwjQAnQfBWjhGRY6GW60lFkallbXZYaQTzesPyYWfHFQeG7Wsd2tYHg+UI8iQAvQfRSghWdY5GR4csbJMC7c8YJQ92X8jQfitFwN6o8vFQpYNzRpv/jnsb2+0LE9XW8iQAvQfRSghWdY5ES4SuYSxt9Kfyf3hbt9G9Ifq4X6e4GA9afchTMofmxfUSg83+qLEQ09l78xrXJ5bqjvpxfDf5dmnImz78wLdXuogfglMNRhaeGlVQRoAfq56prLv/XzJ7+w6pcHj1/mpIbXukYSdZ50D8oME69Nf2d85jLSP+pIf8yvaUZX48b66QWO6xOhNtObS+3rkfbvN0ewrbia5Pbps3tCmmP9+2nZ9AdSeIznpjWW8ndatxJh2O7aoT6Yfll5MvOXxKvSipljhrBdAbpPAvScmeff8/TnVxwM4bQNtYWRRF0n3/hC1c8zToR3LPx8b5xRIzOcbNOAPvlBiUVSjK7GjfUVM39pmV9H6s1KA/TFQ/jbY0JNCfXVdDf1mSH+7c4E6LC9yWkVzScqeLE7LhP/kSUFaQG6PwJ0y8KzAE2tJ+GdM0+0B5c8qYY6r8f98R8FLj7xTs6Lja7GjfXdCxzb37Rl+fkuBuj4BTs9mjDS1VJbH6DTHO4X1DRDUnyvZTcBuj8DdAvDswBNrRe5SzJOgo8tekEqcEf7yV4uNFJoJcZTjKxGjvWzCxzb9+jJygP09xbzt7ZKz+zmHr/WBuj0C8pRFd1xHsoc9mME6P4J0NdedtYdLQzPAjS1XeDWz5y67syKQujHe9gnV2e2/WnLJzdyrI9KS6jnHNvfxuWy9WblAXpgob8RH9X4cuZ5qvUBOvztTdKjKoM9rJsXfilagO5ugI7h+ZkTlmtjeBagqe0Cd1zmCXXL5/i7a2Su4PfbXqzYF2dVCPV4Zp9cYmQ1cqy/rECA+KSerCVA35D+/YS0JHnJENi6AB3+7tRQf+txeJ5fd8fjIkB3N0APXHbOT1scngVoarm4jQ31UM40Xkv5+2dlnqj36kGfbFvgArOX0dXI8T69wLF9iZ6sJUDfFlcmTWFtsJ8DdKFHykrXz0KtKUB3L0DPmXnu3JaHZwGaWi5uB2SeRN+9lL+/debfv74HfXJYgenNVjG6Gjnez8s8trfrxdoC9B2Fl1pvZYAOf+/DDQzP8+vyUDsK0N0J0B0JzwI0tVzcfpJx8otzqq48hG3cmnmSnlxzn5yfe1Exsho73n+WeWw/oxdrC9BVVisCdJqLebDhdYkA3Y0A3aHwLEBT+YVth8wT5xdrust9Vs39MjezvdONrkaO9xXSy505x/ZVelKAriNApxlHnmhBgB4UoNsfoDsWngVoKr+w5c4hOmmI21k5c+GK+ELf2jX1yagCLxBubnQ1cry/pMCjOZbtFqArD9BpKe57ux6eBehmBOgOhmcBmkovahMy78YNDHN7X8o80R5eU7+sm9nOx01x1tgxv2vu9F16UYCuKUCfUvH+P50WA7o9PdZ0X+by3wJ0SwN0R8OzAE2lF7XP1DnLRLxbXWAlrNE19Ms2me38kdHV2DH/3sxje7peFKCrDtCFZgFatJ5KzyofkH6JWX4x2x0dasNQ7wz1jcwpSAXoFgghc3oHg7MATaUXtLiS1QMZJ70HRvJTdvg312aebN9cQ9+8JbON3+rB8YxzG09pYI1t2Lj/VOax/WgP2rxdA4/rrgJ0pQH6xoL7GUPw50I9fwTtWC3+8pc5zakALTwL0HQqQL8z86T32RFud+/M7c6poW/2y2zj8T04nic1NKRs1bBxn9tP+/SgzQMNPK5PL7qcc0MC9D2hLk4LQx0cfyUL9YY0T/HkUFssVKObGKDTF5RS/RFvWGxQYAyOC/VtAVp4FqARoCfsdkvGCS8upTtxhNtdIfPOd6xNK+6b92W27zABupmPPIT2nJG5PzsL0AvqoAYE6HguujJN9bZO4X7vVYC+tVDffKn0uxhpMZdnBGjhWYCmX8PzK3s5x3H498dkbv+0ivvn0Mz2vUuAXlDzGjb2z8ncn5cL0Avq4h4H6LiAx8YV9nvtATr8u+0L9c2xFfbLPqVDtKuy8CxA05YA/Y3ME97umdtfP905Gun2/x6Xj62wf47K7J93CtCNDdAXt216QgH63yrOFPHeGvq9FwH6ogL9E8/voyrum8MEaOFZgKbfwvP4zKmK4kwYyxZoxxWZJ91DGxygpwjQnQ3QEwXongbox+p6jKbuAJ1e2MtdNCVOR7dSTf1ziQAtPAvQ9FOA/kTmye6IQu3YvcDLQstW1Ee5AXqaAL2gftWxAL2RAL2gvtuDAP2mGvu97gA9rcDz4FvWfDPmLwK08CxA0w/hOb7A9/vMn07HF2rL6HQ3O+fEu1tDA/R+AvSCuq1jAXqLHrS5qQH67GHsQ6Of621IgD43s3/O78HY/IgALTwL0PRDgN4r80T37cLtOTKzPVdV1E+HZLbrQAF6QX2/YZ+BszP355UC9II6tcYAfe9wps1raYCel9lHk3owNseWuAvt6iw8C9A0PUDflHmie23h9oxPq2PltGmTCvopdx7oXiy20dQAPdCwz0BuP71BgF5QJ9UYoP+7ZV+2zh7mttbJne+5h5+pkwXoRobn/fs8PAvQFDvJvSLzJPeLKt7sDn/zgsx2fbGCNu1a1525PgjQFzTsc3BE5v68twdtbmqAPmIY+5CznUfrvvvcgwCd+07IB3v4mdq2ywF65uw5y4Wa2KZ67ORx00J4fDDUw31eL5P+KHGSOyvzJHdIRe3aKbNdfw21auE2Tc5s00wBurovOJn9tH/m/hwtQA9/vvPM7VzUo7FSZ4A+vG0vty7U9mVzl/pueICOoXSwRfW9UGOlHihzgnt+qH9kTh21ZkVtGxXqzsyLxwcKt2ntzPbcKUAvqA817LOwc+b+fEuAXlC71BSgD++DAH1axrYeasDn6ioBWniGLgboj2ZewM6quH25L+39vPTjJbl3VEKtXvMx/nh6Calk3V8gZL25YZ+F/2jbtHxhmzMqOLYPFDi269cUoN/aBwH6qjY+/7xQ+48XoIVn6Fp4Xi7UrzMvYFtX3Ma10l3unDa+rnCbbsxsz84dGDuvKBCyNm3YPo1Kz9Tm7NPaHTi278rsg/iL1uiaAvSOfRCg57Zp+rrFtP99ArTwDF0L0FMzL163tuBiFeuywu05JbM9n+7A2HlrZh88Hr/ANXC/cr8cTe3AsT06sw9uHub2GjP7T0MDdM4Udie1/TojQGfVgPAM1ZzYcp+fPKCmdm5dYBWu9Qu25x2Z7ZnbgbGTO2PFjxq6X1/I3K9zO3Bsc2e/OV2ALhqgcx6pOaoB42l3Abon9cNQqy8DFD+pvazAHcRNQ02sqX6Z2d7PF+y7iQUeX9ig5ePn0rrmCa55v6Zk7ld8Pn75lh/b3Me69hOgiwboh1seoF8vQAvP0KUAfXpD396vquKKWCsX7L/clcGOavHYWbbAi2ZTG7pva6VfLDrzcuQw939C3V8OBehKA/Txbf9SKkALz9Cki+Saof7eZwG66IplBZ6D/l0TnwEe4r6/KnPfn6lq6sNC+5f7HPSsFp8bptc9E4kAvdRt/T5jW2c0YEy9W4AWnqErAfqwPgzPsX5asA93KdCeaS0dP8dm7vd1Dd+/DxU4thu39NheXffiOAL0UreV82vXVQ0YU58QoIVn6EJ4jj+/39unAbrYBTdO05V5Z+ifgT4ej5aNnxVC/TFzvw9t+D5OKPAYx9dbeG5Yv8B+7ziC7QrQS97WTzK29esGjKsZAnTl9dNQay4DVHoy272Pw3OsCwv25fEF2rNXy8bPPgVmRHlhC/ZzdoH9nNSyY3t8gceSlh3BdgXoJW/rssw+GtfjcXWXAF1dXXHl7F/8frvX7Bg6aouG1/rLQMsD9Kw+D9BPxxXnCvXlRgXu2MWfZ1dpydhZrsBsKLNasq9TC4y12aVXwaxwf19Q4L2I40a4bQF6yds6NbOP3t7DcZW7uqcAvYS6cuZVdz+xxhp/DZ002IK6WAKjzeH5pX0enufXMQX79PIC7Tm5JePnoAL7OrUl+xq/LNxXYH/3b8n+lpiVZ0MBupIAnftM/nd7OK4+IEALzwI0XQjQXxKe/1l/CrVSoT7doUB74l3snRo+duKdpL9m7ud9bZp5JLT14ALHNk5BNrHh+7ljgf28PGP7AvSSt7VzZh891avHpsJ2bxOgKwnPd/1jzTUfbFF4FqBpdXheLdTfhOfydwbD37qhQHv+0NSglV6YvKbAPh7Sss/MmPRlK3e/by05B3nhfVyz0EvFr81ogwC95G2tWuBRsc/3oI9KfDEToBd95vnyq+e1MDwL0LQ6QH9QaP7XUFOwb3co1KY74kIeDRw7JxTYtzhjyZgWfm4OLnRs46M+oxv4xejqAvs2kNkOAXrp25ub2U9PjPQRmxH2T5zt6YcCdOHwfMWsXz82blwbw7MATWvD86hQdwrN/1bbFuzjmYXaFC86qzdo7EwvtF8fbOlnJ07b96tCffD1poTodE44rdB+bS9AVx6gjylwnK6va/zFX5tKnacF6E6EZwGa1gbo1wvLi60ZBft4o3SXZ7DQT/7jGzBuDiq0P/HL2/It/vzsUXDMfafXd+LT3cFTC+3Pdwu0R4Be+vYmFzpeJ9TQN1uFelyAFp4FaLoQoGcKy4utJ+P0XQX7+aiCbftNXDK7R+NldKHHNubXLh34DF1csD9ujouW9Gg/4vO0lxbaj0dLPLcvQA95m//X9F+D4mMiBRaYEqC7F54FaFp54d+gwAsoB4Rao4G1TYET9CcL9vXyJd46X6ieCXVinfNEpzvp1xfch7M78jkaH+rBgv0Sw+ehdT7SEbb1mtxFLap4KVSAHvI292/asVukfZuFur/0jY5+DtAdCs8CNK288J+YeQL7c6gVG7x/NxWY/WKFgu2ZVGBBisXdjT6wyp/+0ywtnwr1WMF2z2vS89wF+mhKBb+CxC9cb6lySfe0NPnXCnyRXriuKdVmAXrI21yp0Kww8yvO/T22UH/sW8F5r68D9OVXzv7joxMmPNSR8CxA07oL/sqh/tK26Y+GuY/7FThJv61wm95e0SMnv0+PiaxfsK0TQ302fVEq/XjMth38TJ1Q0bG9I82U87yCbZ2cQtLjhdv6x1DrFmynAD307R5Z+Fjelb4YjhpheyYVWkxKgF40PK+3XpfCswBN6y72BxY4gW3S8H0cG+qhzH38QQXt+lzFz2/fkC6m2w3nF4L0perVoY5Id++frah90zv6mRpdcWB4Mv39OIvBFsN5xCNOgRifNw91bKjbK2zfDoX7VIAe+nbHVPGYRKgfh3p//LViiONsrzROn634PNd3Abqj4VmApnUX+9yL6JyW7OdJBU7UWxZuU5wm7JyaXoZ8OtQ96YJ2VuqPT6epr+J/nxlqdqhfpueqq27PFzr+uYpf2n5Q07GNM7v8LNRF6TGMk9KvEMel/z4v1LXpcZk62vPOCvpTgB7etvet+BjfHeqStHJt/HXqM6G+GOrCNBafrWmstSFArxJqv5L16IQJd3UwPAvQtOoiX2IVqD1bsq+TCuzrORXdrfx6n81scv5Ifw5u2edr9VILRbSoPlRRXwrQw99+38ys1G/X7rDD8wRo6O0F/qLME9cDJV+uq2F/ry9wp29cRSH6zD652J3TtNX2agjR1wrPAnQPAvT4wi8UCtACtAAN4aTzogI/1R/Xsn3ep8DJ+ogK23dExy90x/TDnefFHNcV0l33Ls+V/o6K+1CAHlkbXpce32r6GLpbgBagBWjaclHPfYEtPuO2Qcv2ecUCM0nEl3OWq7CNexSYFaVpFae927fPP2+j0pzOT3Xs2MZZX7arof8E6JG346CGj6G/hXqZAC1AC9C04WI+psCCD7Nauu+fL3DCn1ZxGyd26Gf/ufHi6FO34Nhuk17U7MKxvbKu5eQF6Oy2HNPQMRR/Bd0jtfFpAVqAdpWg6RfxEqtVTW3pvm9SYN+vraGdy4b6QKhHWvyz/tFNXmCnh2MwztBxfIvvRsdfSN5T5+M4AnSR9nyqgWPpPQu172EBWoB2haDpF/AfF1iZb/kW7/81BU78m9fU1nVCndGS5xjn1xWhXuqTttRjO6llMyU8k8biOj3oKwG6TJveHeofDRlL71mkbfcL0AK0KwNNvmi/psDJ7+iW98GeBfrgaz24c35WurPb1IA10Kuw0vLx+Or0paOpxzW+7zAjBv4e9pEAXa5dW6S5mns1nv4aarfFtOsuAVqAdkWgyRfrGQUupi9qeR+skKbgy30xbq0etH1CWiTjNw0KV5eG2t6nK/vYbpYWpni4Icf2H2lhlkkN6BsBumzblg91eKi/1zym4uJCGz9Hm24ToAVoVwKaeoFet8Bzl1d0pC+OLXAx+HAP2x/njn59qG+GerQH4eqe9EzlRJ+s4sc2vuT7tlBX9eg56VtDHRxq7Qb1iQBd3Rfy02r4ZevxOE/4kuaAz5mnX4AWoKHqk2WJl0imdKQvXlxgudl748t+DdiXOD3frmnZ5tsqWoo7XgDnhDoy1GSfptqObVyIZe90J/iuisLNw+lXhBiaX9zQfhCgqw/S8abC7wqPrYfSzEcvGEIbZgnQArSzPk29GE9PP/+PtD5W5RzIPeiPgzL746ihXBh6sF8rp+dqDwx1YqhLQt0S6rdL+cn20fRoSFx++sJ0QY0ztkzu0nFv+ZhdK9QuKeyekqaSm5te7F3Sy2GPpF8Nbky/WnwyBfNN2rC4TeZndGKP2jwlo81TetTmOPvPzin03jLCL+P3pxVHp4ZaaRjb3muk/dWHAfp1oaZ0sLZxlgeaHEbiRXKNRWqUnunEsV1+keO6ml4hYzytFmqrtIrrEelXrjgTy3nppeaT0i+bccrNN8bHBPUaAAAAAAAAAAAAAAAAAAAAAAAAAAAAAAAAAAAAAAAAAAAAAAAAAAAAAAAAAAAAAAAAAAAAAAAAAAAAAAAAAAAAAAAAAAAAAAAAAAAAAAAAAAAAAAAAAAAAAAAAAAAAAAAAAAAAAAAAAAAAAAAAAAAAAAAAAAAAAAAAAAAAAAAAAAAAAAAAAAAAAAAAAAAAAAAAAAAAAAAAAAAAAAAAAAAAAAAAAAAAAAAAAAAAAAAAAAAAAAAAAAAAAAAAAAAAAAAAAAAAQBf9P7dnGRyTvUiDAAAAAElFTkSuQmCC" vertex="1" parent="0v8Zg-rZT7xSfdYN5Gm1-43">
          <mxGeometry x="110" y="82.23000000000002" width="80" height="27.77" as="geometry" />
        </mxCell>
        <mxCell id="0v8Zg-rZT7xSfdYN5Gm1-51" value="" style="group" vertex="1" connectable="0" parent="1">
          <mxGeometry x="179" y="650" width="215" height="115" as="geometry" />
        </mxCell>
        <mxCell id="0v8Zg-rZT7xSfdYN5Gm1-19" value="" style="rounded=0;whiteSpace=wrap;html=1;strokeColor=#3399FF;" vertex="1" parent="0v8Zg-rZT7xSfdYN5Gm1-51">
          <mxGeometry y="20" width="200" height="80" as="geometry" />
        </mxCell>
        <mxCell id="0v8Zg-rZT7xSfdYN5Gm1-20" value="&lt;font style=&quot;font-size: 14px;&quot;&gt;&lt;b&gt;api.ts&lt;/b&gt;&lt;/font&gt;" style="text;html=1;align=center;verticalAlign=middle;whiteSpace=wrap;rounded=0;fillColor=default;" vertex="1" parent="0v8Zg-rZT7xSfdYN5Gm1-51">
          <mxGeometry x="68.75" width="62.5" height="40" as="geometry" />
        </mxCell>
        <mxCell id="0v8Zg-rZT7xSfdYN5Gm1-21" value="Endpoint configuration for sending requests to backend" style="text;html=1;align=center;verticalAlign=middle;whiteSpace=wrap;rounded=0;" vertex="1" parent="0v8Zg-rZT7xSfdYN5Gm1-51">
          <mxGeometry x="20" y="30" width="160" height="60" as="geometry" />
        </mxCell>
        <mxCell id="0v8Zg-rZT7xSfdYN5Gm1-50" value="" style="shape=image;verticalLabelPosition=bottom;verticalAlign=top;imageAspect=0;image=data:image/svg+xml,PHN2ZyB4bWxucz0iaHR0cDovL3d3dy53My5vcmcvMjAwMC9zdmciIHZpZXdCb3g9IjAgMCAzMiAzMiIgaGVpZ2h0PSI4MDBweCIgd2lkdGg9IjgwMHB4Ij48dGl0bGU+ZmlsZV90eXBlX3R5cGVzY3JpcHRfb2ZmaWNpYWw8L3RpdGxlPjxyZWN0IHN0eWxlPSJmaWxsOiMzMTc4YzYiIHJ4PSIxLjMxMiIgaGVpZ2h0PSIyOCIgd2lkdGg9IjI4IiB5PSIyIiB4PSIyIi8+PHBhdGggc3R5bGU9ImZpbGw6I2ZmZmZmZjtmaWxsLXJ1bGU6ZXZlbm9kZCIgZD0iTTE4LjI0NSwyMy43NTl2My4wNjhhNi40OTIsNi40OTIsMCwwLDAsMS43NjQuNTc1LDExLjU2LDExLjU2LDAsMCwwLDIuMTQ2LjE5Miw5Ljk2OCw5Ljk2OCwwLDAsMCwyLjA4OC0uMjExLDUuMTEsNS4xMSwwLDAsMCwxLjczNS0uNywzLjU0MiwzLjU0MiwwLDAsMCwxLjE4MS0xLjI2Niw0LjQ2OSw0LjQ2OSwwLDAsMCwuMTg2LTMuMzk0LDMuNDA5LDMuNDA5LDAsMCwwLS43MTctMS4xMTcsNS4yMzYsNS4yMzYsMCwwLDAtMS4xMjMtLjg3NywxMi4wMjcsMTIuMDI3LDAsMCwwLTEuNDc3LS43MzRxLS42LS4yNDktMS4wOC0uNDg0YTUuNSw1LjUsMCwwLDEtLjgxMy0uNDc5LDIuMDg5LDIuMDg5LDAsMCwxLS41MTYtLjUxOCwxLjA5MSwxLjA5MSwwLDAsMS0uMTgxLS42MTgsMS4wMzksMS4wMzksMCwwLDEsLjE2Mi0uNTcxLDEuNCwxLjQsMCwwLDEsLjQ1OS0uNDM2LDIuNDM5LDIuNDM5LDAsMCwxLC43MjYtLjI4Myw0LjIxMSw0LjIxMSwwLDAsMSwuOTU2LS4xLDUuOTQyLDUuOTQyLDAsMCwxLC44MDguMDU4LDYuMjkyLDYuMjkyLDAsMCwxLC44NTYuMTc3LDUuOTk0LDUuOTk0LDAsMCwxLC44MzYuMyw0LjY1Nyw0LjY1NywwLDAsMSwuNzUxLjQyMlYxMy45YTcuNTA5LDcuNTA5LDAsMCwwLTEuNTI1LS40LDEyLjQyNiwxMi40MjYsMCwwLDAtMS45LS4xMjksOC43NjcsOC43NjcsMCwwLDAtMi4wNjQuMjM1LDUuMjM5LDUuMjM5LDAsMCwwLTEuNzE2LjczMywzLjY1NSwzLjY1NSwwLDAsMC0xLjE3MSwxLjI3MSwzLjczMSwzLjczMSwwLDAsMC0uNDMxLDEuODQ1LDMuNTg4LDMuNTg4LDAsMCwwLC43ODksMi4zNCw2LDYsMCwwLDAsMi4zOTUsMS42MzlxLjYzLjI2LDEuMTc1LjUwOWE2LjQ1OCw2LjQ1OCwwLDAsMSwuOTQyLjUxNywyLjQ2MywyLjQ2MywwLDAsMSwuNjI2LjU4NSwxLjIsMS4yLDAsMCwxLC4yMy43MTksMS4xLDEuMSwwLDAsMS0uMTQ0LjU1MiwxLjI2OSwxLjI2OSwwLDAsMS0uNDM1LjQ0MSwyLjM4MSwyLjM4MSwwLDAsMS0uNzI2LjI5Miw0LjM3Nyw0LjM3NywwLDAsMS0xLjAxOC4xMDUsNS43NzMsNS43NzMsMCwwLDEtMS45NjktLjM1QTUuODc0LDUuODc0LDAsMCwxLDE4LjI0NSwyMy43NTlabS01LjE1NC03LjYzOGg0VjEzLjU5NEg1LjkzOHYyLjUyN0g5LjkyVjI3LjM3NWgzLjE3MVoiLz48L3N2Zz4=;aspect=fixed;flipV=0;" vertex="1" parent="0v8Zg-rZT7xSfdYN5Gm1-51">
          <mxGeometry x="185" y="85" width="30" height="30" as="geometry" />
        </mxCell>
        <mxCell id="0v8Zg-rZT7xSfdYN5Gm1-53" value="" style="group" vertex="1" connectable="0" parent="1">
          <mxGeometry x="179" y="790" width="215" height="115" as="geometry" />
        </mxCell>
        <mxCell id="0v8Zg-rZT7xSfdYN5Gm1-22" value="" style="rounded=0;whiteSpace=wrap;html=1;strokeColor=#3399FF;" vertex="1" parent="0v8Zg-rZT7xSfdYN5Gm1-53">
          <mxGeometry y="20" width="200" height="80" as="geometry" />
        </mxCell>
        <mxCell id="0v8Zg-rZT7xSfdYN5Gm1-23" value="&lt;font style=&quot;font-size: 14px;&quot;&gt;&lt;b&gt;xlsxParser.ts&lt;/b&gt;&lt;/font&gt;" style="text;html=1;align=center;verticalAlign=middle;whiteSpace=wrap;rounded=0;fillColor=default;" vertex="1" parent="0v8Zg-rZT7xSfdYN5Gm1-53">
          <mxGeometry x="44.379999999999995" width="111.25" height="40" as="geometry" />
        </mxCell>
        <mxCell id="0v8Zg-rZT7xSfdYN5Gm1-24" value="Utility function to parse user uploaded .xlsx files and return data in AG Grid format" style="text;html=1;align=center;verticalAlign=middle;whiteSpace=wrap;rounded=0;" vertex="1" parent="0v8Zg-rZT7xSfdYN5Gm1-53">
          <mxGeometry x="20" y="30" width="160" height="60" as="geometry" />
        </mxCell>
        <mxCell id="0v8Zg-rZT7xSfdYN5Gm1-52" value="" style="shape=image;verticalLabelPosition=bottom;verticalAlign=top;imageAspect=0;image=data:image/svg+xml,PHN2ZyB4bWxucz0iaHR0cDovL3d3dy53My5vcmcvMjAwMC9zdmciIHZpZXdCb3g9IjAgMCAzMiAzMiIgaGVpZ2h0PSI4MDBweCIgd2lkdGg9IjgwMHB4Ij48dGl0bGU+ZmlsZV90eXBlX3R5cGVzY3JpcHRfb2ZmaWNpYWw8L3RpdGxlPjxyZWN0IHN0eWxlPSJmaWxsOiMzMTc4YzYiIHJ4PSIxLjMxMiIgaGVpZ2h0PSIyOCIgd2lkdGg9IjI4IiB5PSIyIiB4PSIyIi8+PHBhdGggc3R5bGU9ImZpbGw6I2ZmZmZmZjtmaWxsLXJ1bGU6ZXZlbm9kZCIgZD0iTTE4LjI0NSwyMy43NTl2My4wNjhhNi40OTIsNi40OTIsMCwwLDAsMS43NjQuNTc1LDExLjU2LDExLjU2LDAsMCwwLDIuMTQ2LjE5Miw5Ljk2OCw5Ljk2OCwwLDAsMCwyLjA4OC0uMjExLDUuMTEsNS4xMSwwLDAsMCwxLjczNS0uNywzLjU0MiwzLjU0MiwwLDAsMCwxLjE4MS0xLjI2Niw0LjQ2OSw0LjQ2OSwwLDAsMCwuMTg2LTMuMzk0LDMuNDA5LDMuNDA5LDAsMCwwLS43MTctMS4xMTcsNS4yMzYsNS4yMzYsMCwwLDAtMS4xMjMtLjg3NywxMi4wMjcsMTIuMDI3LDAsMCwwLTEuNDc3LS43MzRxLS42LS4yNDktMS4wOC0uNDg0YTUuNSw1LjUsMCwwLDEtLjgxMy0uNDc5LDIuMDg5LDIuMDg5LDAsMCwxLS41MTYtLjUxOCwxLjA5MSwxLjA5MSwwLDAsMS0uMTgxLS42MTgsMS4wMzksMS4wMzksMCwwLDEsLjE2Mi0uNTcxLDEuNCwxLjQsMCwwLDEsLjQ1OS0uNDM2LDIuNDM5LDIuNDM5LDAsMCwxLC43MjYtLjI4Myw0LjIxMSw0LjIxMSwwLDAsMSwuOTU2LS4xLDUuOTQyLDUuOTQyLDAsMCwxLC44MDguMDU4LDYuMjkyLDYuMjkyLDAsMCwxLC44NTYuMTc3LDUuOTk0LDUuOTk0LDAsMCwxLC44MzYuMyw0LjY1Nyw0LjY1NywwLDAsMSwuNzUxLjQyMlYxMy45YTcuNTA5LDcuNTA5LDAsMCwwLTEuNTI1LS40LDEyLjQyNiwxMi40MjYsMCwwLDAtMS45LS4xMjksOC43NjcsOC43NjcsMCwwLDAtMi4wNjQuMjM1LDUuMjM5LDUuMjM5LDAsMCwwLTEuNzE2LjczMywzLjY1NSwzLjY1NSwwLDAsMC0xLjE3MSwxLjI3MSwzLjczMSwzLjczMSwwLDAsMC0uNDMxLDEuODQ1LDMuNTg4LDMuNTg4LDAsMCwwLC43ODksMi4zNCw2LDYsMCwwLDAsMi4zOTUsMS42MzlxLjYzLjI2LDEuMTc1LjUwOWE2LjQ1OCw2LjQ1OCwwLDAsMSwuOTQyLjUxNywyLjQ2MywyLjQ2MywwLDAsMSwuNjI2LjU4NSwxLjIsMS4yLDAsMCwxLC4yMy43MTksMS4xLDEuMSwwLDAsMS0uMTQ0LjU1MiwxLjI2OSwxLjI2OSwwLDAsMS0uNDM1LjQ0MSwyLjM4MSwyLjM4MSwwLDAsMS0uNzI2LjI5Miw0LjM3Nyw0LjM3NywwLDAsMS0xLjAxOC4xMDUsNS43NzMsNS43NzMsMCwwLDEtMS45NjktLjM1QTUuODc0LDUuODc0LDAsMCwxLDE4LjI0NSwyMy43NTlabS01LjE1NC03LjYzOGg0VjEzLjU5NEg1LjkzOHYyLjUyN0g5LjkyVjI3LjM3NWgzLjE3MVoiLz48L3N2Zz4=;aspect=fixed;flipV=0;" vertex="1" parent="0v8Zg-rZT7xSfdYN5Gm1-53">
          <mxGeometry x="185" y="85" width="30" height="30" as="geometry" />
        </mxCell>
        <mxCell id="0v8Zg-rZT7xSfdYN5Gm1-56" value="" style="group" vertex="1" connectable="0" parent="1">
          <mxGeometry x="179" y="930" width="215" height="115" as="geometry" />
        </mxCell>
        <mxCell id="0v8Zg-rZT7xSfdYN5Gm1-25" value="" style="rounded=0;whiteSpace=wrap;html=1;strokeColor=#3399FF;" vertex="1" parent="0v8Zg-rZT7xSfdYN5Gm1-56">
          <mxGeometry y="20" width="200" height="80" as="geometry" />
        </mxCell>
        <mxCell id="0v8Zg-rZT7xSfdYN5Gm1-26" value="&lt;font style=&quot;font-size: 14px;&quot;&gt;&lt;b&gt;validation.ts&lt;/b&gt;&lt;/font&gt;" style="text;html=1;align=center;verticalAlign=middle;whiteSpace=wrap;rounded=0;fillColor=default;" vertex="1" parent="0v8Zg-rZT7xSfdYN5Gm1-56">
          <mxGeometry x="44.379999999999995" width="111.25" height="40" as="geometry" />
        </mxCell>
        <mxCell id="0v8Zg-rZT7xSfdYN5Gm1-27" value="Utility function to check validity of each cell and row i.e. data types" style="text;html=1;align=center;verticalAlign=middle;whiteSpace=wrap;rounded=0;" vertex="1" parent="0v8Zg-rZT7xSfdYN5Gm1-56">
          <mxGeometry x="20" y="30" width="160" height="60" as="geometry" />
        </mxCell>
        <mxCell id="0v8Zg-rZT7xSfdYN5Gm1-55" value="" style="shape=image;verticalLabelPosition=bottom;verticalAlign=top;imageAspect=0;image=data:image/svg+xml,PHN2ZyB4bWxucz0iaHR0cDovL3d3dy53My5vcmcvMjAwMC9zdmciIHZpZXdCb3g9IjAgMCAzMiAzMiIgaGVpZ2h0PSI4MDBweCIgd2lkdGg9IjgwMHB4Ij48dGl0bGU+ZmlsZV90eXBlX3R5cGVzY3JpcHRfb2ZmaWNpYWw8L3RpdGxlPjxyZWN0IHN0eWxlPSJmaWxsOiMzMTc4YzYiIHJ4PSIxLjMxMiIgaGVpZ2h0PSIyOCIgd2lkdGg9IjI4IiB5PSIyIiB4PSIyIi8+PHBhdGggc3R5bGU9ImZpbGw6I2ZmZmZmZjtmaWxsLXJ1bGU6ZXZlbm9kZCIgZD0iTTE4LjI0NSwyMy43NTl2My4wNjhhNi40OTIsNi40OTIsMCwwLDAsMS43NjQuNTc1LDExLjU2LDExLjU2LDAsMCwwLDIuMTQ2LjE5Miw5Ljk2OCw5Ljk2OCwwLDAsMCwyLjA4OC0uMjExLDUuMTEsNS4xMSwwLDAsMCwxLjczNS0uNywzLjU0MiwzLjU0MiwwLDAsMCwxLjE4MS0xLjI2Niw0LjQ2OSw0LjQ2OSwwLDAsMCwuMTg2LTMuMzk0LDMuNDA5LDMuNDA5LDAsMCwwLS43MTctMS4xMTcsNS4yMzYsNS4yMzYsMCwwLDAtMS4xMjMtLjg3NywxMi4wMjcsMTIuMDI3LDAsMCwwLTEuNDc3LS43MzRxLS42LS4yNDktMS4wOC0uNDg0YTUuNSw1LjUsMCwwLDEtLjgxMy0uNDc5LDIuMDg5LDIuMDg5LDAsMCwxLS41MTYtLjUxOCwxLjA5MSwxLjA5MSwwLDAsMS0uMTgxLS42MTgsMS4wMzksMS4wMzksMCwwLDEsLjE2Mi0uNTcxLDEuNCwxLjQsMCwwLDEsLjQ1OS0uNDM2LDIuNDM5LDIuNDM5LDAsMCwxLC43MjYtLjI4Myw0LjIxMSw0LjIxMSwwLDAsMSwuOTU2LS4xLDUuOTQyLDUuOTQyLDAsMCwxLC44MDguMDU4LDYuMjkyLDYuMjkyLDAsMCwxLC44NTYuMTc3LDUuOTk0LDUuOTk0LDAsMCwxLC44MzYuMyw0LjY1Nyw0LjY1NywwLDAsMSwuNzUxLjQyMlYxMy45YTcuNTA5LDcuNTA5LDAsMCwwLTEuNTI1LS40LDEyLjQyNiwxMi40MjYsMCwwLDAtMS45LS4xMjksOC43NjcsOC43NjcsMCwwLDAtMi4wNjQuMjM1LDUuMjM5LDUuMjM5LDAsMCwwLTEuNzE2LjczMywzLjY1NSwzLjY1NSwwLDAsMC0xLjE3MSwxLjI3MSwzLjczMSwzLjczMSwwLDAsMC0uNDMxLDEuODQ1LDMuNTg4LDMuNTg4LDAsMCwwLC43ODksMi4zNCw2LDYsMCwwLDAsMi4zOTUsMS42MzlxLjYzLjI2LDEuMTc1LjUwOWE2LjQ1OCw2LjQ1OCwwLDAsMSwuOTQyLjUxNywyLjQ2MywyLjQ2MywwLDAsMSwuNjI2LjU4NSwxLjIsMS4yLDAsMCwxLC4yMy43MTksMS4xLDEuMSwwLDAsMS0uMTQ0LjU1MiwxLjI2OSwxLjI2OSwwLDAsMS0uNDM1LjQ0MSwyLjM4MSwyLjM4MSwwLDAsMS0uNzI2LjI5Miw0LjM3Nyw0LjM3NywwLDAsMS0xLjAxOC4xMDUsNS43NzMsNS43NzMsMCwwLDEtMS45NjktLjM1QTUuODc0LDUuODc0LDAsMCwxLDE4LjI0NSwyMy43NTlabS01LjE1NC03LjYzOGg0VjEzLjU5NEg1LjkzOHYyLjUyN0g5LjkyVjI3LjM3NWgzLjE3MVoiLz48L3N2Zz4=;aspect=fixed;flipV=0;" vertex="1" parent="0v8Zg-rZT7xSfdYN5Gm1-56">
          <mxGeometry x="185" y="85" width="30" height="30" as="geometry" />
        </mxCell>
        <mxCell id="0v8Zg-rZT7xSfdYN5Gm1-57" value="" style="shape=image;verticalLabelPosition=bottom;verticalAlign=top;imageAspect=0;aspect=fixed;image=data:image/svg+xml,PHN2ZyB4bWxucz0iaHR0cDovL3d3dy53My5vcmcvMjAwMC9zdmciIGZpbGw9Im5vbmUiIHZpZXdCb3g9IjAgMCAzMiAzMiIgaGVpZ2h0PSI4MDBweCIgd2lkdGg9IjgwMHB4Ij4mI3hhOzxwYXRoIGZpbGw9IiM1M0MxREUiIGQ9Ik0xOC42Nzg5IDE1Ljk3NTlDMTguNjc4OSAxNC41NDE1IDE3LjQ3OTYgMTMuMzc4NSAxNiAxMy4zNzg1QzE0LjUyMDYgMTMuMzc4NSAxMy4zMjExIDE0LjU0MTUgMTMuMzIxMSAxNS45NzU5QzEzLjMyMTEgMTcuNDEwNSAxNC41MjA2IDE4LjU3MzQgMTYgMTguNTczNEMxNy40Nzk2IDE4LjU3MzQgMTguNjc4OSAxNy40MTA1IDE4LjY3ODkgMTUuOTc1OVoiLz4mI3hhOzxwYXRoIGZpbGw9IiM1M0MxREUiIGQ9Ik0yNC43MDA0IDExLjE1MzdDMjUuMjY2MSA4LjkyNDc4IDI1Ljk3NzIgNC43OTE0OCAyMy40NzA0IDMuMzkwMTZDMjAuOTc1MyAxLjk5NDk1IDE3LjcyODQgNC42Njg0MyAxNi4wMTM5IDYuMjczMThDMTQuMzA0NCA0LjY4NDQyIDEwLjk2NjMgMi4wMjIzNyA4LjQ2MTYzIDMuNDI4MTRDNS45Njc1MSA0LjgyODAzIDYuNzM2NjQgOC44OTI4IDcuMzE0OSAxMS4xMzU3QzQuOTg4MzEgMTEuNzc2NCAxIDEzLjE1NjQgMSAxNS45NzU5QzEgMTguNzg3NCA0Ljk4NDE2IDIwLjI4ODggNy4yOTY5OCAyMC45Mjg5QzYuNzE2NTggMjMuMTg0MiA1Ljk4NTk2IDI3LjE5MDkgOC40ODMyNyAyOC41ODc3QzEwLjk5NzMgMjkuOTkzMiAxNC4zMjUgMjcuMzk0NSAxNi4wNTU0IDI1Ljc3MjJDMTcuNzgwOSAyNy4zODY0IDIwLjk5NjYgMzAuMDAyMSAyMy40OTIyIDI4LjYwMTRDMjUuOTk1NiAyNy4xOTYzIDI1LjM0MzYgMjMuMTE4NCAyNC43NjUzIDIwLjg2MjVDMjcuMDA3MyAyMC4yMjEgMzEgMTguNzUyMyAzMSAxNS45NzU5QzMxIDEzLjE4MzUgMjYuOTkwMyAxMS43OTIzIDI0LjcwMDQgMTEuMTUzN1pNMjQuNDE2MiAxOS42NjdDMjQuMDM2NSAxOC41MDE2IDIzLjUyNCAxNy4yNjIzIDIyLjg5NzEgMTUuOTgyMUMyMy40OTU1IDE0LjczMjEgMjMuOTg4MSAxMy41MDg4IDI0LjM1NzIgMTIuMzUwOUMyNi4wMzU5IDEyLjgyMjggMjkuNzE4NSAxMy45MDEzIDI5LjcxODUgMTUuOTc1OUMyOS43MTg1IDE4LjA3IDI2LjE4NDYgMTkuMTU4NyAyNC40MTYyIDE5LjY2N1pNMjIuODUgMjcuNTI2QzIwLjk4OCAyOC41NzEgMTguMjIyMSAyNi4wNjk2IDE2Ljk0NzggMjQuODgwOUMxNy43OTMyIDIzLjk4NDQgMTguNjM4IDIyLjk0MjIgMTkuNDYyNSAyMS43ODQ5QzIwLjkxMjkgMjEuNjYwMiAyMi4yODMgMjEuNDU2MiAyMy41MjU2IDIxLjE3NzdDMjMuOTMyNiAyMi43NzM0IDI0LjcyMDIgMjYuNDc2MyAyMi44NSAyNy41MjZaTTkuMTIzNjIgMjcuNTExMUM3LjI2MTQzIDI2LjQ3IDguMTEyNTggMjIuODk0NiA4LjUzOTU3IDIxLjIzMzNDOS43NjgzNCAyMS40OTY5IDExLjEyODYgMjEuNjg2NSAxMi41ODI0IDIxLjgwMDhDMTMuNDEyMyAyMi45MzMyIDE0LjI4MTYgMjMuOTc0MSAxNS4xNTc2IDI0Ljg4NTdDMTQuMDc1MyAyNS45MDA4IDEwLjk5NDUgMjguNTU3IDkuMTIzNjIgMjcuNTExMVpNMi4yODE0OSAxNS45NzU5QzIuMjgxNDkgMTMuODc0IDUuOTQyMDcgMTIuODAzMyA3LjY1OTA0IDEyLjMzMjZDOC4wMzQ1MSAxMy41MTY1IDguNTI2OTUgMTQuNzU0NCA5LjEyMTIzIDE2LjAwNjJDOC41MTkyNSAxNy4yNzY2IDguMDE5NzcgMTguNTM0MSA3LjY0MDg1IDE5LjczMkM2LjAwMzY5IDE5LjI3NzYgMi4yODE0OSAxOC4wNzkxIDIuMjgxNDkgMTUuOTc1OVpNOS4xMDM3IDQuNTAzNTRDMTAuOTczNSAzLjQ1NDE2IDEzLjg3NDcgNi4wMDk4MyAxNS4xMTU5IDcuMTYwMTNDMTQuMjQ0NCA4LjA2NzU0IDEzLjM4MzEgOS4xMDA2IDEyLjU2MDMgMTAuMjI2NUMxMS4xNDk0IDEwLjM1MzMgOS43OTg3NSAxMC41NTY5IDguNTU3MDkgMTAuODI5N0M4LjA5MTI1IDkuMDIwNzEgNy4yMzU5MiA1LjU1MTc5IDkuMTAzNyA0LjUwMzU0Wk0yMC4zNzkzIDExLjU3NzFDMjEuMzM2NSAxMS42OTQyIDIyLjI1MzYgMTEuODUgMjMuMTE0NyAxMi4wNDA2QzIyLjg1NjIgMTIuODQ0IDIyLjUzNCAxMy42ODQxIDIyLjE1NDUgMTQuNTQ1M0MyMS42MDQ0IDEzLjUzMzMgMjEuMDEzOSAxMi41NDE2IDIwLjM3OTMgMTEuNTc3MVpNMTYuMDE0MyA4LjA0ODFDMTYuNjA1NCA4LjY2ODk3IDE3LjE5NzQgOS4zNjIzIDE3Ljc3OTggMTAuMTE0NUMxNi41OTg1IDEwLjA2MDMgMTUuNDE1MyAxMC4wNjAxIDE0LjIzNCAxMC4xMTM3QzE0LjgxNjkgOS4zNjg0OCAxNS40MTQgOC42NzYxOCAxNi4wMTQzIDguMDQ4MVpNOS44NTY1IDE0LjU0NDRDOS40ODMyOSAxMy42ODYyIDkuMTYzOTggMTIuODQyNCA4LjkwMzIyIDEyLjAyNzVDOS43NTkxOCAxMS44NDE4IDEwLjY3MiAxMS42OSAxMS42MjMgMTEuNTc0OEMxMC45ODY2IDEyLjUzNzIgMTAuMzk3MSAxMy41Mjg1IDkuODU2NSAxNC41NDQ0Wk0xMS42NTAzIDIwLjQ2NTdDMTAuNjY3OSAyMC4zNTk0IDkuNzQxMjYgMjAuMjE1MyA4Ljg4NTU2IDIwLjAzNDdDOS4xNTA0NCAxOS4yMDU1IDkuNDc2NzggMTguMzQzNSA5Ljg1Nzk2IDE3LjQ2NjhDMTAuNDA2IDE4LjQ5MzMgMTEuMDA0NSAxOS40OTQyIDExLjY1MDMgMjAuNDY1N1pNMTYuMDQ5OCAyMy45OTE1QzE1LjQ0MjQgMjMuMzU2IDE0LjgzNjUgMjIuNjUzMSAxNC4yNDQ4IDIxLjg5NzFDMTUuNDMyOCAyMS45NDIzIDE2LjYyMzEgMjEuOTQyNCAxNy44MTEgMjEuODkxQzE3LjIyNjggMjIuNjYwOCAxNi42MzY5IDIzLjM2NDcgMTYuMDQ5OCAyMy45OTE1Wk0yMi4xNjY3IDE3LjQyMjJDMjIuNTY3NyAxOC4zMDg0IDIyLjkwNTcgMTkuMTY1NyAyMy4xNzQyIDE5Ljk4MDlDMjIuMzA0MyAyMC4xNzM0IDIxLjM2NTIgMjAuMzI4NCAyMC4zNzU3IDIwLjQ0MzVDMjEuMDE1IDE5LjQ2MDcgMjEuNjE0OSAxOC40NTM2IDIyLjE2NjcgMTcuNDIyMlpNMTguNzQ3MyAyMC41OTQxQzE2LjkzMDEgMjAuNzIgMTUuMTAxNiAyMC43MTg2IDEzLjI4MzggMjAuNjA0NEMxMi4yNTA5IDE5LjE0MTUgMTEuMzMxNCAxNy42MDMgMTAuNTM3NyAxNi4wMDU4QzExLjMyNzYgMTQuNDExOSAxMi4yNDA0IDEyLjg3NjQgMTMuMjY4NCAxMS40MTU4QzE1LjA4NzUgMTEuMjgyNSAxNi45MTc4IDExLjI4MjEgMTguNzM2OSAxMS40MTY2QzE5Ljc1NjEgMTIuODc3MSAyMC42Njc1IDE0LjQwODYgMjEuNDc1NyAxNS45ODgxQzIwLjY3NzEgMTcuNTgxMiAxOS43NTk1IDE5LjExOTggMTguNzQ3MyAyMC41OTQxWk0yMi44MzAzIDQuNDY2NkMyNC43MDA2IDUuNTEyNTQgMjMuODY4MSA5LjIyNzI2IDIzLjQ1OTUgMTAuODQyNkMyMi4yMTQ5IDEwLjU2NDEgMjAuODYzMyAxMC4zNTY5IDE5LjQ0ODMgMTAuMjI4MUMxOC42MjM5IDkuMDkwMDQgMTcuNzY5OCA4LjA1NTE4IDE2LjkxMjQgNy4xNTk0OUMxOC4xNjk1IDUuOTg0NDEgMjAuOTc4MSAzLjQzMDg5IDIyLjgzMDMgNC40NjY2WiIgY2xpcC1ydWxlPSJldmVub2RkIiBmaWxsLXJ1bGU9ImV2ZW5vZGQiLz4mI3hhOzwvc3ZnPg==" vertex="1" parent="1">
          <mxGeometry x="249" y="150" width="60" height="60" as="geometry" />
        </mxCell>
        <mxCell id="0v8Zg-rZT7xSfdYN5Gm1-64" value="" style="shape=image;verticalLabelPosition=bottom;verticalAlign=top;imageAspect=0;aspect=fixed;image=data:image/svg+xml,PHN2ZyB4bWxucz0iaHR0cDovL3d3dy53My5vcmcvMjAwMC9zdmciIGZpbGw9Im5vbmUiIHZpZXdCb3g9IjAgMCAzMiAzMiIgaGVpZ2h0PSI4MDBweCIgd2lkdGg9IjgwMHB4Ij4mI3hhOzxwYXRoIGZpbGw9InVybCgjcGFpbnQwX2xpbmVhcl84N184MjA0KSIgZD0iTTEzLjAxNjQgMkMxMC44MTkzIDIgOS4wMzgyNSAzLjcyNDUzIDkuMDM4MjUgNS44NTE4NVY4LjUxODUySDE1LjkyMzVWOS4yNTkyNkg1Ljk3ODE0QzMuNzgxMDcgOS4yNTkyNiAyIDEwLjk4MzggMiAxMy4xMTExTDIgMTguODg4OUMyIDIxLjAxNjIgMy43ODEwNyAyMi43NDA3IDUuOTc4MTQgMjIuNzQwN0g4LjI3MzIyVjE5LjQ4MTVDOC4yNzMyMiAxNy4zNTQyIDEwLjA1NDMgMTUuNjI5NiAxMi4yNTE0IDE1LjYyOTZIMTkuNTk1NkMyMS40NTQ3IDE1LjYyOTYgMjIuOTYxNyAxNC4xNzA0IDIyLjk2MTcgMTIuMzcwNFY1Ljg1MTg1QzIyLjk2MTcgMy43MjQ1MyAyMS4xODA3IDIgMTguOTgzNiAySDEzLjAxNjRaTTEyLjA5ODQgNi43NDA3NEMxMi44NTg5IDYuNzQwNzQgMTMuNDc1NCA2LjE0Mzc4IDEzLjQ3NTQgNS40MDc0MUMxMy40NzU0IDQuNjcxMDMgMTIuODU4OSA0LjA3NDA3IDEyLjA5ODQgNC4wNzQwN0MxMS4zMzc4IDQuMDc0MDcgMTAuNzIxMyA0LjY3MTAzIDEwLjcyMTMgNS40MDc0MUMxMC43MjEzIDYuMTQzNzggMTEuMzM3OCA2Ljc0MDc0IDEyLjA5ODQgNi43NDA3NFoiIGNsaXAtcnVsZT0iZXZlbm9kZCIgZmlsbC1ydWxlPSJldmVub2RkIi8+JiN4YTs8cGF0aCBmaWxsPSJ1cmwoI3BhaW50MV9saW5lYXJfODdfODIwNCkiIGQ9Ik0xOC45ODM0IDMwQzIxLjE4MDUgMzAgMjIuOTYxNiAyOC4yNzU1IDIyLjk2MTYgMjYuMTQ4MlYyMy40ODE1TDE2LjA3NjMgMjMuNDgxNUwxNi4wNzYzIDIyLjc0MDhMMjYuMDIxNyAyMi43NDA4QzI4LjIxODggMjIuNzQwOCAyOS45OTk4IDIxLjAxNjIgMjkuOTk5OCAxOC44ODg5VjEzLjExMTFDMjkuOTk5OCAxMC45ODM4IDI4LjIxODggOS4yNTkyOCAyNi4wMjE3IDkuMjU5MjhMMjMuNzI2NiA5LjI1OTI4VjEyLjUxODVDMjMuNzI2NiAxNC42NDU5IDIxLjk0NTUgMTYuMzcwNCAxOS43NDg1IDE2LjM3MDRMMTIuNDA0MiAxNi4zNzA0QzEwLjU0NTEgMTYuMzcwNCA5LjAzODA5IDE3LjgyOTYgOS4wMzgwOSAxOS42Mjk2TDkuMDM4MDkgMjYuMTQ4MkM5LjAzODA5IDI4LjI3NTUgMTAuODE5MiAzMCAxMy4wMTYyIDMwSDE4Ljk4MzRaTTE5LjkwMTUgMjUuMjU5M0MxOS4xNDA5IDI1LjI1OTMgMTguNTI0NCAyNS44NTYyIDE4LjUyNDQgMjYuNTkyNkMxOC41MjQ0IDI3LjMyOSAxOS4xNDA5IDI3LjkyNTkgMTkuOTAxNSAyNy45MjU5QzIwLjY2MiAyNy45MjU5IDIxLjI3ODUgMjcuMzI5IDIxLjI3ODUgMjYuNTkyNkMyMS4yNzg1IDI1Ljg1NjIgMjAuNjYyIDI1LjI1OTMgMTkuOTAxNSAyNS4yNTkzWiIgY2xpcC1ydWxlPSJldmVub2RkIiBmaWxsLXJ1bGU9ImV2ZW5vZGQiLz4mI3hhOzxkZWZzPiYjeGE7PGxpbmVhckdyYWRpZW50IGdyYWRpZW50VW5pdHM9InVzZXJTcGFjZU9uVXNlIiB5Mj0iMjIuNzQwNyIgeDI9IjEyLjQ4MDkiIHkxPSIyIiB4MT0iMTIuNDgwOSIgaWQ9InBhaW50MF9saW5lYXJfODdfODIwNCI+JiN4YTs8c3RvcCBzdG9wLWNvbG9yPSIjMzI3RUJEIi8+JiN4YTs8c3RvcCBzdG9wLWNvbG9yPSIjMTU2NUE3IiBvZmZzZXQ9IjEiLz4mI3hhOzwvbGluZWFyR3JhZGllbnQ+JiN4YTs8bGluZWFyR3JhZGllbnQgZ3JhZGllbnRVbml0cz0idXNlclNwYWNlT25Vc2UiIHkyPSIzMCIgeDI9IjE5LjUxOSIgeTE9IjkuMjU5MjgiIHgxPSIxOS41MTkiIGlkPSJwYWludDFfbGluZWFyXzg3XzgyMDQiPiYjeGE7PHN0b3Agc3RvcC1jb2xvcj0iI0ZGREE0QiIvPiYjeGE7PHN0b3Agc3RvcC1jb2xvcj0iI0Y5QzYwMCIgb2Zmc2V0PSIxIi8+JiN4YTs8L2xpbmVhckdyYWRpZW50PiYjeGE7PC9kZWZzPiYjeGE7PC9zdmc+" vertex="1" parent="1">
          <mxGeometry x="836" y="150" width="60" height="60" as="geometry" />
        </mxCell>
        <mxCell id="0v8Zg-rZT7xSfdYN5Gm1-84" value="" style="group" vertex="1" connectable="0" parent="1">
          <mxGeometry x="766" y="220" width="220" height="505" as="geometry" />
        </mxCell>
        <mxCell id="0v8Zg-rZT7xSfdYN5Gm1-59" value="" style="rounded=0;whiteSpace=wrap;html=1;strokeColor=#3399FF;" vertex="1" parent="0v8Zg-rZT7xSfdYN5Gm1-84">
          <mxGeometry y="20" width="200" height="465" as="geometry" />
        </mxCell>
        <mxCell id="0v8Zg-rZT7xSfdYN5Gm1-60" value="&lt;font style=&quot;font-size: 14px;&quot;&gt;&lt;b&gt;main.py&lt;/b&gt;&lt;/font&gt;" style="text;html=1;align=center;verticalAlign=middle;whiteSpace=wrap;rounded=0;fillColor=default;" vertex="1" parent="0v8Zg-rZT7xSfdYN5Gm1-84">
          <mxGeometry x="60" width="80" height="40" as="geometry" />
        </mxCell>
        <mxCell id="0v8Zg-rZT7xSfdYN5Gm1-67" value="" style="shape=image;verticalLabelPosition=bottom;verticalAlign=top;imageAspect=0;aspect=fixed;image=data:image/svg+xml,PHN2ZyB4bWxucz0iaHR0cDovL3d3dy53My5vcmcvMjAwMC9zdmciIGZpbGw9Im5vbmUiIHZpZXdCb3g9IjAgMCAzMiAzMiIgaGVpZ2h0PSI4MDBweCIgd2lkdGg9IjgwMHB4Ij4mI3hhOzxwYXRoIGZpbGw9InVybCgjcGFpbnQwX2xpbmVhcl84N184MjA0KSIgZD0iTTEzLjAxNjQgMkMxMC44MTkzIDIgOS4wMzgyNSAzLjcyNDUzIDkuMDM4MjUgNS44NTE4NVY4LjUxODUySDE1LjkyMzVWOS4yNTkyNkg1Ljk3ODE0QzMuNzgxMDcgOS4yNTkyNiAyIDEwLjk4MzggMiAxMy4xMTExTDIgMTguODg4OUMyIDIxLjAxNjIgMy43ODEwNyAyMi43NDA3IDUuOTc4MTQgMjIuNzQwN0g4LjI3MzIyVjE5LjQ4MTVDOC4yNzMyMiAxNy4zNTQyIDEwLjA1NDMgMTUuNjI5NiAxMi4yNTE0IDE1LjYyOTZIMTkuNTk1NkMyMS40NTQ3IDE1LjYyOTYgMjIuOTYxNyAxNC4xNzA0IDIyLjk2MTcgMTIuMzcwNFY1Ljg1MTg1QzIyLjk2MTcgMy43MjQ1MyAyMS4xODA3IDIgMTguOTgzNiAySDEzLjAxNjRaTTEyLjA5ODQgNi43NDA3NEMxMi44NTg5IDYuNzQwNzQgMTMuNDc1NCA2LjE0Mzc4IDEzLjQ3NTQgNS40MDc0MUMxMy40NzU0IDQuNjcxMDMgMTIuODU4OSA0LjA3NDA3IDEyLjA5ODQgNC4wNzQwN0MxMS4zMzc4IDQuMDc0MDcgMTAuNzIxMyA0LjY3MTAzIDEwLjcyMTMgNS40MDc0MUMxMC43MjEzIDYuMTQzNzggMTEuMzM3OCA2Ljc0MDc0IDEyLjA5ODQgNi43NDA3NFoiIGNsaXAtcnVsZT0iZXZlbm9kZCIgZmlsbC1ydWxlPSJldmVub2RkIi8+JiN4YTs8cGF0aCBmaWxsPSJ1cmwoI3BhaW50MV9saW5lYXJfODdfODIwNCkiIGQ9Ik0xOC45ODM0IDMwQzIxLjE4MDUgMzAgMjIuOTYxNiAyOC4yNzU1IDIyLjk2MTYgMjYuMTQ4MlYyMy40ODE1TDE2LjA3NjMgMjMuNDgxNUwxNi4wNzYzIDIyLjc0MDhMMjYuMDIxNyAyMi43NDA4QzI4LjIxODggMjIuNzQwOCAyOS45OTk4IDIxLjAxNjIgMjkuOTk5OCAxOC44ODg5VjEzLjExMTFDMjkuOTk5OCAxMC45ODM4IDI4LjIxODggOS4yNTkyOCAyNi4wMjE3IDkuMjU5MjhMMjMuNzI2NiA5LjI1OTI4VjEyLjUxODVDMjMuNzI2NiAxNC42NDU5IDIxLjk0NTUgMTYuMzcwNCAxOS43NDg1IDE2LjM3MDRMMTIuNDA0MiAxNi4zNzA0QzEwLjU0NTEgMTYuMzcwNCA5LjAzODA5IDE3LjgyOTYgOS4wMzgwOSAxOS42Mjk2TDkuMDM4MDkgMjYuMTQ4MkM5LjAzODA5IDI4LjI3NTUgMTAuODE5MiAzMCAxMy4wMTYyIDMwSDE4Ljk4MzRaTTE5LjkwMTUgMjUuMjU5M0MxOS4xNDA5IDI1LjI1OTMgMTguNTI0NCAyNS44NTYyIDE4LjUyNDQgMjYuNTkyNkMxOC41MjQ0IDI3LjMyOSAxOS4xNDA5IDI3LjkyNTkgMTkuOTAxNSAyNy45MjU5QzIwLjY2MiAyNy45MjU5IDIxLjI3ODUgMjcuMzI5IDIxLjI3ODUgMjYuNTkyNkMyMS4yNzg1IDI1Ljg1NjIgMjAuNjYyIDI1LjI1OTMgMTkuOTAxNSAyNS4yNTkzWiIgY2xpcC1ydWxlPSJldmVub2RkIiBmaWxsLXJ1bGU9ImV2ZW5vZGQiLz4mI3hhOzxkZWZzPiYjeGE7PGxpbmVhckdyYWRpZW50IGdyYWRpZW50VW5pdHM9InVzZXJTcGFjZU9uVXNlIiB5Mj0iMjIuNzQwNyIgeDI9IjEyLjQ4MDkiIHkxPSIyIiB4MT0iMTIuNDgwOSIgaWQ9InBhaW50MF9saW5lYXJfODdfODIwNCI+JiN4YTs8c3RvcCBzdG9wLWNvbG9yPSIjMzI3RUJEIi8+JiN4YTs8c3RvcCBzdG9wLWNvbG9yPSIjMTU2NUE3IiBvZmZzZXQ9IjEiLz4mI3hhOzwvbGluZWFyR3JhZGllbnQ+JiN4YTs8bGluZWFyR3JhZGllbnQgZ3JhZGllbnRVbml0cz0idXNlclNwYWNlT25Vc2UiIHkyPSIzMCIgeDI9IjE5LjUxOSIgeTE9IjkuMjU5MjgiIHgxPSIxOS41MTkiIGlkPSJwYWludDFfbGluZWFyXzg3XzgyMDQiPiYjeGE7PHN0b3Agc3RvcC1jb2xvcj0iI0ZGREE0QiIvPiYjeGE7PHN0b3Agc3RvcC1jb2xvcj0iI0Y5QzYwMCIgb2Zmc2V0PSIxIi8+JiN4YTs8L2xpbmVhckdyYWRpZW50PiYjeGE7PC9kZWZzPiYjeGE7PC9zdmc+" vertex="1" parent="0v8Zg-rZT7xSfdYN5Gm1-84">
          <mxGeometry x="180" y="465" width="40" height="40" as="geometry" />
        </mxCell>
        <mxCell id="0v8Zg-rZT7xSfdYN5Gm1-73" value="" style="group" vertex="1" connectable="0" parent="0v8Zg-rZT7xSfdYN5Gm1-84">
          <mxGeometry x="30" y="45" width="140" height="120" as="geometry" />
        </mxCell>
        <mxCell id="0v8Zg-rZT7xSfdYN5Gm1-61" value="Queries database&amp;nbsp;&lt;div&gt;table for all rows&lt;/div&gt;" style="text;html=1;align=center;verticalAlign=middle;whiteSpace=wrap;rounded=0;" vertex="1" parent="0v8Zg-rZT7xSfdYN5Gm1-73">
          <mxGeometry y="60" width="140" height="60" as="geometry" />
        </mxCell>
        <mxCell id="0v8Zg-rZT7xSfdYN5Gm1-70" value="/read" style="rounded=1;whiteSpace=wrap;html=1;fillColor=#F0F0F0;" vertex="1" parent="0v8Zg-rZT7xSfdYN5Gm1-73">
          <mxGeometry x="19.379999999999995" width="101.25" height="60" as="geometry" />
        </mxCell>
        <mxCell id="0v8Zg-rZT7xSfdYN5Gm1-71" value="&lt;div style=&quot;&quot;&gt;&lt;span style=&quot;font-size: 8px; color: rgb(252, 252, 252); background-color: initial;&quot;&gt;GET&lt;/span&gt;&lt;/div&gt;" style="rounded=1;whiteSpace=wrap;html=1;fillColor=#99CCFF;strokeColor=none;align=center;" vertex="1" parent="0v8Zg-rZT7xSfdYN5Gm1-73">
          <mxGeometry y="50" width="35" height="20" as="geometry" />
        </mxCell>
        <mxCell id="0v8Zg-rZT7xSfdYN5Gm1-74" value="" style="group" vertex="1" connectable="0" parent="0v8Zg-rZT7xSfdYN5Gm1-84">
          <mxGeometry x="30" y="185" width="140" height="120" as="geometry" />
        </mxCell>
        <mxCell id="0v8Zg-rZT7xSfdYN5Gm1-75" value="Sends select changes&amp;nbsp;&lt;div&gt;to be updated&lt;/div&gt;" style="text;html=1;align=center;verticalAlign=middle;whiteSpace=wrap;rounded=0;" vertex="1" parent="0v8Zg-rZT7xSfdYN5Gm1-74">
          <mxGeometry y="60" width="140" height="60" as="geometry" />
        </mxCell>
        <mxCell id="0v8Zg-rZT7xSfdYN5Gm1-76" value="/update" style="rounded=1;whiteSpace=wrap;html=1;fillColor=#F0F0F0;" vertex="1" parent="0v8Zg-rZT7xSfdYN5Gm1-74">
          <mxGeometry x="19.379999999999995" width="101.25" height="60" as="geometry" />
        </mxCell>
        <mxCell id="0v8Zg-rZT7xSfdYN5Gm1-77" value="&lt;div style=&quot;&quot;&gt;&lt;span style=&quot;font-size: 8px; color: rgb(252, 252, 252); background-color: initial;&quot;&gt;PATCH&lt;/span&gt;&lt;/div&gt;" style="rounded=1;whiteSpace=wrap;html=1;fillColor=#E6E600;strokeColor=none;align=center;" vertex="1" parent="0v8Zg-rZT7xSfdYN5Gm1-74">
          <mxGeometry y="50" width="35" height="20" as="geometry" />
        </mxCell>
        <mxCell id="0v8Zg-rZT7xSfdYN5Gm1-189" value="" style="endArrow=classic;startArrow=classic;html=1;rounded=0;exitX=1;exitY=0.5;exitDx=0;exitDy=0;entryX=-0.001;entryY=0.333;entryDx=0;entryDy=0;entryPerimeter=0;" edge="1" parent="0v8Zg-rZT7xSfdYN5Gm1-74" target="0v8Zg-rZT7xSfdYN5Gm1-111">
          <mxGeometry width="50" height="50" relative="1" as="geometry">
            <mxPoint x="120.63" y="29.660000000000025" as="sourcePoint" />
            <mxPoint x="522.6300000000001" y="29.660000000000025" as="targetPoint" />
          </mxGeometry>
        </mxCell>
        <mxCell id="0v8Zg-rZT7xSfdYN5Gm1-78" value="" style="group" vertex="1" connectable="0" parent="0v8Zg-rZT7xSfdYN5Gm1-84">
          <mxGeometry x="30" y="325" width="140" height="120" as="geometry" />
        </mxCell>
        <mxCell id="0v8Zg-rZT7xSfdYN5Gm1-79" value="Clears table and&amp;nbsp;&lt;div&gt;replaces with .xlsx data&lt;/div&gt;" style="text;html=1;align=center;verticalAlign=middle;whiteSpace=wrap;rounded=0;" vertex="1" parent="0v8Zg-rZT7xSfdYN5Gm1-78">
          <mxGeometry y="60" width="140" height="60" as="geometry" />
        </mxCell>
        <mxCell id="0v8Zg-rZT7xSfdYN5Gm1-80" value="/bulk-update" style="rounded=1;whiteSpace=wrap;html=1;fillColor=#F0F0F0;" vertex="1" parent="0v8Zg-rZT7xSfdYN5Gm1-78">
          <mxGeometry x="19.379999999999995" width="101.25" height="60" as="geometry" />
        </mxCell>
        <mxCell id="0v8Zg-rZT7xSfdYN5Gm1-81" value="&lt;div style=&quot;&quot;&gt;&lt;span style=&quot;font-size: 8px; color: rgb(252, 252, 252); background-color: initial;&quot;&gt;PUT&lt;/span&gt;&lt;/div&gt;" style="rounded=1;whiteSpace=wrap;html=1;fillColor=#FFB366;strokeColor=none;align=center;" vertex="1" parent="0v8Zg-rZT7xSfdYN5Gm1-78">
          <mxGeometry y="50" width="35" height="20" as="geometry" />
        </mxCell>
        <mxCell id="0v8Zg-rZT7xSfdYN5Gm1-82" value="" style="shape=image;verticalLabelPosition=bottom;verticalAlign=top;imageAspect=0;aspect=fixed;image=data:image/png,iVBORw0KGgoAAAANSUhEUgAAAyAAAAEhCAYAAACHs8TkAAAABGdBTUEAALGPC/xhBQAAACBjSFJNAAB6JgAAgIQAAPoAAACA6AAAdTAAAOpgAAA6mAAAF3CculE8AAAABmJLR0QAAAAAAAD5Q7t/AAAACXBIWXMAAAjaAAAI2gEf6xunAAAAB3RJTUUH5QsVDw8C+ICM8wAAQkVJREFUeNrt3XecXFX9//HX587uJtn0Qu/Se5UqCKhUQVEsWL9SJLubAALJ7iaIgJCdTehkZ0NXUX8KiqAgoiCooSMtdDCUJCQhlSSbbTP38/vjTiAiaO5suzP7fj4e+0gM3tk755x77vmcCiIiIiIiIiIiIiIiIiIiIiIiIiIiIiIiIiIiIiIiIiIiIiIiIiIiIiIiIiIiIiIiIiIiIiIiIiIiIiIiIiIiIiIiIiIiIiIiIiIiIiIiIiIiIiIiIiIiIiIiIiIiIiIiIiIiIiIiIiIiIiIiIiIiIiIiIiIiIiIiIiIiIiIiIiIiIiIiIiIiIiIiIiIiIiIiIiIiIiIiIiIiIiIiIiIiIiIiIiIiIiIiIiIiIiIiIiIiIiIiIiIiIiIiIiIiIiIiIiIiIiIiIiIiIiIiIiIiIiIiIiIiIiIiIiIiIiIiIiIiIiIiIiIiIiIiIiIiIiIiIiIiIiIiIiIiIiIiIiIiIiIiIiIiIiIiIiIiIiIiIiIiIiIiIiIiIiIiIiIiIiIiIiIiIiIiIiIiIiIiIiIiIiIiIiIiIiIiIiIiIiIiIiIiIiIiIiIiIiIiIiIiIiIiIiIiIiIiIiIiIiIiIiIiIiIiIiIiIiIiIiIiIiIiIiIiIiIiIiIiIiIiIiIiIiIiIiIiIiIiIiIiIiIiIiIiIiIiIiIiIiIiIiIiIiIiIiIiIiIiIiIiIiIiIiIiIiIiIiIiIiIiIiIiIiIiIiIiIiIiIiIiIiIiIiIiIiIiIiIiIiIiIiIiIiIiIiIiIiIiIiIiIiIiIiIiIiIiIiIiIiIiIiIiIiIiIiIiIiIiIiIiIiIiIiIiIiIiIiIiIiIiIiIiIiIiIiIiIiIi0ktMSSCx/PonsHzxQHKdQyEYCuFgzAbiDAIrBwLcU5gbBFkgBDoxbyP0NsxW4ayEslUEFa1UnaE0FREREVEAIpKXucwgtyHu22C+BbBp/mc9YAwwChia/xkEBEBFvmy1g4XgrcAqYCWwFFgMLALmAnNxfwvndTqHLeAHNaESXUREREQBiPQHZ38Ptt6xjDIfhPt2hHYQ+N7AlsAG+YBjBJDKXxECnv/7h//8cBlb+88g//cc8F4+IFkIvAn2FPjDhLyE5VpZ0ZKlforyRkREREQBiJSM668M6OxYD8JtwA4H/xzwCaJRjcH5gME/FHB0ZxkM8n+GQAvRSMmbuN8Hdh9mrxPmFjNuUlaZJSIiIqIARIpVpmEQ2M7AAcAxwD75oCO11v/L+7BM5vIByZPAPcDDGLOoqmtV5omIiIgoAJFicP3l4J2DyPqngOOBQ4Ad8kFHUtdfBPlg5DVgJvhdlAUP8vCqVfzkx8pTEREREQUgkjhNUw3zIRgH4H4ysD+wyVqN+2KwZmRmPvAIZjdh/hDLW1dQd6HyWERESlvmReCvhrcEBKRwD3ALMA/AAhyiXShZ+wei2Qz5H3Nwx8gBOcxzhANyVJ/tSmBRACLdp7lhMKHtg9mp4EcAI/OBR7HuOLXm3t8D/zPYTZg9QVXtCmX2f3HLxQEryzcEyvvBt81BsITqCZquJ5K4RvSUgRCMAUut4xVO6CvI+XucWV/ajeRr0kbKBgNDMK/EbTDmA3EG4AzGGAE2FHwYMIxo2nT+T6sED4CBRB125US7UgJkgbaobqQdaAWW5X+W5n8WgC/CbCXOKszfw4IVjK0tnrbCjHQ5bmPw97/3Ogpbwd+lepKez15SpiQoYdMaAiqDXXA/CeMk8I3XftqK+JutuffhYF8FDsX9NpoafkYu9yxnnJdT5n+EVWWDwKcAWxR5/q9LgLoUy00DHlXGiyTuET0cOBO8nHVdZxjwBGXhBflGdGm49HwYNGgYQbAF7psBGwOb5N/VG+CsBz4GZwQwFGMgYB+fZF2OzRzsPZz5wALc5uD+Gpn0bOBNPJhN1hZy5oTkBoGhbwpMAraJ8Z4zsMeAySX+blQAIr3g2ilDyQVfxf10YHeSvcajixUm6wNVmB1CWdlNNE/9OeGq5dRcpHKwtg4ro9z3B7bvB9/2XfCblenSY264ELIDA5yAkABsKEFuY8orXuXUc9qVQB+juWE0zreBI2JeuROeuguYWRLp0NQwErOTgc/gviEfbHVf0Yd3ZURb7Y8AdlzrHbsKmI+F8yjneTLph7DwEZz5hKks42qTE5BEo0T7AbvGvLIdTLOCFIBIwTINKfBdyQbnYn4UxkiiIddSjuo9X3HuDvwY94OwQZeTaXyK6lqNhvx7OvWn76r5zNI9br4A2ssrCFOVRAeuDqGDzTDfAWd7jB3AN8etk2zHkUTr1OSj7QUcXcB16+N8kxuvepRTziz+LdnNhgPHAZ9O+p3ywWHD2+Xv91t4sBh4lMBvo7nxSdwXUV2XlHwppO7XyIcCECnYtZdVEnaegPMDjN3z/5qkBniOf9/ityc+fwj4l8F2xf0Krkr/mjPrVqlwiEgsmXQlbttgvgGtbAy+NdG0jq1Zc06SE+TrtDWHqy4BTynxPsaMxkGE/l2iNQtxBcDhtLfuCzxcAqmx9gLxYhIQrSMdmX8evoz7s8AdZBrupazsBb4/QWd2yToVJCkFTekNyWUn41wOtjvJ6wFuz780erqXYc133h4jTbmfT3PD5iogIhLTNphfDdwG3Az2Q+AkYF+iqTIDiBb56j26rsJwb+CzXWh4bwscy/VTy5WYiQmiKonOEkuD/Yxs7nwy6V2ZPkXPhSgAKXmZ9K4YV4CfBYwieVNPDHgJs9/24r05MBJsPG6XM71hdxUUEYlhWL7BOxztGNl111xeBvZtYL0uvks+TzbcQQmayGBkN2Ai8AuC1Dk0TR3N1Zfq2REFICXn2suNTOMhwDXAiUSL15I4770D52bM5vby7w2JphkeT2AzaE4fxs9uUGUoIutC64i6tbXRsR9weDe0O3bFOZrpDZpCnkwDgF3BL8TCWyjLHsqM9AAliygAKRXXpQOynZ8HvwY4MMEvyzLgCQL7E0ZnHzUiAPbGmc6qJV/gp1frxSUi0luunlqOcRzR+pmuMuAkUsEmSthEG0S02cBNhIxlRsMwJYkoACl2TZekyNkJmE8FdkrwnRqwEriNqto3ElDetgefRkvbV7jsUs0hFhHpDWXhTsAxdN9Utp1wjqV5qka0k29L4CJCu4QZUzZTcogCkGJ105UpgrIv4Z4mmp/sCS9f/yQM7wLA+3wedQhsBT6FQeFXuPEq7VYjItKTrp5ajnM0sHM3fmoF+LcIfX0lcFEYBlQRBpfS1PgJJYcoACk2mR8HtLcdh/uUfK9CkvetXjP68SvGTXorQfcVgm8KYQMdbV/iZ1P1DJSmYt3iUqS0lIWbYpzUA+2NnfPTuvozJ9phchWwFFgCLAYWAgvyP+8Ac4C5+f+9GFiev6aD3uvETAEnYt5AJr2VHgzRXPjiyq7P4FwCbEHyF0c6+NN4eGdCK+2Ncb+YVawGv1tt1f9qMfBK/mVVLMHHUpzFyjqRPnRtOiDkKPz9U7W70zDw45jReAdja/vTsz4HuD0fcLTitGKsBmsl6pQMgU7e76D0EKwD8wC3AUAFzgDMK4i20B1BtDPZmPyf6wGbAaN74N4D4MtAO9PTZzOuTnW0AhBJvKbGT4JfCGxPcZzY2Y4HNxNWvJvcAImtwS+iuXE5VTykQvaxngMmgS+geEZNcwpARPpaOAIPTiI6L6UnHEjIQcCd/ShRX8P9Imrql3bbJ14xNUVFOBRjGMYwnPUw3xK3fYhOPt+aaJfN7qj/U8DXCPgXVzZM4az6Tj0nCkAkqTINW4OfT3QAVjEEHwHwD4w/M/6cJI/UhMBuOD8ik66huu41FbaP1AL2FtV1C5QUIrLu3QDBkcAuPfgbxoAfS3PjA1TVrug36erdPGL/g4k5omlZy9//txsvNDoqbsVtJLA30SGcBwEbd0MgUgGMpcJeJDroU/ohzX9PuuYpw3E7G/hckQQfBqzA+DnVtcXQYHXgEPCJTL94lArcx+ap5qiJyLrLpIcCXwRG9vBvOgZ3HUzY3U75kVNV30J13VzC8PeEqe/mg5CfAvO74TdsCIwjk95Gia0ARJLmmikpCE7G+GYR5VUK+Btufy2u58C+hqVO5dq0tucVEekqswOIzqiKoxXIxrxmY+CLNDVWKNF7yLhJzrgJ7VTXzSRr44BxwF+gy2d77Q/2Ja6fqveuAhBJVu4Eh+HUAEOKqDwtAn5TJKMfa6vEbCw5jlTBExHpgkx6EO5HAZvGuCoL/BZ4PG6oA5wIroMJe8MZtasZNep2guBU4Gqi3S4LVQH+PTrDbZWwCkAkMRV4wxbAOcBWFMfUK4h2vnqUlP2xCFM8JNpd7AxmNG6tAigiUvCbYDvg2JhXLQK7EuxXBbzzNsM4UQnfS77+fRg78W3cLwQugi5t+LEtcDxNDVqTrABE+tz0hoFg38E4uIiCDwPeg+BmTq9dVqQpnwMOIfSTmZEepIIoIhJTU2MZxpH5hmWcoOX35PwF8L8Bs2L+1oHAF8ikN1YG9KKa+pWE3gxcCRS6CUAKOAGzkUpQBSDS11LBAcDJ+UrVi+SuHfgbFjxQAs/Ed8jxKS5tVFkUEYn1/rL1gW8Qb+OKRRh3Mr6ujdTAF4H7C/jNu2AcoQzoZePqWzBvJjqbpNAO0+3BDlFiKgCRvtTcOBL3cURzZ4tp9GMF2E1UTXivBHJhQ7AfMDgcrQIpIrKu769pEPqxwHYxr3wQ9ycAOP2sLHA38HbMzxiOcwxNadXbva2qfinONOClAj9hGPhnlJAKQKSvNF0KzgnAZyiekY815ehunEdKJi/MDwD7mgqliMg6CsOR4F8F4kxhfQ/sj9TUf7COoLP8YeIvRgf4NMYnlRF9kvmvADMobGcsA3amuWGM0rH/0KKfJElltyLk/4h2vSqW0Y8AeAf4DTW1S0skJxwYhnMSzQ33UVX/qgqn/Jsf3QKjFg6kvGMUBCNwGwwMxhhEdMiWQZjCLAQ6cOsEb4VgOWaLKUst5djt29n42NJPq+mXDiAIx+C5UWAjCBiMWwWQAg8wOnA6cG/FgmVgSynLLmNQ22q+fZHKWjExPxzYLeZVzxLk/vxv/3LmOW1k0r8EjgSGxvis9cGPoWnKP6iZ1KIM6UU1k3I0pe/G+A4UFARuhrML8KASUwGI9HoHAicAe1Jcox8AD+C5B0suN2BvsOP57c2X8+XvhSqg/UxmagBeTs7LSYXrYcG2ONsAW8O8zYFREAwGKjGvyAce+YY1gKVwQiAHngM6IVyN00JnbhV3zJpDJj0L5znMXsDDpbh1MK7OizK9rrzAGDCwgjAYhvlO4PsAO0B2c2AEZpVAJU4FeCrfeWE4OSCLWSf4avDVZIMWVlYupTk9H7c5GK/hvAL+DtAOZCGVpXpC0tIqOrSz+QLDe/poA4cwBWHKOWNiAgLNaZWQOyoKAtZZG/B7xk565yOS8u/gzwAHx8yC4wmsmcKnA0nhAehcsD8WGICsD7a1AhAFINLbmtLbAycAlVGDpShEox/OL6iZvLLEcsSBAThfZeHCu4CXVUhLPeD4sUHFCGA9zDfBw52B3UixKwSb4VQCA/I/qW4KcjswWsEXYfZ34B4y6acheIfqie3FkW5TKiDYGPc9cY7Bwk/lG6Fr0su68BSG4B047fnAYzHwCvAC5J4kk34dWEg2u4wzzktCvTkAt6/iA5d26XuvW+IYgS3A/G/Aqr5/G+R2Bw6NedVbuP/2o7+eL8P4JXBAzLbKJjhfoLnxVapqc6rYelF1fSeZ9BPAEiDuWpzBRIdKigIQ6TXTrzSs/XDwvSmeqVcAOdweoNP+XqI5kyOaTnAETdNeo2aCXmal6JLpMHLlNmCfAz8Q2Bdny3z9aD3YkAyIdrobCIwEtsX4LvAchL8nk76PkH8yri6ZgchPrkmxumV34CiibTR35f3pZz2SRuQDm52AL+TryvnA45SVPUJT+kngMWrq2vowVQbjNpVeGcW2FPB3jOf7PACZ3lieX0S8TcwA/NcEwbyP/K81dSHNjQ/g/iLxpnWVAV8iCG4GFqqC63WzgdcLCEAANuSqqRWcObFDyVj6tAg9EbnQtiH4ifmXdzFNv1iC+Q2cNbG1xJ+Rb0J2AxXUEjV5HGBHA9cA3yLawaeCNVOEeo8B5cDewI+AnxBwEc1TdyCTtkSlWVN6K1a3TAZ+ClwM7ENXRzviP5dlwGbAl4FpwHnAiITUGale+KEPyujHldxNwL4U86q5GL+nqvbjFy17djbwhwLuaDvC3JGq3PpA6AvzHQOFWJ9yH65EVAAivSH9Y8P9gPwLvJhGPwy4E+PpfpBLO4B9jmvSKq+lq43umVbVnXXztsDZePhL4NtkGvr+cMzmxgFk0p/H+BkwCdglEQ1gMIwl4Oo57W3Tpxrmh4HvHPPKe3F77b/+P6ond+I8QGFb8h5Hc8NQZVAvG1e/FHi3wKuHYu+PdooCEOlRwyoGAHG3LUxCuZmL8Uuq6lb1g1yqBL5EeXmlCmyJct4FkriLWxnRxhRXgv2QpvT6fXYnmfQY3M8CbgQ+RTTikSSzILVChbm3S2g4lOjgwYoYVy0Hu5fq2v+dX+ZPAE8UcGf7gR2gDOoTha4JHUhIuZJPAYj0BvOdMNuPZPQirntzzbmT0P7ZX3IJYxdyHdpfvnRzeHFCA5A1RgLnYlzIjCkb9vpvb2rYGDgf+CHxdjnqLZ3Aa9RMzKow97LQDsoHyXFE63XWRXX9Coy/FNCo3Qzns0yfNkCZ1OtWU9h08gEQKgBRACK91JQ/BliviO44BczG7HZqalf3m1yCTTA7TAW2ZHN4MdHOLUlWDpxMGEymqbH3DuxqnrYe2AXAaUQ71STRHGCuCnIvu/HycvCvEG/BcTvwV6pr1z2/wvAe4k/DAjiaVG5rZVSv16dZCptSXoapXaoARHredVNHEm0xWEnxLD7vBLsX7OF+VZ1G000+SaZB2wQqAOlLFcApmFfT3AtrQjLpwXhuIsa3IdFzs9/MnxEivam9fW/gwJhXvQ3cHbOpMg/nT8Tfon5HnMNoakwps3q1ZVnoVuWdmGm3SQUg0uNyviewfREFHwbMxfkJ1f1uqsOaLXl3UsEtQctalxKdMVEMBgHjcU7gqot6rg7/fz8yovVppyU8+IgCkMDmqyD3optusGjraraNcVUI/IPKwS/G+l01dTmM24H3Yt5lCvgaASOVYb0oOjOpEG1g2khCAYj0wlO6G7ApxbP7VQ74HYHP6oeZFQIbge3KzfWmsltifnihAwsK6Azw/E87sIxoFGUB0XSgd/MNpp7o0RsDdi7lFdv0WJosG7Q7cAYwvBvrj3eAfwIPAPcAd+X/vB94CJhFNJ0qzhzyHNhsxta1qyD3orbFnwA+F7MdsQr8V2x+XfwOLOMlYGYBd7oHoe/H5Zcqz3rD9ZcFwLCCAxD3TiVi/6CDCPvKjPQIQnYnmtpTDA+cAW9h9vP/um97aTOwT9I6ciTJXrAshZmbb/gO/lCA0ZH/aQHeJDpk6+18oPFuPvBYDdYJHuaD1ZCo97UMPDrh12x7nH2JRtJGQZd3e9kVGMvVDRM5o757RySvSQ8g2tlo9y4GHMuAZ8HvB54BW4jbKgJvB8viYQgWRIfqeRkfnDQ/hOhU5G3z97AnsAHRSMyH020p5q8mrCx579RHfVob7oMTd2OOJ3Ce4vAC+rCq6paRSd8BHBOz7TIE42uMHngvoE0KelqufTQEhW5U0YKjjgQFINKzD6lvjNnu9EzvaE+9UH9FmHu5H+daCL4P+GgFICUbgLQSrbOYlw8wXgV7FvxZ3F/FbGXUYWCdEOagM0f1+f/7k2+abHQMKQcbBL4lbicCxxFNwSx0elMZcDyp4DbgkW5NiRS7Al8ssJGbBd4C/oRzC+Yv476aVK6TsT9c90+5Om2kvAyzAeBDgZ3BDiVac7BFPkAZSDTq9EpCylA70fqGll74XQHwMnjvb4XenB6Gc2LMspsDbiNkWRdeQ49FzyN7xwzUDqC1ZTfgKVVzPd22sfUxCt2pbyGpDm2lrQBEepTZxsAnKI71HylgFm53UjOpP/dOeL7RsxXwmgpxyeXuqxi/AubiNpOUzyLoXEl2IGBOzbmFf/bJl6w9kvIsmSnPQfBz4Nv5n80L/OStMP8i1134BN//Uff07l57cRk5PxRs2wKuXgXcinMtOZ7ijLrC7+mMOo+CPTqBVWQuno8PuB/3QQThrsAhwGeIpm3MTkgpaiHws3Dm4r01QOG9/w5x2xH80JhXvQj+EOPrC59y7GWvYbkHYwYgAJsT+tEKQHqlbbNVvm1TiPmMPV9rQBSASI+5sSGggx1wBhdBAGJEvXq/p7Xz2W76vGKWAvaiufF+qmq1W0cpCe1VLKjFaKVmQs8+l9WTHHiF6VMuIggeBS4ooFEFUS/4IWQHbAN0z+hktnwE5kcX1PiGRrBmamq7f0ex6vPWdAKsBh5j+sWPYalfgK0PlpQDUR3cqZrkJfucNKcD3L8CsRd23wdh1zpuaiZ0kkk/AJxE1Bm0riqAQ8mkf0Z13RxVdj3kpsYU7b4HzqgCOy+0kYQCEOlR7TYI2IXiGP0wot7+Wzn3vFw3fmY3vOj7RAC2G04ZxTN9TtbF+No1ve29Z9ykDq5vuJusLcO5HNi3gE/ZDWzXbgtACDcA26OA5/Hn4NOprlveO2l3HkSL2rX9bu/aEjiSeNuszgceoHpy10fQPZyJBbNiBiAAn8z/KADpsbaNb4xzZIFXL8b8TSWiAhDpSe4DMNuhSO62g2je7ovd8Flv4/ykGwIQx9gJ2L9vAhDfHvcBoMVy0g1Oq3fgITLpC4EM0fqGOCrB9yMz9S6qJ7Z26V4yUwxsd+IfOPgmcCPV9cuVoaX+/uIYommocTyP26Pd8vtrJr1Hc/oenEOItqReV8OBo2hquI+aeq0z6G6ZBsM5lMI6UQDmkrMXlJAKQKRHm7A2GI9dgfeV18B/zbj6rm8VPHbic8DYLn9Oc+Nw3KcBB9E3oxCjwTYE+stLzPXQ9oJc7s+kUtcBPyT+wvS9IRxBtIi+C8yIdp6Ke4jYP9C6qNLX1DCGaOvdOAFqO/AgNbWLuq9Gsj+Cn0H8tQZHgjUBzyozu5mxOc7pRNPdCnnHzGJc3UIlpAIQ6UlhsAEWDi2GOwVugdQbCavo9sI5nr47P2UAxmbAq/2kxO4KfgmZdAuJXMPjbcBlVNcX9/zh8ZOzNE/7CZ47Htgv5tU7Y4ymy3OoLSAagYkbgLzaa1OvpA/r3mBf8LhlcxEEf+jeR97fxrifaCQmTp20CWZH0Dz1eaomagpttwWmFw/AbSzE3pZ5jZUUdsaLKACRdXbtVZBr26yAF3xvSwFPAr9P1Knn104bTC73PaJzFPqqZ74Cs036UandAvg/kjkSYmArgJsphQWMll2A28+IFqTHqZ9H4LYN+PPdECOOLCDQXKnKvcQ1T6vEw88SnceyzqECxsO4d+/oWE1dO03p32J8g3ijMSnwr4DdRLR9s3TVVY1lmH8XOJXCRj8A5oH/TYnZv+gk9N4WdhjR4rkkp70RTeW4jeEbJGtaRRjuTzQFoC974itw36gflVrL/wQJ/LG1/ix+Y+tD3B7EeTt+Xe7b0ZzuYseGG/Hm1X/wTEipv7y2Aj825kUdOL/Fsu09UCvNAh4r4Mrt8PBw5Wc3mDG1nHJOAuqAMYUWLNzvwP1dJagCEOnZBrTlH9Qkj4CkwJ8B7uKb30tOr/dNV1Ti/n/AaPquN96JeqZHqzBLz4R74QKMuAt2A2CbLtcrhT9Vw+lMK+9K1fTGAPdPA1vHvPJl8Mepmtz99fWg7ALgnoLKKnyRqxsHKGO7oKlxCGFYBT4FurSmdS5mt1MzqVOJqgBEerRx4YCPSnDaG9F0it9QXZes0Y+29kOJDh/r67Qrwxmhwiw9YtP5y4BZBTy3m+LWtWfDzClsIftmXGd6Jko3KB6C85UCAtx7cFvQI/f0vfNC3B+isM0P9qacPZWxBchMS5FJ74r5VcCPgU278GkO/BJ4XgmrAER6vnlvGMNJ9JQRfwErvzVRt9ScHg58OV/ZhX18N6l8Hop0v+OvduBtoi2w4zy364F3R52+nPhjIZ/EfDNlXsm+t/bF2C3mVYvAHqSmrq3namJ7Dihke99t8PAwZWwMTQ2VZBp2gdxE4NdE6wKHdfFTn8T8F1T3YBkRBSDyQU2OMyDBAUg72M3ksgsSlm77AUeQjIXQhua8S89aCMScE20jCay8a30PhPngJ+4OQdsDXyHTqOei1Px0agB2AsQe9X0c957d7nZsXQvO/fmgOVboAnY4mfQWyuD/4tZzjKaGzcmkT8DsYrD/B1wM7NgN7ceVwE+oqtfoRz+lXbB6mzv5xquRvF2FDHgcgnsYNzFMzF1l0sNw/xqwEX0/+vHBC+yG81KcerG2cpSeeBSXgC8h3vSGctwGAe91IQBxjFfzAUhZrOch2gXnMTKNf6S6VmfHlIqW3LZgB8ZscHbgzKSmruc7sgK/D7fZwF4xr9wP2B14q9/m7dUXQ1nKMAvwIIAwIAwHEwTb4ezGYvbJH/q7HbBeN/7mHHArzq/0gCkAkd5uvCawxUM09/tnDNxqbsLubS/g8wkKPgACfESKvjkIUUq/p6IVWB3/GfauLawdV+dkGp4BawHiftZG+QWpq7k6/TfOqAuVjyURDB9GdDhlHG9jdn/v1MTBfHL+F2C3mG2aocDnaU7/laq6VUWUIQMxNiWTrmTdZlJ8xK6BPgAPhmM+GlgPZ0PwTYHNCIItgZEYQ4i2OO6JmTIzcZtCTe1SPV8KQKR3JbHRmgL+DtzHyV9Jzl3dcFklHZ2nEp1NkCQhtlzBh/SUNqITpOMFxaF3fQqU2QKcJ4mmPMa1G3A5ZUwh03g31bWrlZVFLJMeBRxGvLM2AJ4h6Oyd08ZPrw1pSt+BcSrxdyc8CrMrgJeKKFf2wLgtRjuinGjWxcD8nxVgAeZrtldfE5QYvTMt/2nwemrqZusBUwAivckM3DtI1vQrA5ZidjtVtcka/ejo/BRwaL5iTFKPak7Tr6QnS34BAQhYd4yuti+DijvBPkNho7V7AFeDH0Km8UYGtzzHdy/SaEhRvq/YBeegmFetxrmLzqCjF+/zJeBx4OiYV25I6MeQaXiF6vpiKaOVRFOiitGTGOewZNWjerhEAUhvi9aAtOUDkKQsRLd8xfCHRKXVjMbBhP5NopN3k/RycGLvUFTUOoGWhOXB2mV3JUkaVbzuYiMMAkKzqFcxFSWdp5yyXMjQZSHfmPq/ilgIFsZOC+uGfo2qH4Vk0g8CzxCdyF6IDYEq8MNoqbyT5oafAW/QXtHBWefoPVAMmqZW4OGngU1iXvkOzl8ZP6n37rW8bCXZ7B04RxKvF78c+CJB6iZgmTK9x+SAx3HOoXP1I5x3iVJEFID0UQTyXv5AkCQEIAasAPspY2sXJSqpQv800ehH0hbs5+jKQt/i8yDYBPD5JHPnPAeW9OpvvGIKVAQDCGw4zhDwwThDMUaT9ZFgI4lOFC8HLwfLYt5OzpayfNQCMo2LwVuAVcAKgnAFYyd1fOg79Z2Ov71Ixad/TrTbTWWBn5ICdga2xe2rwO0M6LyTpvRL5FjOGXVaqJ5k5usDXyjgyj8RWO++S047N6Q5/SjwKrBDzKt3IAwPA25XpveIlcDthFzCuISdLSYKQPpZrQ5RT0uYkMacA48S+J8SlUwzGocT+glEuwAlbapTFou97WMxawPepbru3X796F56TYpBLVtgbAtsCWyN+zbAZsBGGOtFdaqt9bDbh2OKfKPbs8BSYC4wmzB4k0z67SjIs7ngHX1aP591DzQd8mvMPg18sYufVkF0SvtEnP/D+DNl/IVMw2N0pl7nzImaypg016Uh6/vlA8g4WnDuoaa29891CPxf5OzBAgKQMcBRXH/VXZx2Zocyv1vbFq8C14PdzDgtOBcFIH0cf6QcDxeD5xKS/qswbmD4m8kafnb2AY4ledN+DMjivqQ/ldp++azu+S2o2qOMXG4zPDwcWg4kmnv9CaJpgakupGUF0TSlDYF9Pnhh2wrgnWgb3tg7D3Wvmvr5NE1pxILtgJ266VPXB74FnAD2AuXhI2TS91IWzsRsFafVa1QkCdq9gpR9hfg7oT0FvNgn93x6fQuZ9D+ArxP/zJL96WzdJX//0nVLgN+C/YTy7D85bbICO1EA0ueCCifX9k5CGtYp4D6wf3DSjOSk0YypgwnDbxPtO57EBkkH2HwV5hKVmWaQGwLsTjb7TeDTYJsQbdvZk8GYAcPzP8mQyj1GaJPAriEa6ekug4F9ibbY/jrZ4EXgNjLpvxAwD2hlbJ3KYt+9GXYC9i+gvP+VjmBO33WV+MO4vQgcGPPKnYCDFIB0SS4feMwEbsB8Jpu9sZLPX6uUkY9uDisJetnpZ4LbHPp+WlEALML5FVUJW/vhvi/RbiZJ7Q3twJmnwlyCmqZWQu5zwAzgDuD7ROsghtEfR4LG/tDJ+V3g5wA9MX+7jGg06TDgKuAenCmEfJZMeowKZJ85hmh0Lo65OA/zgz6cUldV/yb4QwW8X1PAETSnN1TWx9YKvADcCPY1Qv82Kf5EVb2CD/mflb/0NssugGAlMKSP7+QBzB5IVNrcdEUlbe0nE38IvTe1E/bj03NLVXN6Nzw8GfgqsJESJG/8pBzXXHA7qYErgfMprGd8XZQD2+CcBXwbuJ9M+m6cP7NqyQJqpykveiUIT68PfJr406+eI0jACIJzF8Z38oFtHAfibA8sUCH4nzqAfwGPgz2K8whh8BLjJ2iqlSgASTS31Riz+7iRkyVaRDuFpnRXR8IMYylwDdV1XRsZaGs/BDiE9/cuTWQEuRgLFqogl4hr0hWkOB5nAtGUINWL/xGEXJAjc8WfoGNefjTkROIfThfH6Hwg+DmMZxk6+naaG+4kl5rLuIk6U6RHqzf2JTpQMo52YCZVdYv7/v7tKWBWAQHISJyjmd74CONq1ZCOhESjSTlgeT5dHweewXgdC9+gou09Tr5IKSUKQIpD0I77K1jsA5669SaA3TH27JZXFszB+AV0YWrSDZcNpaPzqyRz56sPKmTzV0iFekGVgubGobh/H6glWnMkH6f6B3D5mbMYuOEPwGYCNcCu0B2HH/6XRmG0Ffd+uH2PILyFTPp2Wlvf5pwLtWC9uzU1VoAfQvzpV/Mw7k5GDW2rMb8N4xCizR7ivMeOw+xq4J1+FGBkic56aifa8bCdaFrVAuAV3F/GeBljNqEtI7BVlKfaOfVcPS+iAKT44o/yVrxjFn1/vkX3/f7umJDRmT0Q+CzJXfuRr7DtOQLLqiAXffAxAvfxwASiBebyv5x9FcAymtM3kmMmAScDxxPt2NWTawoHAXvmA54vM3DgDJoa/khNvbb27Fa+JfCZAi5swdmKTHqTBHwHJ5rO1xEzAAFjCwg/A9yS4ExaAjyd/37r+ubN5QONNQFHB2vOIIKVGO/hvAu+ELOFWLiQMFgZ/f/d8WxI9fl6PEQBSNGrOjskk345XwEMSXiDu3fMaBxG6CcSnbqb5HMBcnj4FKfX6+yCYjY9PRD3U4FzFXwUUofVOfAymSmTIfgd2DHgx+YDhJ58r5QBB2G2E84hNDVeyYCyFzlVp6t32bTLwDr3BnYp4OrtgJsS9G0CYGAB1w0Gjuf6S27jtMltCc2pF3Efm5/2vG4BSOA5QrIEHmLeSWeQZdwklXlRANJPzQdmA7srAAHc9wKOS3jwYcA7mL2p4lvErrraCFq/kF/LMKw7SzEf9DRm838P8//ua5UhyzeQAqKe2jKiaUzFt8tW9aRO4BGa00/j/Az8U2BfBz5JtJ1wT42KjMT4HviudHROIjPlH1RP0qhkVwzODiEazaoo4OoBxF+0nlR7kA32AB5N6P114raMmrplKrSiAEQKaarMw3iOaNFr/15Uef2llXRmTwZGJfxOA+AJQluiAlzEKlp3xL2O+PPcP7oxEM2Vng+8me9UmI+ziMAWQbgKaMfpeL+h5gzAGAQ2nGi908bA5kTnbIwiOpl5PYppm/SqujbgNaY3/AsLbycI9sH9a2AHA1sQTaHqiffX/sB1YJOZPuUOxk3S2qzCX0pbEa236e+2xIPPJDgAEVEAIl1QU/cemfSzRAu+UvTnUZBs7gCieceW8HRw4AlaBqjnqVhdfelAPHsG8Xf5+bBVwGPA38AfgeBZgtRiPOtYCEtTMKn2v3/CzzOwciV0dsJnvwD/uGcwneGmBOxAdC7GmimJxWNcfQi8B9xP8yUP4sEuYEfln+/96ZnpbtuApQkspHna76iaoOmRcTWnDec4kt8J1EvtIj+YTHpTquvmKjlEFICUoueAOcAnSPbUo55z7dTB5MLvkNxTz9cIiHq5ZzHxLE2ZK9oaL7s/0TSTQkcXOoCHwG4G/xvZzjmc8cPCysO3qtf6H+cBtACvAK/Q1PA4ZjsWXQCytqrJOeBZbrzpOdrf/WU+ADkeOCL/vHfnlLOtgIvwcAGZ38+k+niV9TjMR+J2JIVNvypF+xJNj1YAItKDjSrps0q/7Kl8g8P6bRrkwkOIDr1KJfxOU8CzYC+q4BappsvLgK9T+NSrRTgN4N8hl/sl1XVvFxx8/M+64f2994vfKSc71XVzSOV+gzEO/HjgMqLpau3d+Jt2BD8fe34DFfaYwuBgYHslxPtGAoczvWGQkkJEAUjpqTp3OdjDwOp+GYRcN204Zl8imvue9MXn7cATVNfOV8Et1tquYycKP8X7bfA68Aaq6+cyflKuF8pcaTl9slNV9x7V9Y+BTwI/DrgUeIpoLU13OBgPTuG6H+vdtq6uvKQM/DPEP7iv1B1DYBsrGUQUgJQm93uARf3yu+fCT+J+NMlfhG/AXNwfUIEt5meN3YCtC7hyMdBA6D+npr5dCdkNqus7qa5/kWHDzge+DVwMvNQNnzwQOJFsxU7dUWAKqiu8yILHirLt84G5/LutgYNommZKChEFIKXYKnqJaLeN/rWuoLlxCO4nEfW6Jf27OzALSz2p8lqkrrmknGjh+ZCYV2aBXxP6z7XDUg/4VnVIdd2LwJR8IHIVXe+Q2Q38mG7odwiJ3zlieKrItqP1vej6pgylqBz4MpYdoKQQUQBSerIt7eC3Aa397JvvA3y+SAKv1Zj/jqBztQpskUoFIyls9GM2TjPj6lcpEXtQdV2W6rp/gtdjnAI8BBQa8KWAQ7vhVO6Q+FNDDaeyaNK9KT0C+Bylc4ZHd9sLK+hgRhH5H7QLVl8782KnOf0I8ATOofSHM0FuvLyS9o5TgBFFcscvEdpfqJms8lqszIbjbFZAA/QfGK8oAXsrEKlvxff4A9d+7XlCqwdOIv6oFUS7GH0CmNfrAUgQFtPC5S2ItnyOaxWwjOLoQHKi0YwxxN/la308OAbQ6LeIApASNCJYwPLwt8CB+YqytKdjdXR+ig92vkp6wBWC/YJU2bsqqEXMfShY3EW2ncBM+usW2X0WLD4DPPMGTenJGFnglAIajqPBdyAzeSbVl3iBZSaHWdxRGMOD4ghAmhpSGIcBGxUQmP0U7HcUR4dZCIwEPyv/3omjAvxgmqZuQM3EhXo4RRSAlJaTJjqZ9F+Jelk+RTTvvDTdePkQ2jtOIjr9OekvrxTwNOZ/Zuw5aoQWd6u2HBgc86Ic+KtU1+vcl75QU7eIpilTMNse7PAC8nxXbOhACp3eatZewLUB7oNJp6GuLuFBOZWYnwAWdwv09zB+TlVt8ZwU/pdbjNfmbV9AAAKwCxbuC/xBD6VI99EakKSornsF+B3R0Hbp7roRjX4cXgR3mt96129lxODXVECLXjkQt2fasUCn3vel0OeCXQWsKODqzXEr/GA983aiLdLjdVqYb8CwIuivCGxfsEJ2C5uJ2xtFVY4+920HfwJ4q4CrNwQOpvnScj2QIgpASpPZ74CnSzYAmTF1OPiXgE1J/uhHADyJ2x84aXyowlkSdV3cnl4Hzyrp+tD4yWDBw8AzBVy9EU4XGo3WTnQ6fRxlYJtAKtl1+FeuhWgTkJHxnwkeYPSexTgl9RnguQKvPRTPbqUHUkQBSGny9jfBbwZWlug33AvnOIrj3I/3wH5JTd2rKpglIUv8XZUMRych93m9GK4kWosT13DMC3/H5awFWB4/AGHbxKfpocu2Ag4oICifDf4EXzui+KYlVtcvBR4hOlQ2rt1wdtfDKKIApDRVnw9wB3A/pTYKct20SsLwu8BoimOR/UME4a0qlCUVgMRteASY6XToPq8X69rBCpkGORDvwjsu7FwJLI0dtMI2kBuS8FQ9CNi+gOv+SWjPFm8wy33AggKuHIBxHJn0ED2QIgpASvRlW7+cwKYDc0oqf0LfDziyCAIrA+YDVxHaUhXIEmF0EH9kMYX7tmQadBJynzccvZA1ICmsC/XNGed1AksKuHIDPNg5sWnZ1DgY42Dib4PeAsxkXF3xjtB7ahbwfIFXH47ZpnoYRRSAlK4wfAS4GWijFEZCbrqikjD8HsUx+pEDfoYFM6muU1ksmQasrQLibqNZDuyLx56mIt0eQHohOzaupqvTPZ0FxB852wgL9k9wWm4LHFLAlfNwv7+4WzzZduAuCjvkcgzuR5FJq0NCRAFIiaqub8f5KfBgSQQg7R2H5F94SS9vKeDvmN1M1cQ2FcSSikBWEo1sxWqqAZ/E2Fzp14euS6cK7HleSZfPcPE5xJ+GNQj8YDLp0YlLyysvisp0/HUqDvyTMCjuHQGr6x2zB4BFBVw9ADgWi72dt4goACkiNXVvY3458EZR59P104aBnwhsRrIXnwf5tL6cqtp/qQCWXFW3LJ+/cW0J9iWlXx/K+hCcA2JfZzYPs86u/XJ7q4AABOBgonUWyVJePhw4nviLz9uAOwlynUVfnsJwPvDXAq/eEfcD9FCKKAApbR38DWw60dkgRdp4CPfHOYLkT71qwX0G2bb7VPBKUPXEDuAl4k+nqQS+RSa9txKxz15Tu1LIlCFnNm4dXfrVzr+AuQVcuR5wMk1TkrWJQcC2QCEN6LcIg4eomVT8xammfgXYX4BCgqmNgMO5oVaPpYgCkBJ2Zn0O95txv4Xkb137n5rTQ3H/Csk/9TwEfg3hjZxxgc59KFXuLwFvF3DlbsCPyDR8ol+kU/O0cjKNh5FJH8v09EimNwRcP7WP7qVxE/AJ+QZ9XM+S+r/WLv3+cXWrgH8W2Fg9CoJxXDelstvTJXMpZBoDMo1juP6Kget2TTrA7ThgeAG/8U+YLymdQh4+C7xcWJvJDqB9hM4EEVEAUuJq6laAXwHcS7GtBzHbi2i4P8nBhwEPgk+lZrJOvS5lqfBZCtsBx4CjMWumuXE/mhoGlnQ6eVgJfjJwMwF/JLDz6fB9yTSOYsbU3lmQn5lqZBq3xf0S4OgC6r55uL/E6et3Q3rwAIWdzTQAYzzZoJ4ZjRswfVrX6++rLzaaGoZC527g9eC/p7P9SC6/ah3e9sEoop0I4y7obwH+Qk1ta8mU8RyvAw8XePVeWKARUZEuKlMSFEMQMmk2TVN/jIVjgP0ohtGQGy4bREfnKcQ/abe3A/CncS6gpv51FbQSN3byKjLpe4DPAkNj15XOEeDbYfyUpoa7CfwVhnWs4JsX9MTdhvTdtMVKYC+iUYf1gE9iPh54HPc/kkk/AfYGnWWLOfOcXLf+5qt+nKKsbAsIDwa+D+xPYR1lj2IFrfn5iPAzeALC5yls56jhwARC340gdwPNDU8QhAs4fXKMYOwaoHUohJsDuwLHAEcQ7SqYAg5k0Op7+F87O4V+KFDIKN4TwIslVReMr19NJj0T+BrxtyMeChxKZto9VE9oUcUqogCkxIOQiU/SlL4A4wpgu8Tfb2fnQcBhRD2XSVz/YcDrBPyI0//+KDUqYv1CYPcQ+in5QL4QW4Kdj/FN3B7mvYFPk0k/TWCvU9G+kJPPL3wK3w2/NrJvDyUMNwXfjWjqYh8IN4J/23UqBYwCjsqv53ob/BnKO58n0/gC8BaEcwhZwLj6+N+/6fLB0L4VATvitlu+ob8f0a5DhWgF7qe67t3uSY7cSgK7lWhReSEjQAOIRoIPwu0Rcql/0px+BWcu7iuwYBV4G7jjNoCACrDhuI/AbENo2RxnG2B3osMDB33o8/fBGfBfA5DrLy6j0z8DjCng/mfSlppTcnWB8xDGa0S7gsW9+HN4eA3wiipVEQUg/cF9YJPApwJbk9SF3TddMZi29m8CGyY3+LB3MM5jWPAn7I8qWf3HO8ANwB5daODmT7tmG+DrwDxCf5e2iiVk0nOABWCrgJZ8wzILBBCsaTgG+Uak4R5gPhRsAzreWJ+oN3YUUe/2er2eOjPShrNrvkH7kSFcFISxJfAF8GXAErBlBCwlk14CLM7/W0s+GOgE78AIcBsEPiD//dcHNoGOMWBjcDYiGjHt6jSvJzHu6bY0GVcfkkn/GXga2KcLnzQa+DxwNM57wDLM2sDbozQyMFI4ZeCDgErchxH1uP+3UaAdcBvNf5sm1lm+A3gBDW3mAY9w9oRcydUErWVvUpl9BNib+KNsnwA/kKsbXuWMekdEFICUtJo658Yr76a9fQD4JVElmMDpWO3tBxONfgR0eR/+bheAzcGYxMDy3/GNs0MVrH5kbG1IpuFOsGOBL3bDJ1YAW+V/yD+PWfAw//cQzKOgxW2tACZ4/29YKl8X9/0arxwBxp7r+G6wfLA06j8+BXLguXwHhAMhjoEHa33/sm4INj5sOcYNVNW92b3p0vYvUgNvIdqQoKKLn5b6mHQr1FCM3YH/9p33A3Yp4LNfxIPHS7IuOPdcJ9N4N/i3CsiLMowvUW63Rh0NIlJAY0yKyiln5Wip/C1OLdHwb5IWpjvXTR0MfIno3I8EBh+8gTOJ1tRv+N7ZORWofqi6fhEwjWhb3p4oYxXAQKK1FEOIerCHAIPzP5X5/77mpzwxz3EZZURTfboSGKTyaTAo/10Hr5UGlfl/H9ADwUcI/Iowe3u3p8v4C0LgDiCJ23QPBPYhM+Wj/2smPQr8MOKP+HUA/6Bm4uKSrQtyPEZhu2EB7IP7DqpQRRSA9B8TxofMHnRHfnvK5xNzX4YT+j44x5LMhfIvYXYuFcFtnH1upwpSPxbyGJAGFiox1m6Q2cbAJkV69/diTKXmvJ45N6m67u38joRvJ+x7lwN7UJEq/5j/viVwaAGfuxi6cSpbIltAuVXgf6CwzrJRYMer0hBRANK/XHamU566B7Nq4AGiHtS+7EV1nKGE/k2iud1JmRe7ZhH8k8B4wrbfc9oEnfXR342ry+HcCvwYWKIEef8x3onCzono05sG/gLUUVX3Ro/+plTwINAALE9YGmxGls3/419nTElhHEZ0gF5cz4C/WNLFvWZSDrc/F1gHVACfprlhfdUbIgpA+pfTJjpVtY9g/AD8VqIh877LU7N9gGMTFHwERAeI/R5nLNV1D1LzIy0YlHzjo66NwG4AJpO8Xu2+sjMwrIjutx24DbezqK57rsd/2+m1Wcx/SjSFL0nnBq1PGO74H/8a2jCcLxbwXsiC3xltolDijLeABwu8ekewg1RtiCgA6Z+q6l7Ew3OAK4BF9MVIiDOI0E8mOed+GLAU7Cqws6nphcaJFJ+xte2EfhP4eODvUcOrn/rhlUa0zWuxHLQ4B2cqzhnU1PZeT31VfSvYdGAKyZnCtx7YTv9ZC9pe+aAyrnlg/6B6Uulv0lFdtwS4v8Bnf32cg5k+rQIRUQDSL9VMXkC5X4LZWcBTazXCeyf8iLYP3Zm+31ltzXd+EXwCufKLqa6dowIiH2tcfScts/+AcSrRupA5FMNhn93ehG0bnH9+OhP+/VcDdwKnkWIKNXW9HwRU167AyABnAs/StxtueP73D+bMqR/U+Q/+yXC+QGEjWn/FfV6/KfvuT1L4YvRPkcptrYpURAFI/3VafSvwG8LwVOD/Ec1TTvXSb0/R9zv5pIBVwG3gJ5PznzP+bG2RKP/bhOudPepeI+ASzL4AXAO8lm/sJlmYL/OL8oFTRxdaYasJgkmYfxm4mWiXsKUkYze7XP473gv+XeAU2kbcy9i6vpsiVFW3mpTfBvZ14Dpgfi+mlQMrgNnAL4ATCYKr2WKtuPGFZ7YCPlXAO6ADuJ+a+hX95vnPBS8AhW43vCfOXr14t3293rMYFJI+ag/3Mp0DUmqqanPALJqnVRPmTgSqMfbIv4RKtVfX8t/taeBmQv8FIzqW860fqTz8WyqZgy8imiaXW/c6wpLSCO1ZBwDUtXHlBU8zdOQs2tuawY8h2kFoO6LdhPpqelIH8N6HfpYCb4G9hvm/MHuNduYW/BvOqA+BBcw4/w8Ew+8hl90A2D9qxPpuRIefbtKL742QaCem14k2kbgbt0cZunwF30kno8ycXh8CL9PUeDbmvwa+CRyYLyuDeyDoWAb8C3gBYybO36MyEHYwtu7DteKeRFseL4xR96eAWfm6tP84o7adpvR9GJ8i2oQhzrsyAPYm03AH1fVxOrxyRIvfFxONOq6L8uga1/lVHy+b76x4dx3fW2sCOm1GogBEuicQmdBCw5W3MLz9n+BfB74BbFqiwce7wK04P8VzzzFusirnj3xNplrBf0h0HoPHSN+F+QZv/3DWBWteYq8Ar5C55EZI7Ug0xXBHYNu1GuMj6FpvpANtRKOVK/LpvObvy/M/i/IvxyVgSzCW4CyhNbWEc87t/jUrYy9a8/3nAb/lsituZ1DnBhDuDOwA7JRPhy2ADVlzqnvX5fKNsdlEo08vY/48bs/j9iY1tcndQKKmtg34G9OnPEoQ7EJ0lsqe+fRaU1YqCigbK6IAg9fygcELYLMIOl9n7Hm5//HkPofbhLU+ax0b076AVO5f/a+C9HsheDdfnuOUNQNfBpaNmbuLMZtGNNoYrnv+sAjr1Mj+x6ZQMA/nQqKph+v+nrPwXQV2vd94k1KXSQ/C2RvjNOBIolNfA4p3RGTNvS8H7sW5mcCepKp2hTJbetT1UyvIhqNwRoINBx+Tb1yOyT9Xaw7bK8+fgA7QAd6J04mtCSxsOfhyzJfhtioKQqwNaMe9DaONkDZCayMbdnJ2fTK+/4xLIGeVWLBePvgaBrYx+CbAaGAk7iMxW3Pg4ppDCcvzjYEOot7eNqLe/KX54GouZnPxcDFmy3CWkMutYHwRdyY0NVZiPhpsFPh6YBuAbwSsBwwHW3NY45p2Ums+XZaALcRYgPMO7ssIWEIuXMK4STo8VUQUgEgRubLBGBAMBvbHORl8f6IRkRTFM71mzVzm+eAPYdwIqUdYGaxk4rnKY+mjRnk6AEuR8xRmAY5ha9WtjmM47h71sAUhYXmOhzpDflVbAh0cVxm0BrilCEgRhlE6fDC14YM5626OuQMhTkhADixHLtvJtXc7sx4u3XKSuQX8nTLwFGapf08XwAjBHbMcBDnCQTlqxun5EhEFIFICrr0Ucm0DIbU/2AnAp4mmCZSR3BGRIB8kvQrMxP1ugvIHWX7uKuqVpSIiIiIKQKQ4NDcMwm0nsP3Bjwb2JZo3GaxVNrwPy2QOWAX+OPAnsEcwZlFV16bMExEREVEAIkUbiFwREHaMgXBrzA7H+RzG1sBQop1cUvlAJOyBgMTWCnhyRNuersRtNub3gd0H4b/Iti/mjAs0/1lEREREAYiUlKZ0GWYDCdgW9wNx2xv8E8AGRAttR/LBWgz/0A8fEaDYWn+u+fua/bZzRAvJFxPttDQbeArnYVLlr5DrbCPoyFJ1vvJFRERERAGI9AtXNxqpcANgGyzYHHwzol1/1ueDnX+GEu3+MzgfXJTny1YHWA68FViZ/1lGtK3oImAexhyctwn9dco3WcDp33EluoiIiIgCEJHIbdfC4qUDcB8KqaEQDgYbCAzKbysZgKeigZAgRzRtqwO8DWiDoAXClQTlK6kY0sbJpytNRURERERERERERERERERERERERERERERERERERERERERERERERERERERERERERERERERERERERERERERERERERERERERERERERERERERERERERERERERERERERERERERERERERERERERERERERERERERERERERERERERERERERERERERERERERERERERERERERERERERERERERERERERERERERERERERERERERERERERERERERERERERERERERERERERERERERERERERERERERERERERERERERERERERERERERERERERERERERERERERERERERERERERERERERERERERERERERERERERERERERERERERERERERERERERERERERERERERERERERERERERERERERERERERERERERERERERERERERERERERERERERERERERERERERERERERERERERERERERERERERERERERERERERERERERERERERERERERERERERERERERERERERERERERERERERERERERERERERERERERERERERERERERERERERERERERERERERERERERERERERERERERERERERERERERERERERERERERERERERERERERERERERERERERERERERERERERERERERERERERERERERERERERERERERERERERERERERERERERERERERERERLrf/wflL5jKVAOdAAAAACV0RVh0ZGF0ZTpjcmVhdGUAMjAyMS0xMS0yMVQxNToxNTowMiswMDowMON977IAAAAldEVYdGRhdGU6bW9kaWZ5ADIwMjEtMTEtMjFUMTU6MTU6MDIrMDA6MDCSIFcOAAAAGXRFWHRTb2Z0d2FyZQB3d3cuaW5rc2NhcGUub3Jnm+48GgAAAABJRU5ErkJggg==" vertex="1" parent="0v8Zg-rZT7xSfdYN5Gm1-84">
          <mxGeometry x="100" y="455" width="83.05" height="30" as="geometry" />
        </mxCell>
        <mxCell id="0v8Zg-rZT7xSfdYN5Gm1-85" value="" style="group" vertex="1" connectable="0" parent="1">
          <mxGeometry x="871" y="905" width="220" height="140" as="geometry" />
        </mxCell>
        <mxCell id="0v8Zg-rZT7xSfdYN5Gm1-86" value="" style="rounded=0;whiteSpace=wrap;html=1;strokeColor=#FF8000;" vertex="1" parent="0v8Zg-rZT7xSfdYN5Gm1-85">
          <mxGeometry y="15" width="200" height="110" as="geometry" />
        </mxCell>
        <mxCell id="0v8Zg-rZT7xSfdYN5Gm1-87" value="&lt;font style=&quot;font-size: 14px;&quot;&gt;&lt;b&gt;schemas.py&lt;/b&gt;&lt;/font&gt;" style="text;html=1;align=center;verticalAlign=middle;whiteSpace=wrap;rounded=0;fillColor=default;" vertex="1" parent="0v8Zg-rZT7xSfdYN5Gm1-85">
          <mxGeometry x="53" y="-5" width="105" height="40" as="geometry" />
        </mxCell>
        <mxCell id="0v8Zg-rZT7xSfdYN5Gm1-88" value="Defines pydantic models for each database table, used for API payload/response validation" style="text;html=1;align=center;verticalAlign=middle;whiteSpace=wrap;rounded=0;" vertex="1" parent="0v8Zg-rZT7xSfdYN5Gm1-85">
          <mxGeometry x="20" y="35" width="160" height="60" as="geometry" />
        </mxCell>
        <mxCell id="0v8Zg-rZT7xSfdYN5Gm1-94" value="" style="shape=image;verticalLabelPosition=bottom;verticalAlign=top;imageAspect=0;aspect=fixed;image=data:image/svg+xml,PHN2ZyB4bWxucz0iaHR0cDovL3d3dy53My5vcmcvMjAwMC9zdmciIGZpbGw9Im5vbmUiIHZpZXdCb3g9IjAgMCAzMiAzMiIgaGVpZ2h0PSI4MDBweCIgd2lkdGg9IjgwMHB4Ij4mI3hhOzxwYXRoIGZpbGw9InVybCgjcGFpbnQwX2xpbmVhcl84N184MjA0KSIgZD0iTTEzLjAxNjQgMkMxMC44MTkzIDIgOS4wMzgyNSAzLjcyNDUzIDkuMDM4MjUgNS44NTE4NVY4LjUxODUySDE1LjkyMzVWOS4yNTkyNkg1Ljk3ODE0QzMuNzgxMDcgOS4yNTkyNiAyIDEwLjk4MzggMiAxMy4xMTExTDIgMTguODg4OUMyIDIxLjAxNjIgMy43ODEwNyAyMi43NDA3IDUuOTc4MTQgMjIuNzQwN0g4LjI3MzIyVjE5LjQ4MTVDOC4yNzMyMiAxNy4zNTQyIDEwLjA1NDMgMTUuNjI5NiAxMi4yNTE0IDE1LjYyOTZIMTkuNTk1NkMyMS40NTQ3IDE1LjYyOTYgMjIuOTYxNyAxNC4xNzA0IDIyLjk2MTcgMTIuMzcwNFY1Ljg1MTg1QzIyLjk2MTcgMy43MjQ1MyAyMS4xODA3IDIgMTguOTgzNiAySDEzLjAxNjRaTTEyLjA5ODQgNi43NDA3NEMxMi44NTg5IDYuNzQwNzQgMTMuNDc1NCA2LjE0Mzc4IDEzLjQ3NTQgNS40MDc0MUMxMy40NzU0IDQuNjcxMDMgMTIuODU4OSA0LjA3NDA3IDEyLjA5ODQgNC4wNzQwN0MxMS4zMzc4IDQuMDc0MDcgMTAuNzIxMyA0LjY3MTAzIDEwLjcyMTMgNS40MDc0MUMxMC43MjEzIDYuMTQzNzggMTEuMzM3OCA2Ljc0MDc0IDEyLjA5ODQgNi43NDA3NFoiIGNsaXAtcnVsZT0iZXZlbm9kZCIgZmlsbC1ydWxlPSJldmVub2RkIi8+JiN4YTs8cGF0aCBmaWxsPSJ1cmwoI3BhaW50MV9saW5lYXJfODdfODIwNCkiIGQ9Ik0xOC45ODM0IDMwQzIxLjE4MDUgMzAgMjIuOTYxNiAyOC4yNzU1IDIyLjk2MTYgMjYuMTQ4MlYyMy40ODE1TDE2LjA3NjMgMjMuNDgxNUwxNi4wNzYzIDIyLjc0MDhMMjYuMDIxNyAyMi43NDA4QzI4LjIxODggMjIuNzQwOCAyOS45OTk4IDIxLjAxNjIgMjkuOTk5OCAxOC44ODg5VjEzLjExMTFDMjkuOTk5OCAxMC45ODM4IDI4LjIxODggOS4yNTkyOCAyNi4wMjE3IDkuMjU5MjhMMjMuNzI2NiA5LjI1OTI4VjEyLjUxODVDMjMuNzI2NiAxNC42NDU5IDIxLjk0NTUgMTYuMzcwNCAxOS43NDg1IDE2LjM3MDRMMTIuNDA0MiAxNi4zNzA0QzEwLjU0NTEgMTYuMzcwNCA5LjAzODA5IDE3LjgyOTYgOS4wMzgwOSAxOS42Mjk2TDkuMDM4MDkgMjYuMTQ4MkM5LjAzODA5IDI4LjI3NTUgMTAuODE5MiAzMCAxMy4wMTYyIDMwSDE4Ljk4MzRaTTE5LjkwMTUgMjUuMjU5M0MxOS4xNDA5IDI1LjI1OTMgMTguNTI0NCAyNS44NTYyIDE4LjUyNDQgMjYuNTkyNkMxOC41MjQ0IDI3LjMyOSAxOS4xNDA5IDI3LjkyNTkgMTkuOTAxNSAyNy45MjU5QzIwLjY2MiAyNy45MjU5IDIxLjI3ODUgMjcuMzI5IDIxLjI3ODUgMjYuNTkyNkMyMS4yNzg1IDI1Ljg1NjIgMjAuNjYyIDI1LjI1OTMgMTkuOTAxNSAyNS4yNTkzWiIgY2xpcC1ydWxlPSJldmVub2RkIiBmaWxsLXJ1bGU9ImV2ZW5vZGQiLz4mI3hhOzxkZWZzPiYjeGE7PGxpbmVhckdyYWRpZW50IGdyYWRpZW50VW5pdHM9InVzZXJTcGFjZU9uVXNlIiB5Mj0iMjIuNzQwNyIgeDI9IjEyLjQ4MDkiIHkxPSIyIiB4MT0iMTIuNDgwOSIgaWQ9InBhaW50MF9saW5lYXJfODdfODIwNCI+JiN4YTs8c3RvcCBzdG9wLWNvbG9yPSIjMzI3RUJEIi8+JiN4YTs8c3RvcCBzdG9wLWNvbG9yPSIjMTU2NUE3IiBvZmZzZXQ9IjEiLz4mI3hhOzwvbGluZWFyR3JhZGllbnQ+JiN4YTs8bGluZWFyR3JhZGllbnQgZ3JhZGllbnRVbml0cz0idXNlclNwYWNlT25Vc2UiIHkyPSIzMCIgeDI9IjE5LjUxOSIgeTE9IjkuMjU5MjgiIHgxPSIxOS41MTkiIGlkPSJwYWludDFfbGluZWFyXzg3XzgyMDQiPiYjeGE7PHN0b3Agc3RvcC1jb2xvcj0iI0ZGREE0QiIvPiYjeGE7PHN0b3Agc3RvcC1jb2xvcj0iI0Y5QzYwMCIgb2Zmc2V0PSIxIi8+JiN4YTs8L2xpbmVhckdyYWRpZW50PiYjeGE7PC9kZWZzPiYjeGE7PC9zdmc+" vertex="1" parent="0v8Zg-rZT7xSfdYN5Gm1-85">
          <mxGeometry x="180" y="105" width="40" height="40" as="geometry" />
        </mxCell>
        <mxCell id="0v8Zg-rZT7xSfdYN5Gm1-91" value="" style="shape=image;verticalLabelPosition=bottom;verticalAlign=top;imageAspect=0;aspect=fixed;image=data:image/svg+xml,PHN2ZyB4bWxucz0iaHR0cDovL3d3dy53My5vcmcvMjAwMC9zdmciIGlkPSJzdmcxNzg2IiB2ZXJzaW9uPSIxLjEiIHZpZXdCb3g9IjAgMCA5NDYuMjI1MzQgMTg4Ljg3NzY5IiBoZWlnaHQ9IjE4OC44Nzc2OSIgd2lkdGg9Ijk0Ni4yMjUzNCI+PGRlZnMgaWQ9ImRlZnMxNzgzIj48cGF0aCBkPSJtIDAuMDYsMC41IGggMjcyIHYgMTkwIGggLTI3MiB6IiBpZD0iYSIvPjwvZGVmcz48ZyB0cmFuc2Zvcm09InRyYW5zbGF0ZSgtMjc5LjQyNzkxLC0yMzcuNzUyMDkpIiBpZD0ibGF5ZXIxIj48ZyBzdHlsZT0iZm9udC13ZWlnaHQ6NTAwO2ZvbnQtc2l6ZToxNzEuMzg4cHg7bGluZS1oZWlnaHQ6MS4yNTtmb250LWZhbWlseTonSUJNIFBsZXggU2Fucyc7LWlua3NjYXBlLWZvbnQtc3BlY2lmaWNhdGlvbjonSUJNIFBsZXggU2FucywgTWVkaXVtJztzdHJva2Utd2lkdGg6NC4yODQ3IiBpZD0idGV4dDE5NTciIGFyaWEtbGFiZWw9IlB5ZGFudGljIj48cGF0aCBpZD0icGF0aDEyMTQiIGQ9Ik0gNTU5Ljk4MjksMzg0LjQ0NjUzIFYgMjY0LjgxNzcxIGggNTEuNDE2NCBxIDE2LjYyNDYzLDAgMjUuNzA4Miw5Ljc2OTExIDkuMDgzNTYsOS43NjkxMiA5LjA4MzU2LDI2LjIyMjM3IDAsMTYuNDUzMjUgLTkuMDgzNTYsMjYuMjIyMzYgLTkuMDgzNTcsOS43NjkxMiAtMjUuNzA4Miw5Ljc2OTEyIGggLTMyLjA0OTU2IHYgNDcuNjQ1ODYgeiBtIDE5LjM2Njg0LC02NC42MTMyNyBoIDMwLjg0OTg0IHEgNy4zNjk2OSwwIDExLjQ4MywtMy43NzA1NCA0LjExMzMxLC0zLjk0MTkyIDQuMTEzMzEsLTExLjE0MDIyIHYgLTguMjI2NjIgcSAwLC03LjE5ODMgLTQuMTEzMzEsLTEwLjk2ODg0IC00LjExMzMxLC0zLjk0MTkyIC0xMS40ODMsLTMuOTQxOTIgaCAtMzAuODQ5ODQgeiIvPjxwYXRoIGlkPSJwYXRoMTIxNiIgZD0iTSA3MjAuNzQ0NjYsMjk1LjMyNDc3IEggNzM4Ljc0MDQgTCA3MDEuMjA2NDMsNDAyLjA5OTUgcSAtMS41NDI1LDQuNDU2MDkgLTMuNTk5MTUsNy41NDEwNyAtMS44ODUyNywzLjI1NjM3IC00LjYyNzQ4LDUuMTQxNjQgLTIuNTcwODIsMi4wNTY2NiAtNi4zNDEzNSwyLjkxMzYgLTMuNzcwNTQsMS4wMjgzMiAtOC45MTIxOCwxLjAyODMyIEggNjY2LjkyODgyIFYgNDAzLjQ3MDYgaCAxNS4wODIxNSBsIDUuMTQxNjQsLTE1LjA4MjE0IC0zMi4zOTIzMywtOTMuMDYzNjkgaCAxOC42ODEyOSBsIDE3LjgyNDM1LDUyLjQ0NDczIDUuMTQxNjQsMTkuMzY2ODUgaCAwLjg1Njk0IGwgNS42NTU4MSwtMTkuMzY2ODUgeiIvPjxwYXRoIGlkPSJwYXRoMTIxOCIgZD0ibSA4MDkuMTgwNzYsMzY5LjcwNzE3IGggLTAuODU2OTQgcSAtMi45MTM2LDcuODgzODQgLTkuNTk3NzMsMTIuMzM5OTMgLTYuNTEyNzUsNC40NTYwOSAtMTUuNDI0OTIsNC40NTYwOSAtMTYuOTY3NDEsMCAtMjYuMjIyMzcsLTEyLjE2ODU1IC05LjI1NDk1LC0xMi4zMzk5MyAtOS4yNTQ5NSwtMzQuNDQ4OTkgMCwtMjIuMTA5MDUgOS4yNTQ5NSwtMzQuMjc3NiA5LjI1NDk2LC0xMi4zMzk5MyAyNi4yMjIzNywtMTIuMzM5OTMgOC45MTIxNywwIDE1LjQyNDkyLDQuNDU2MDggNi42ODQxMyw0LjI4NDcgOS41OTc3MywxMi4zMzk5NCBoIDAuODU2OTQgdiAtNTIuNDQ0NzMgaCAxOC42ODEyOSB2IDEyNi44MjcxMiBoIC0xOC42ODEyOSB6IG0gLTIwLjIyMzc5LDAuNjg1NTUgcSA4LjU2OTQsMCAxNC4zOTY1OSwtNC4xMTMzMSA1LjgyNzIsLTQuMjg0NyA1LjgyNzIsLTExLjE0MDIyIHYgLTMwLjUwNzA3IHEgMCwtNi44NTU1MiAtNS44MjcyLC0xMC45Njg4MyAtNS44MjcxOSwtNC4yODQ3IC0xNC4zOTY1OSwtNC4yODQ3IC05Ljc2OTExLDAgLTE1LjU5NjMxLDYuMzQxMzYgLTUuODI3MTksNi4xNjk5NiAtNS44MjcxOSwxNi40NTMyNCB2IDE1LjQyNDkyIHEgMCwxMC4yODMyOCA1LjgyNzE5LDE2LjYyNDY0IDUuODI3Miw2LjE2OTk3IDE1LjU5NjMxLDYuMTY5OTcgeiIvPjxwYXRoIGlkPSJwYXRoMTIyMCIgZD0ibSA5MTkuODk3MjYsMzg0LjQ0NjUzIHEgLTcuMzY5NjksMCAtMTEuMzExNjEsLTQuMTEzMzEgLTMuOTQxOTMsLTQuMjg0NyAtNC43OTg4NywtMTAuNzk3NDQgaCAtMC44NTY5NCBxIC0yLjU3MDgyLDguMzk4MDEgLTkuNDI2MzQsMTIuNjgyNzEgLTYuODU1NTIsNC4yODQ3IC0xNi42MjQ2Myw0LjI4NDcgLTEzLjg4MjQzLDAgLTIxLjQyMzUsLTcuMTk4MyAtNy4zNjk2OSwtNy4xOTgyOSAtNy4zNjk2OSwtMTkuMzY2ODQgMCwtMTMuMzY4MjYgOS41OTc3MywtMjAuMDUyNCA5Ljc2OTEyLC02LjY4NDEzIDI4LjQ1MDQxLC02LjY4NDEzIGggMTYuMTEwNDcgdiAtNy41NDEwNyBxIDAsLTguMjI2NjIgLTQuNDU2MDksLTEyLjY4MjcxIC00LjQ1NjA4LC00LjQ1NjA5IC0xMy44ODI0MiwtNC40NTYwOSAtNy44ODM4NSwwIC0xMi44NTQxLDMuNDI3NzYgLTQuOTcwMjYsMy40Mjc3NiAtOC4zOTgwMiw4Ljc0MDc5IGwgLTExLjE0MDIyLC0xMC4xMTE5IHEgNC40NTYwOSwtNy41NDEwNyAxMi41MTEzMywtMTIuMzM5OTMgOC4wNTUyMywtNC45NzAyNSAyMS4wODA3MiwtNC45NzAyNSAxNy4zMTAxOSwwIDI2LjU2NTE0LDguMDU1MjMgOS4yNTQ5NSw4LjA1NTI0IDkuMjU0OTUsMjMuMTM3MzggViAzNjkuMTkzIGggOS40MjYzNCB2IDE1LjI1MzUzIHogTSA4ODIuMTkxOSwzNzIuMjc3OTkgcSA4Ljc0MDc4LDAgMTQuMzk2NTksLTMuNzcwNTQgNS42NTU4LC0zLjk0MTkyIDUuNjU1OCwtMTAuNDU0NjcgdiAtMTIuODU0MSBIIDg4Ni40NzY2IHEgLTE5LjM2Njg1LDAgLTE5LjM2Njg1LDExLjk5NzE2IHYgMy4wODQ5OSBxIDAsNS45OTg1OCAzLjk0MTkzLDkuMDgzNTYgNC4xMTMzMSwyLjkxMzYgMTEuMTQwMjIsMi45MTM2IHoiLz48cGF0aCBpZD0icGF0aDEyMjIiIGQ9Im0gOTQ4LjY5MDQxLDM4NC40NDY1MyB2IC04OS4xMjE3NiBoIDE4LjY4MTI5IHYgMTQuNzM5MzcgaCAwLjg1Njk0IHEgMi45MTM2LC03LjE5ODMgOC43NDA3OSwtMTEuOTk3MTYgNS45OTg1OCwtNC43OTg4NiAxNi4yODE4NiwtNC43OTg4NiAxMy43MTEwMSwwIDIxLjI1MjExLDkuMDgzNTYgNy43MTI1LDguOTEyMTggNy43MTI1LDI1LjUzNjgxIHYgNTYuNTU4MDQgaCAtMTguNjgxMyB2IC01NC4xNTg2IHEgMCwtMjAuOTA5MzQgLTE2Ljc5NjA2LC0yMC45MDkzNCAtMy41OTkxNCwwIC03LjE5ODI5LDEuMDI4MzMgLTMuNDI3NzYsMC44NTY5NCAtNi4xNjk5NywyLjc0MjIxIC0yLjc0MjIxLDEuODg1MjYgLTQuNDU2MDksNC43OTg4NiAtMS41NDI0OSwyLjkxMzYgLTEuNTQyNDksNi44NTU1MiB2IDU5LjY0MzAyIHoiLz48cGF0aCBpZD0icGF0aDEyMjQiIGQ9Im0gMTA3Mi43NzUzLDM4NC40NDY1MyBxIC05Ljc2OTEsMCAtMTQuNzM5NCwtNC45NzAyNSAtNC45NzAyLC01LjE0MTY0IC00Ljk3MDIsLTE0LjM5NjU5IFYgMzEwLjU3ODMgaCAtMTMuODgyNCB2IC0xNS4yNTM1MyBoIDcuNTQxIHEgNC42Mjc1LDAgNi4zNDE0LC0yLjA1NjY1IDEuODg1MywtMi4wNTY2NiAxLjg4NTMsLTYuNjg0MTQgdiAtMTUuNTk2MyBoIDE2Ljc5NiB2IDI0LjMzNzA5IGggMTguNjgxMyB2IDE1LjI1MzUzIGggLTE4LjY4MTMgdiA1OC42MTQ3IGggMTcuMzEwMiB2IDE1LjI1MzUzIHoiLz48cGF0aCBpZD0icGF0aDEyMjYiIGQ9Im0gMTEyMC4wNzg0LDI3OS4zODU2OSBxIC01LjgyNzIsMCAtOC41Njk0LC0yLjc0MjIxIC0yLjU3MDksLTIuNzQyMjEgLTIuNTcwOSwtNy4wMjY5MSB2IC0yLjkxMzU5IHEgMCwtNC4yODQ3IDIuNTcwOSwtNy4wMjY5MSAyLjc0MjIsLTIuNzQyMjEgOC41Njk0LC0yLjc0MjIxIDUuODI3MSwwIDguMzk4LDIuNzQyMjEgMi41NzA4LDIuNzQyMjEgMi41NzA4LDcuMDI2OTEgdiAyLjkxMzU5IHEgMCw0LjI4NDcgLTIuNTcwOCw3LjAyNjkxIC0yLjU3MDksMi43NDIyMSAtOC4zOTgsMi43NDIyMSB6IG0gLTkuNDI2NCwxNS45MzkwOCBoIDE4LjY4MTMgdiA4OS4xMjE3NiBoIC0xOC42ODEzIHoiLz48cGF0aCBpZD0icGF0aDEyMjgiIGQ9Im0gMTE5MC41MTg3LDM4Ni41MDMxOSBxIC05LjU5NzcsMCAtMTcuMTM4OCwtMy4yNTYzNyAtNy41NDEsLTMuMjU2MzcgLTEyLjY4MjcsLTkuMjU0OTUgLTUuMTQxNiwtNi4xNjk5NyAtNy44ODM4LC0xNC43MzkzNyAtMi43NDIyLC04Ljc0MDc5IC0yLjc0MjIsLTE5LjM2Njg1IDAsLTEwLjYyNjA1IDIuNzQyMiwtMTkuMTk1NDUgMi43NDIyLC04Ljc0MDc5IDcuODgzOCwtMTQuNzM5MzcgNS4xNDE3LC02LjE2OTk3IDEyLjY4MjcsLTkuNDI2MzQgNy41NDExLC0zLjI1NjM3IDE3LjEzODgsLTMuMjU2MzcgMTMuMzY4MywwIDIxLjkzNzcsNS45OTg1OCA4LjU2OTQsNS45OTg1OCAxMi41MTEzLDE1LjkzOTA4IGwgLTE1LjQyNDksNy4xOTgzIHEgLTEuODg1MywtNi4xNjk5NyAtNi42ODQxLC05Ljc2OTEyIC00LjYyNzUsLTMuNzcwNTQgLTEyLjM0LC0zLjc3MDU0IC0xMC4yODMzLDAgLTE1LjU5NjMsNi41MTI3NSAtNS4xNDE2LDYuMzQxMzYgLTUuMTQxNiwxNi42MjQ2NCB2IDE1LjkzOTA4IHEgMCwxMC4yODMyOCA1LjE0MTYsMTYuNzk2MDIgNS4zMTMsNi4zNDEzNiAxNS41OTYzLDYuMzQxMzYgOC4yMjY3LDAgMTMuMDI1NSwtMy45NDE5MiA0Ljk3MDMsLTQuMTEzMzIgNy44ODM5LC0xMC43OTc0NSBsIDE0LjIyNTIsNy41NDEwNyBxIC00LjQ1NjEsMTAuOTY4ODQgLTEzLjM2ODMsMTYuNzk2MDMgLTguOTEyMiw1LjgyNzE5IC0yMS43NjYzLDUuODI3MTkgeiIvPjwvZz48cGF0aCBzdHlsZT0ic3Ryb2tlLXdpZHRoOjEuODE0MzciIGlkPSJwYXRoMTA4NiIgZD0ibSA0OTUuNjY4OTcsMzgwLjQzMzk3IC0zOC4zOTIwMiwtNTMuMjMzNTQgYyAwLDAgMCwwIDAsMCBsIC02Mi4xNDIxLC04Ni4xODI0NyBjIC0zLjE1NywtNC4zNTQ0OCAtMTAuNDUwNzYsLTQuMzU0NDggLTEzLjU4OTYxLDAgbCAtNjIuMTIzOTUsODYuMTY0MzIgYyAwLDAgMCwwIDAsMCBsIC0zOC40MTAxNiw1My4yNTE2OSBjIC0xLjU2MDM2LDIuMTc3MjQgLTEuOTk1ODEsNC45NTMyMyAtMS4xNzkzNCw3LjQ5MzM0IDAuODM0NjEsMi41NDAxMiAyLjgxMjI3LDQuNTM1OTIgNS4zNTIzOCw1LjM3MDUzIGwgMTAwLjUzNDExLDMyLjkxMjYzIGMgMCwwIDAsMCAwLjAxODIsMC4wMDIgMC44MzQ2MSwwLjI3MjE2IDEuNzA1NSwwLjQxNzMxIDIuNTk0NTQsMC40MTczMSAwLjg4OTA0LDAgMS43NTk5NCwtMC4xNDUxNSAyLjU5NDU1LC0wLjQxNzMxIDAsMCAwLDAgMC4wMTgxLDAgbCAxMDAuNTM0MTIsLTMyLjkxNDI2IGMgMi41NDAxMSwtMC44MzQ2MSA0LjUzNTkxLC0yLjgxMjI3IDUuMzUyMzgsLTUuMzcwNTMgMC44MzQ2MSwtMi41NDAxMSAwLjM5OTE2LC01LjMxNjEgLTEuMTc5MzQsLTcuNDkzMzQgeiBtIC0xMDcuMzE5ODUsLTEyMC4yMDE4NSA0MC4yOTcxLDU1Ljg4MjUyIC0zNy42ODQ0MSwtMTIuMzM3NyBjIC0wLjI5MDMsLTAuMDkwNyAtMC41OTg3NCwtMC4wNzI2IC0wLjg4OTA0LC0wLjE0NTE1IC0wLjI5MDMsLTAuMDcyNiAtMC41ODA2LC0wLjEwODg2IC0wLjg3MDksLTAuMTQ1MTUgLTAuMjkwMywtMC4wMzYzIC0wLjU2MjQ1LC0wLjE0NTE1IC0wLjg1Mjc1LC0wLjE0NTE1IC0wLjI5MDMsMCAtMC41NjI0NiwwLjEwODg2IC0wLjg1Mjc2LDAuMTQ1MTUgLTAuMzA4NDQsMC4wMzYzIC0wLjU4MDU5LDAuMDcyNiAtMC44NzA4OSwwLjE0NTE1IC0wLjI5MDMsMC4wNTQ0IC0wLjU5ODc0LDAuMDU0NCAtMC44NzA5LDAuMTQ1MTUgdiAwIGwgLTM3LjQ0ODU1LDEyLjI2NTEzIC0wLjIzNTg3LDAuMDcyNiA0MC4yOTcxMSwtNTUuODgyNTIgeiBtIC01Ni45MzQ4Niw3OC45NjEyOCA0My44NzE0MSwtMTQuMzY5OCA0LjY4MTA3LC0xLjUyNDA2IHYgODMuNDA2NDggTCAzMDEuMzEzOSwzODAuOTQyIFogbSA2NS4zMTcyNCw2Ny40OTQ0NyB2IC04My4zODgzMyBsIDQ4LjU1MjQ3LDE1Ljg5Mzg2IDMwLjEwMDM2LDQxLjczMDQ1IHoiIGZpbGw9IiNlNzI1NjQiLz48L2c+PC9zdmc+" vertex="1" parent="0v8Zg-rZT7xSfdYN5Gm1-85">
          <mxGeometry x="100" y="104" width="75.08" height="15" as="geometry" />
        </mxCell>
        <mxCell id="0v8Zg-rZT7xSfdYN5Gm1-103" value="" style="group" vertex="1" connectable="0" parent="1">
          <mxGeometry x="596" y="900" width="220" height="150" as="geometry" />
        </mxCell>
        <mxCell id="0v8Zg-rZT7xSfdYN5Gm1-97" value="" style="rounded=0;whiteSpace=wrap;html=1;strokeColor=#FF8000;" vertex="1" parent="0v8Zg-rZT7xSfdYN5Gm1-103">
          <mxGeometry y="20" width="200" height="110" as="geometry" />
        </mxCell>
        <mxCell id="0v8Zg-rZT7xSfdYN5Gm1-98" value="&lt;font style=&quot;font-size: 14px;&quot;&gt;&lt;b&gt;models.py&lt;/b&gt;&lt;/font&gt;" style="text;html=1;align=center;verticalAlign=middle;whiteSpace=wrap;rounded=0;fillColor=default;" vertex="1" parent="0v8Zg-rZT7xSfdYN5Gm1-103">
          <mxGeometry x="51.5" width="97" height="40" as="geometry" />
        </mxCell>
        <mxCell id="0v8Zg-rZT7xSfdYN5Gm1-99" value="Defines sqlalchemy base models for each database table, used for database interaction" style="text;html=1;align=center;verticalAlign=middle;whiteSpace=wrap;rounded=0;" vertex="1" parent="0v8Zg-rZT7xSfdYN5Gm1-103">
          <mxGeometry x="20" y="40" width="160" height="60" as="geometry" />
        </mxCell>
        <mxCell id="0v8Zg-rZT7xSfdYN5Gm1-100" value="" style="shape=image;verticalLabelPosition=bottom;verticalAlign=top;imageAspect=0;aspect=fixed;image=data:image/svg+xml,PHN2ZyB4bWxucz0iaHR0cDovL3d3dy53My5vcmcvMjAwMC9zdmciIGZpbGw9Im5vbmUiIHZpZXdCb3g9IjAgMCAzMiAzMiIgaGVpZ2h0PSI4MDBweCIgd2lkdGg9IjgwMHB4Ij4mI3hhOzxwYXRoIGZpbGw9InVybCgjcGFpbnQwX2xpbmVhcl84N184MjA0KSIgZD0iTTEzLjAxNjQgMkMxMC44MTkzIDIgOS4wMzgyNSAzLjcyNDUzIDkuMDM4MjUgNS44NTE4NVY4LjUxODUySDE1LjkyMzVWOS4yNTkyNkg1Ljk3ODE0QzMuNzgxMDcgOS4yNTkyNiAyIDEwLjk4MzggMiAxMy4xMTExTDIgMTguODg4OUMyIDIxLjAxNjIgMy43ODEwNyAyMi43NDA3IDUuOTc4MTQgMjIuNzQwN0g4LjI3MzIyVjE5LjQ4MTVDOC4yNzMyMiAxNy4zNTQyIDEwLjA1NDMgMTUuNjI5NiAxMi4yNTE0IDE1LjYyOTZIMTkuNTk1NkMyMS40NTQ3IDE1LjYyOTYgMjIuOTYxNyAxNC4xNzA0IDIyLjk2MTcgMTIuMzcwNFY1Ljg1MTg1QzIyLjk2MTcgMy43MjQ1MyAyMS4xODA3IDIgMTguOTgzNiAySDEzLjAxNjRaTTEyLjA5ODQgNi43NDA3NEMxMi44NTg5IDYuNzQwNzQgMTMuNDc1NCA2LjE0Mzc4IDEzLjQ3NTQgNS40MDc0MUMxMy40NzU0IDQuNjcxMDMgMTIuODU4OSA0LjA3NDA3IDEyLjA5ODQgNC4wNzQwN0MxMS4zMzc4IDQuMDc0MDcgMTAuNzIxMyA0LjY3MTAzIDEwLjcyMTMgNS40MDc0MUMxMC43MjEzIDYuMTQzNzggMTEuMzM3OCA2Ljc0MDc0IDEyLjA5ODQgNi43NDA3NFoiIGNsaXAtcnVsZT0iZXZlbm9kZCIgZmlsbC1ydWxlPSJldmVub2RkIi8+JiN4YTs8cGF0aCBmaWxsPSJ1cmwoI3BhaW50MV9saW5lYXJfODdfODIwNCkiIGQ9Ik0xOC45ODM0IDMwQzIxLjE4MDUgMzAgMjIuOTYxNiAyOC4yNzU1IDIyLjk2MTYgMjYuMTQ4MlYyMy40ODE1TDE2LjA3NjMgMjMuNDgxNUwxNi4wNzYzIDIyLjc0MDhMMjYuMDIxNyAyMi43NDA4QzI4LjIxODggMjIuNzQwOCAyOS45OTk4IDIxLjAxNjIgMjkuOTk5OCAxOC44ODg5VjEzLjExMTFDMjkuOTk5OCAxMC45ODM4IDI4LjIxODggOS4yNTkyOCAyNi4wMjE3IDkuMjU5MjhMMjMuNzI2NiA5LjI1OTI4VjEyLjUxODVDMjMuNzI2NiAxNC42NDU5IDIxLjk0NTUgMTYuMzcwNCAxOS43NDg1IDE2LjM3MDRMMTIuNDA0MiAxNi4zNzA0QzEwLjU0NTEgMTYuMzcwNCA5LjAzODA5IDE3LjgyOTYgOS4wMzgwOSAxOS42Mjk2TDkuMDM4MDkgMjYuMTQ4MkM5LjAzODA5IDI4LjI3NTUgMTAuODE5MiAzMCAxMy4wMTYyIDMwSDE4Ljk4MzRaTTE5LjkwMTUgMjUuMjU5M0MxOS4xNDA5IDI1LjI1OTMgMTguNTI0NCAyNS44NTYyIDE4LjUyNDQgMjYuNTkyNkMxOC41MjQ0IDI3LjMyOSAxOS4xNDA5IDI3LjkyNTkgMTkuOTAxNSAyNy45MjU5QzIwLjY2MiAyNy45MjU5IDIxLjI3ODUgMjcuMzI5IDIxLjI3ODUgMjYuNTkyNkMyMS4yNzg1IDI1Ljg1NjIgMjAuNjYyIDI1LjI1OTMgMTkuOTAxNSAyNS4yNTkzWiIgY2xpcC1ydWxlPSJldmVub2RkIiBmaWxsLXJ1bGU9ImV2ZW5vZGQiLz4mI3hhOzxkZWZzPiYjeGE7PGxpbmVhckdyYWRpZW50IGdyYWRpZW50VW5pdHM9InVzZXJTcGFjZU9uVXNlIiB5Mj0iMjIuNzQwNyIgeDI9IjEyLjQ4MDkiIHkxPSIyIiB4MT0iMTIuNDgwOSIgaWQ9InBhaW50MF9saW5lYXJfODdfODIwNCI+JiN4YTs8c3RvcCBzdG9wLWNvbG9yPSIjMzI3RUJEIi8+JiN4YTs8c3RvcCBzdG9wLWNvbG9yPSIjMTU2NUE3IiBvZmZzZXQ9IjEiLz4mI3hhOzwvbGluZWFyR3JhZGllbnQ+JiN4YTs8bGluZWFyR3JhZGllbnQgZ3JhZGllbnRVbml0cz0idXNlclNwYWNlT25Vc2UiIHkyPSIzMCIgeDI9IjE5LjUxOSIgeTE9IjkuMjU5MjgiIHgxPSIxOS41MTkiIGlkPSJwYWludDFfbGluZWFyXzg3XzgyMDQiPiYjeGE7PHN0b3Agc3RvcC1jb2xvcj0iI0ZGREE0QiIvPiYjeGE7PHN0b3Agc3RvcC1jb2xvcj0iI0Y5QzYwMCIgb2Zmc2V0PSIxIi8+JiN4YTs8L2xpbmVhckdyYWRpZW50PiYjeGE7PC9kZWZzPiYjeGE7PC9zdmc+" vertex="1" parent="0v8Zg-rZT7xSfdYN5Gm1-103">
          <mxGeometry x="180" y="110" width="40" height="40" as="geometry" />
        </mxCell>
        <mxCell id="0v8Zg-rZT7xSfdYN5Gm1-102" value="" style="shape=image;verticalLabelPosition=bottom;verticalAlign=top;imageAspect=0;aspect=fixed;image=data:image/png,iVBORw0KGgoAAAANSUhEUgAABAAAAAIACAYAAAAczR65AAAABGdBTUEAALGPC/xhBQAAACBjSFJNAAB6JgAAgIQAAPoAAACA6AAAdTAAAOpgAAA6mAAAF3CculE8AAAABmJLR0QA/wD/AP+gvaeTAACAAElEQVR42uzdeZwcVbn/8e9T3bOEZJKwyi6EJJMwJmS6umeIARwUBXEXgrgiV3+KuHDVq6CoV72u111R3BVcUAIiiKiIMIoYZqarJyQMJCGBsEhYBJJMgMlMdz2/P2bwgrJMku6Zru7P+/XKC4VO9annnKo+56lT50gAAAAAAAAAAAAAAAAAAAAAAAAAAAAAAAAAAAAAAAAAAAAAAAAAAAAAAAAAAAAAAAAAAAAAAAAAAAAAAAAAAAAAAAAAAAAAAAAAAAAAAAAAAAAAAAAAAAAAAAAAAAAAAAAAAAAAAAAAAAAAAAAAAAAAAAAAAAAAAAAAAAAAAAAAAAAAAAAAAAAAAAAAAAAAAAAAAAAAAAAAAAAAAAAAAAAAAAAAAAAAAAAAAAAAAAAAAAAAAAAAAAAAAAAAAAAAAAAAAAAAAAAAAAAAAAAAAAAAAAAAAAAAAAAAAAAAAAAAAAAAAAAAAAAAAAAAAAAAAAAAAAAAAAAAAAAAAAAAAAAAAAAAAAAAAAAAAAAAAAAAAAAAAAAAAAAAAAAAAAAAAAAAAAAAAAAAAAAAAAAAAAAAAAAAAAAAAAAAAAAAAAAAAAAAAAAAAAAAAAAAAAAAAAAAAAAAAAAAAAAAAAAAAAAAAAAAAAAAAAAAAAAAAAAAAAAAAAAAAAAAAAAAAAAAAAAAAAAAAAAAAAAAAAAAAAAAAAAAAAAAAAAAAAAAAAAAAAAAAAAAAAAAAAAAAAAAAAAAAAAAAAAAAAAAAAAAAAAAAAAAAAAAAAAAAAAAAAAAAAAAAAAAAAAAAAAAAAAAAAAAAAAAAAAAAAAAAAAAAEiSjBAAydbZ2fmsYrH4H+5+pJnt5e5bzWyTpJvc/W9m9ocoikaIFAAAAEACAEBCZTKZN5vZOZKmPs3H7nT3lxYKhZVEDAAAAKhfASEAEjv4f4OZ/fAZBv+SdEAQBPsTMQAAAKC+pQkBkDxhGO4i6Wsa3yyerdOmTbuaqAEAAAD1jRkAQAK5+1GSdhvnx//Y3d09RNQAAACA+sYMACCBgiB4truP67NmdgkRAwAA2DEDbW3THh0Z2b8k7RmY7erSdHe/vXPt2muJDkgAAKi4OI5nmY1rDc+HH330URIAAAAAT6Iwe/aexSA4yMye7dJ+kvaXtPfj/nnAw8XiVJnJJP3z8YvZ1msXLDjwyFWrHiKKIAEAoNKOGM+H3P1XAwMDWwkXAACod/n58zOx+9EmLXT350iaV5R20eMH9uNk0rSmkZHTJH2WyCJJ2AYQk2rhwoV7NTY27ifpAEkHuvtuknZx95lmNkXSlH82VrPHMqyPuPu97n6vpPvd/Z5isbh+VZ1kYHO53AFxHG/QONbwMLMX5fP5P9LSAABAPbpl9uymB1Op/zTpdEkHlvnw9+xaKh00Z926bUQaScEMAEyIMAz3MLN2d18g6bE/h0qa8mTvsj/Z9PZ//dxjnzEzNTY2KgzD+yWtlrTGzG4ys56pU6cWam0BvFKp9EYzG88Cnn/P5/N/ovUBAIB69Le5c/d7yOwqk+ZV6Cv2fjCVeoOkHxBtkABAXevs7Nx/ZGTkeZKONLMjJc1390rPONlz7M+R7i531+Dg4Eg2m71BUo+k7m3btv0p6TMFzOyU8XzO3X8mKaY1AgCAenP97NnTU2Z/9MoN/iVJgfR+l35k9LmQlLEEIUA5LF26NHXrrbcudveXmdnLJM2v0qKWzKzX3X8v6Q9RFPVq+1/7mjTt7e0vCILgqnH9IAXBc/r6+gZonQAm2uzZs5umTp26RyqV2l3SHmaWljTD3RslTZW0i5k1mdl0d0+Z2a5xHKfNrMXMmuM4nmJm0yQ1PMnhd32Kr50iqXk7ijks6eGn+G9Dkh79l3834u5bzeyx//aImW1z961j/22LmZXMbJO7lyRtdvdiKpUadPcH3P0BSf+IougRWghQeb3z5n1W7mdNzIjKXt6xevVviDpIAKDmB/3r169/oZmdLOklkvZI4Gnc6e4XSbqwUCj0VHsyIAzDv0g6chwfLURRFNJKMRn3hdWrV09/7P+nUqkZDQ0N//bKSjqd3rR169YnXG+NjY1boygaIYrVO6ifOXPmQZJmuft+7r7X2OB+97H7/x76v5lY04jYU3pU0gOP/TGz+8eSAw+Y2X3uflscx7c1Nzfftnz58kcJF7D98vPn7xPH8Xo9bi2pCru2Y82ao4g8SACgJrW3t2eDIHiDpJMlPauGTu12d/+lmf0oiqLV1Va4TCbzfDMb1zv97v6uQqHwTVordtaTLNS5/9h1P9PddzWzmRp9IjtT0vQyfKVL2qT/ewK7RdI2SfdL2mhmd0vaGMfx3alU6p44jtdGUbSZmiqvRYsWzUmlUjlJ7WPrt8yTtC/9hgn3dzNb5e4r3L3f3a/p7++/n7AAT6937tyzZDahq/O72XM7V69eTvRBAgA1IQzDGZLeJOk0jS7eV+uuNbPvNzQ0LKuWJzDb8fR/aHh4eN9V7EuLcWpra2tsbm5udfdDzaxNo6/wtEk6WNs3pXqy3GpmK8YGSSuKxWLPypUr76Nmt08ul5sVx/EZGp3RdQgRqUqxpLy7f9/MfsyMGeApEgCtrTerwu/+P4mLO9asOZHogwQAEq29vf2wVCp1uru/TvU5pXOzu/8kjuOvr1ix4pbJKkQmk3m1mV08zo//LIqiN9B68RSCXC4339073X2xpMPHOkm1tChsbGY97n5ZEAS/YS2Mcd1jTjWzb0tqJBqJEUVR1CEWHgOeOPifOzcns95J+OpSKp2eFw4MrKMWUM3YBQBPxsIwPF7SmRpbUb+OzTCzd6VSqdPDMPyNmX01n893T2QBlixZ0jI0NPS18X7e3X9IE8bjB/zZbDbr7sdKOkJSZxzHM2r9nMeSG4vjOP5sGIa3SvppHMff6e/vv5sm8SQ3fbO5DP4TZ+bSpUtt2bJlRAJ4oldN0vemSsXi+ySdThWgqn/zCQEe09XVld6yZcvJZvZBSQuIyFMquPuXp0+f/svu7u5ipb8sm81+xd3/c5wfXx9F0RwlaGcDlF8ul9s7juNjJR0r6YVK5gKdlTDi7hcHQXBOPp+/jnD8n6VLl6Zuu+2297j7J8UCfklwaRzH/4/1AIB/N0nT/x8zFDc0HHT4jTfeS02ABACq1tj7v2+V9AFJBxGRcdtgZl9y9x9WalunMAwzknolpcZ1QZt9JJ/Pf5qqqT+dnZ37l0qlpe5+kqRO7u/PqCDpf6IoulQkzB5/z5lhZm9097dLeg4RqSrb3P0SM/tCFEUFwgH8u+Vz5sxPBcFNk1kGN/tE5+rVH6c2QAIAVWdsG783mdnHGPjvlPslfX14ePib5Vx4r6urq3lwcDCv0cXYxqNULBaffcMNN/ydKqkPuVxub3c/cWzQv0RSQFS2W4+7f7hQKFxNKJ6oo6NjbqlUerm7v9TMlojXBifDsKSrJF1YKpUuXbFixSZCAjy13tbW/5H0kUkuxoNNTU0HHrZy5cPUCEgAoGrqPZPJvNTMPiVpIeEom62SfhgEwRf7+vru3NmDhWH4VUlnbMdf+W0URS+lGmpekMvlnh/H8ds0+p4jg7LyuE7SWVEU/ZVQ/LuFCxdObWhoaJe0xN2PMbMjlIwdIpLoVjO7yt2vknQl21wC25UAWCtpzqQXxP2dHWvXfosaAQkATLpMJvMyM/sfSYcRjYoZdvefBkHwv/l8fs2OHKC9vf0FQRD8cXuuUXd/daFQuITw16ZcLrd3qVT6DzP7f2LGTsW6bJJ+HsfxB1ks8OktXrx4ytDQ0HODIHiBpBdLWkRUdtgdkq6RdE0cx939/f23ExJg+10/f/7hQRwvr5LirN+wZk3rSVKJmgEJAEzWwP/wIAi+PLYyNiZGbGa/lvT5fD4/7u1oFixYsGtjY+NKSftvx3fdK+kA9oSuyWs3HFuY81WSGojIhBiU9ElJX+OaGp9cLjcrjuOTJL1V0iFE5GmV3P2vkn4r6fJCoXAzIQF2Xl9r6/ddeksVDbKW5tasuYiaAQkATHSnbG93/4S7v1W8HzyZrnP3zxcKhcv1DAuOZTKZC8zs5O26kM2+kM/nP0iYa0cYhkdodCvOl3CvnjS3mNkZ+Xz+d4Ri3HhF5andJelncRyfy1N+oLz+2tra0ij9XVJLFRWrr2PNmg5qByQAMCHa2toam5qazjCzj0iaTkSqRr+7f/6QQw65aNmyZf82LSybzb7W3X++A8edH0XRasKbbGMLc54w9sQ/JCJV46I4js/gtYDtE4bhgRpdx+QdkqbUcSjuNrMP5fP5n0qKaRlA+fW2tr5DUvW9cx/Hz+u45Za/UEMgAYCKymazL3b3r0hqJRpVa52ZfXHatGnndXd3D0mj27gVi8WVknbdzmNdF0XREYQ08dftK9z90xr/rg+YWJvM7P35fP5HYtvA7dLe3r5vEAQf1+jU3HqaieaSvj40NPSRgYGBrbQEoIIJgHnzCnJvr767gF/esXbty6ghkABApTpZzw6C4BxJrASfHPdI+mqpVPpOOp2+yN1fsP2/Lf4fhULhR4QymXK53PPc/bOsz5EYfyyVSm9bsWLFBkKxfcIw7JT0A9VHkqvo7qcWCoWfUvNAZeXnzOmMg+D6Ki2ex6XScw5ft+4magrVgnfCa6QewzB8dxAENzL4T5y9JX0ulUpt3JHBv6QtxWLxQsKYyIH/omw2+7s4jrsZ/CfKC1Op1IpsNvtaQrF9oijqkdQh6bw6ON23MvgHJkYcBO+p4uKZpVLvp5ZQVY2SECRbGIbzJH1f0hKiUZe+F0XR2whDoq7ZPSR9RvU3HboWndfc3Pzu6667bpBQbF/fIwzDr0l6d42e37eiKHon1QxUXn7+/H3iON4gqbGKi7ktLc3KrFnDOjKoCnQ+E6qrqysdhuGHJPUz+K9rPyAEybB06dJUGIbvkLRG0v/j/lsTThkaGorCMFxAKLaLz5o1671mlq/Bc7tzaGjoTKoYmBhxHL+jygf/ktRUNHs3tYVqwQyABMrlcoviOP6hpHaiUddujKKIgUcyrtnnxnH8DUkZolGTHh5bi4PXcbbD2IK1V9TYaZ0RRdHXqV2g8m6ZPbvpoSC4XWbPSkBxtwQjIwdmb711MzWHycYTqITVVxiGZ8Vx3MvgH+7O0/8qt2jRoplhGH4/juO/MvivaVPN7BeZTObzS5cuTRGO8cnn83+QdFcNndIDIyMj3JeBCfJQOv3ahAz+JWm6p9P/Qa2BBADG7bDDDtsvDMM/SvqspAYiUve2mRkLTFWxMAxfkkqlbtTou/7Mtqp9ZmYfvPXWWy8Ow3AXwjEusbsvq6HzOXflypUPU63ABHFP1Fobbva+fBjShwcJADyzbDb7inQ6fYOk5xMNjLk0iqJ/EIbqs2jRopnZbPY7ki6XtB8RqTuvkHTNwoUL9yIU43Ih5wJge/XMnXukpGzCir1/vHXrSdQeSADgKS1evHhKGIbfdPdfS9qdiOAxZvZ9olB9wjB8ZSqVutnd2ZmhvnU0NDT8taOj42BC8fQKhUKPpAdq4FTujKJoFTUKTFg/6IxEllv6oDMrECQA8GSy2exzhoeH+ySdTjTwL9bn8/mrCEP1aGtrmxaG4Y8kXSJpbyICSXNKpdKfFy1aNIdQPC03s78l/iRqbzFDoGrl29oO1Ohsq+TdK6SF+fnzj6EWQQIA/zr4P9ndr5fURjTwr8zsu6O/IagG7e3t2ebm5oKkNxMN/IsDUqlUdxiG8wjF0w6er6uB+/LvqUlggu4ZxeI7JaUTW/5S6QPUIkgAQJLU1dWVDsPwi+5+gaSpRARPYnh4ePjHhKE67p/ZbPaDQRD8TRJPefFU9pVEEuDpJT4BEARBRDUClZcPw118dHHd5DJ7Yd/s2ezmhUmTJgTVob29fc/BwcFfSjq6Sop0n5mtd/d73f1BM3tQ0oOS4rH/PuTujwZBMFXSLu7eImmGpOljHd69xv7sQe2Wj7v/auXKlfcRiUm/XvdNpVLnu/sLiAbG4VmSrszlckv6+vruJBxP1NLSkh8cHCxJSuoWig9Qr8AE9YMefviNqoF1sTyVer+kN1CjmAwsQlEFcrlcLo7jiyUdMAlfv01Sv6Red+9NpVIDjY2N66+77rrBchx88eLFU4aGhg4OguBgdz/IzOa4e5uZtUnah9rfzgvW7Oh8Pt9NJCb1ej0mjuOfS9qTaGA7rY7j+Kj+/v77CcUThWG4WlJrQot/TRRF7NIDTIC+1tYbXFpYA6dSTAfB7MzNN99OrWKiMQNgkmUymVPjOP6WpOYJ/Nobzex37v67oaGh6wYGBoYr9UXLly9/VNJNY3+eYMGCBbs2NTUd5u6dkh77sy+t4qkHD/l8/s+EYdJYJpP5UBzHn1Ryn1Rics1LpVJXhGH4vCiKHiEcj7u4zAbcvTWhZb+BGgQmYPA/f/4LPY4X1sjppEfcz5D0PmoWJADqqL8ThuGnJX1ogr7vNjM738zO7+vru7UaArBq1aqHJHWP/ZEk5XK5A9y9090Pl9QhKZS0C82Fxf8mUxiGMySdp+pddfgRSRvc/XYzu1/SJkmbzGxTHMcPP0lbatLoOiMzzWyau++p0eTbPmP/nEKtV4a7Z8fa0klcz0+Iy4CkVye0+DdSg8AEiOP/qql+nftb+w866JPtGzZsonJBAqDGzZ49u2nGjBk/lPS6yvep/DdBEHxl7Mlx1Xc2x96jvFPSRWMDrwYzW+Lux0o6VtIi1eerK0MNDQ3ncfVMyuB/gaSLVR0L/T0k6QZJKyWtCoLghjiOb4ui6B/l/JKFCxfu1dTUNL9UKs01s1Yza3P3ULz2UC4nhmH4iSiKPkYo/i8BYJbYW/sd1CBQWfl58xbE7i+ssdNqGWlsPE3S56hhTCTWAJhgCxYs2LWhoeESM3teBb+mKOlncRz/b39//021FL9cLrd3HMfHuvtxZnaM6mSRQXf/SaFQeBNX0MTKZrOvdffvafJ25bhP0l/M7M+SuvP5/IAmMZHX3t7+7FQqlZXU6e7P0+gMHV6H2MHLWtJroihaRij+mWhbmdDiz4+iaDW1CFRO37x557l77fWD3O99eHj4oKM3bBiilkECoAYtWrTooFQqdYWk+RX8mj+a2fvy+Xw9TEkMstls1t1fqtHptK01e6GaHZHP56/jKpq4kGcymf8xsw9Pwn1ytaRfS/p1FEW9quKZO2EYzjCz57n78yW9RNJsms522VIqlbIrVqy4pd4D0dbWNq25uXkwiWUfGhpqGRgY2EpzBirjb3Pn7pc2u1VSY40Oxt6SW7Pmh9Q0SADUmPb29mwQBL+RtHeFvuJOd39noVD4Tb3GOJfLLYrj+DWSXiPp4Bo6tRujKFrAVTQxFi5cODWdTp9nZidM4NfebWY/juP4p4VC4eYEX4NtcRy/XNIrJeX4jRmX/paWlud2d3fX/dOfMAzvU/JeM3koiqLdaMZA5fS1tn7epQ/W8Cmuya1Zc6j931bbAAmAGhj8HxUEweWSWir0FedJOiOKos1Ee7Rdh2HY4e6vMbOlkvZP9MmYvTufz59DtVZeZ2fn/sVi8VJJmQn4upKky939B9OnT/9dd3d3sZZi2dHRcXCpVHqDRvc5nkvrelrfiqLonfUehEwm02tmuYQVe2UURYfRhIHK+Gtra0vj6DobM2v5PN3sZZ2rV19OjYMEQA0Iw/BFki5RZVayH3T3UwqFwiVE+ikFmUxmiaQ3m9nJSt6OAg9L2o/kTuXlcrlcHMe/VuW3onxU0nnu/qVCobCuTu6DnZLeIun1YlePp+j72bH5fP6Pdf57eaGkpQkr9h+iKDqOJgxURt/cue91sy/Xwan+uWPNmi5qHBMyOCIElZPNZl8u6bIKdXjXxXF8OIP/ZxQXCoVrC4XCW0ql0n6S3iNpIDGjAvdfMvifkIHH0jiO/1zhwf+gpE+NjIwcFEXRO+pl8C9JURT1RFH0tlKptJ+ZvU/SWlrdE5i7f7+zs3N6XQfBbEMCi/0gzReojGu6utKx2Rl1crrPu37+/MOpdZAASLBMJnOSu18kqakCh7+2sbGxs9ZW+K+0FStWbIqi6BtRFD3H3Y+S9DNJ26r6Ag2C71BzFb9W/1PSLyRNqdBXDEv6RhzHh0RR9NGVK1feV8/XYD6f/0oURfPM7BWSemiB/3RgsVj8Uj0HII7j25NWZjMjAQBUyLS77z7RpGfXy/laHL+fWgcJgIQKw/AUM/u5pIYKdDb+NDIy8uLly5fT6dgJhULh2iiK3qDR9QE+IKkan8b25/P5Xmqrcr+1YRh+0cy+UsF74TJJh0ZR9J7+/v77Cfk/eT6fvyyKosPd/QVm9idCIkl6SyaTObJuL0izvyeuIbs/RLMFKnR9mb23ru6B0quvnz9/DjUPEgAJk8lk3izph6rM3th/mDZt2ktXrlz5MJEujyiK/hFF0RejKGrV6FaChSrqDPP0v0La2toawzD8maRKZdtvM7Pjoyg6KYqi9UT8qRUKhavz+fwxZna0mBFgZnZOV1dXui47++73JLDYJACACri+tfVoSR31Ni5LxfH7qH2QAEiQbDZ7gpl9v0JxLQwNDZ3IVlEVE0dRtCyKotDdj5PUPcnlGWxqavo51VJ+YRjOaG5u/p2k11bg8CVJX5T0nHw+/zuiPX75fL47iqLF7n6CpJvrOBQLBwcHT6/Lm3AcJy4B4O7MxgMqIGVWl9PhXTq1t61tb1oASAAkQCaTOdbdf67KPPm/Q9JLBwYGthLpyisUCn+Iouhod1/s7peN3o8nvFP58+uuu26Q2iiv9vb2fSX9RdLzK3D4u+I4fn4URR+IougRor1jTb9QKPyqpaVl4dhigVvqNA6fWLx4cd3tLT9z5sx7JuN+u1OdqCBgBgBQZn2tra3u/uI6Pf0mKxbfRSsACYAqF4bhEWb2K0mNFTj8NkmviqJoI5Ge8ETA9YVC4RVmttDMfqrRp7sT1alk+n+Z5XK5WUEQ/FXSwgoc/tJUKrWov7//L0R653V3dxfz+fxXJM3T6GKdXmchmDkyMnJWHdb7kKRNSSqzmW3iigXK7gN1PkY5/a+trS00A5AAqN7Bf0bS5arc3tZnRlFUINKTJ5/P35jP599oZoskXTEBX9mTz+f7iXz5tLe3HxrH8bWSDi7zoWNJZ0VR9Kre3t4HiHR5RVG0MYqiN8Rx/EJJG+rp3N39XYcddth+dVjtSXsNgNk+QBldd8ghe7n0+nqOgUu7Nrm/ldYAEgBVqKOjY66k30uaUaGvuCKKoq8T6epJBERR9BKNTh+PKtjxP4dol08YhpkgCP4sad8yH/phdz8xiqLPq/6eUE+o/v7+Pw0NDS2QdG4dxXpKKpX6aB1Wd9Jmu5EAAMqoMZ1+j6TmMh1uyILgRT4xD2/K2xc0e28+DBtoESABUF2D/91LpdJvJe1Zoa94WNI7GFhUnyiKromiKKfRDPWGMh/+3i1btiwjyuWRzWaXSLpa0h4VGKQcVSgULiHKE2NgYGBrFEWnu/sxku6qh3M2szePrVtRT/6RsPI+ytUJlEc+DHdx6bSyDaKl/87dfPMfZfYmSfclLBwHlAYHX0urAAmAKhGGYUOpVLpQ0uwKfs3/RFF0B9GuWh5F0c8lzXX3t5fxh+U769at20Z4yzL473L336n8M3TuieP4GF7NmRyFQuHqVCq1SKOvXtW6plQq9Z91VsWJWlU/CAK25QXKpPTww2+RtHuZDtd7+5o1X5KkztWrHzD3/0paPMzsv1wyWgZIAFSH76kyq4g/Zt3Q0NBXCHP1i6JopFAofHd4eHiepC9LGt6Jw43Ecczif+UZ/L/C3X8vqdyL6Nwh6Yj+/v6biPLk6e3tfSCKopdrdKGokVo+V3d/exiGM+qlbs0sadvqMQMAKINrurrS5v6+st06pXee9LjFm3Nr1/7EpGsSFpYF+blzX0zrAAmASRaG4YcknVLhr/nUwMDAMNFOjlWrVj0URdH7JR3q7hfvYMf3V/39/XcTzZ2TyWROcveLJDWV+dAbU6lUVxRF64lydYyNoyj6okaTsffV8HlOl1Q3i0G5e6IW0ywWiyQAgDKYunHjyZIOKst9RPpp55o1+X/997H0QSXs1Vo3+yCtAyQAJlE2mz1B0qcq/DXrW1pafka0kymKovWFQuFESYe7+9+2MwHAgo87f42+YmzLxnSZDz0o6aW9vb23EeWqu+b+mk6nQ1VwYc4q8A7VyTRQd0/SDICRKIpGuAqBsnh/mY7zaCqd/siT/YfONWvyLl2csLg8r2fevMU0D5AAmAS5XK7N3c+rdMzM7Avd3d1FIp74QUlPoVA4QtJJkm4cx18p9PX1/Y3I7bhMJnOcu/9SUrlXzS2a2Wt457969fT03DU0NNQl6dc1eoqHZDKZo+uiUxIESUoAsAMAUAZ9c+ceL2lRmQ73pezAwB1P09E+W1Ki+tkWx/9FKwEJgAm2cOHCqXEcXyhpaoW/amtTU9PPiXjN8CiKlkVRdJi7v0bSwNN89nOEa6cG/883s1+p/NP+JenMfD7/O6Jc3QYGBrbOmjXrRDP7bo0OjN9WJ1WZpFcAePoPlKOzFARnlulQ98Wl0hee7gOdq1evldmPEhUgs1cunzNnPi0FJAAmUENDwzclHToBX3XBddddN0jEa05cKBQujKJooZktldStJ76DdlMURRcTph2TzWaXmNllkqaUvVPiflkURSzImRDLli0r5fP5t6vyr2pNfAfZ/RX1sBhgqVR6KEHFZbYesJP65s7tkPtRZbpRfuTwdeu2PNPH0u4fV7Jm8AQps/+ktYAEwATJZDJvVuUX/ZMkmdl5RLy2EwH5fP6iKIqOdvc2M/uqpFVm9t+SYsKz/XK5XM7dr1BlZufc0dTUdKoStmAQpCiKPuru762xumuW9Mqav0nG8eYEFbfE1QbsdOf3Q2U6zk0P77vvuJ7sZ9asudukbyQsTqfk58/fhwaDsjQnQvC0g4u2OI57Je0yAV93bxRF+zIQBMYnk8ksNLNrJO1WgcN7HMcv7O/v/xORTq5sNvted/9y7fST7ff5fL6mt4Tq7OycXiwWk5IEuD2KooO40oAdk587d15sNqAyPJB0s+M6V6/+w3g/f+2CBbs2Dw+vd2nXxATM/bMda9d+mJaDncUMgKewePHiKWPv/e8yQV95GYN/YNyDhP3N7IoKDf5lZj9m8F8Dnct8/itmdmatnI+7HxOG4R61XGc9PT1blZyZG7wCAOzcoP2/yjEWMema7Rn8S9KRq1Y9FEufT1TAzN7x19bWFloOSABUyMjIyCc0Me/9P+YKog6Ma/A/vVgs/lbSfhX6insbGhpYcbd2kgD/K+m/a+R00u5+XI1XWSxpa0LKyisAwA7629y5+7n0xrIkEuL44zvy91LTpn1D0n0JCtvMRrO30XpAAqACstlsh7u/bwK/0uM4vo7IA08vDMOGYrF4oaSFlfoOMzt7+fLlDxLt2hFF0SclfasWzsXMXlwHVZaUxXCZAQDsoPToonaNO92Blq7ouOWWv+xQfz+KHnEpWa+Jub93oK2tkRYEEgBl1NbW1ujuP5CUmsCvXdff338/0Qee0dckHVvB46+dNm0ai3HWoFmzZr3H3S+rgVM5bunSpakary4SAEAN6z/ooJmSyvEk293sYztzgJHR5HCSth/d7+FS6XW0IpAAKKPm5uaPSHrORH6nmfUQeeDpZbPZsyW9o8LX4oe7u7vp1NegZcuWlaZMmfIGSTck/FR2W79+fa6W68rdtySkqLwCAOyAYnPz6ZKml+Fmccnhq1dHO3OII9asGZT01YTdJM90xnAgAVAe7e3th0k6axK+ejXRB55aGIavc/f/qfDXrMzn878i2rXruuuuG5R0gqRNif7hDoKjarmezGwwIeUkAQBsp1tmz25y93eV4VCxS58sR5niUunrJj2UoDDO65s375W0JpAAKE+n6puSGib6e919LdEHnnLwv0DS91ThbUvd/auqrX3j8SSiKFrv7m9UsnddOaLGq+mRhJRzhCsK2D4PplKnSirHfva/6Fy7tiwzug5ft25LbPb1hIXyI8527iABsHOy2eyJkpZMxnfHcUwCAHjywf8MSRer8ttx3jd9+vQLiHh9KBQKl7v7Z5NafndfUuO/30MJqQdmAADb4UIpZVI5FtkuWZme/j8mNTz8FSVpdph7e37+/GNoVSABsIPGFv6btM5gqVTaSC0A/8bGFuScMwEd+e91d3cPEfL6MX369I9L6k1o8Xdrb2+fV8PVs40EAFB7DmptPaEcv+km/Ti3Zs2acpYte+utm909WbvFxPGHaFUgAbCDpkyZ8k5JsyerD7Hbbrux5Rjwrz/G2ex/mtkJE9SR/zkRry9jiz2+TsnZc/4JUqnUYbVaN2Y2nIgOVBCwYCiwfQP3D5bhMCOx9OkKXdRfVnJ2IZFLR/fOm/dcWhZIAGynBQsW7OruZ09iEbaw6jjwRGEYdrr75ybo61b09/ffRNTrTxRF6yWdncSyu3vNJgDcPSkzAPjtBsapb+7cY1wKdz6LYN/tXLPmtkqUsXP16gdMOjdhN8wzaV0gAbCdGhsbz5S0+yQWYSvNEHjC4H8PScskNU7QV/6CqNd1EuAbkq5LWrnNrJZnACTldRxeAQDGO04tz9P/obT7ZypZzuFi8UtKzkKkkvSy/Lx5C2hhIAEwTp2dndMlnTb590QAj+v8nyPpgAm7CQbB5US9vvulQRC8K2mDOXd/Ts1WSEJmALANIDA+18+bF8rshWW4N3w/s2bN3ZUs65L16+9zs+8kqdsUMwsAJADGr1gsvk3SDBIAQHXIZDIvc/fXTOBX3t3X18f0/zrX19e3wsy+nbBi77d48eIpNVol2xJSTrYBBMYz2HAvx2J12zyOPz8R5S3F8ZckDScoxCdHbW2zaWkgAfAMwjBskPSeKigKe3gCGl2PwyY+636VSMJB0rZt2z4q6R8JKrINDQ0dXIt1kaA1AJgBADyDvtbWVkmvKsOhfnD4unV3TUSZn7t27d9N+kmCwpyKi8X309pAAuCZf7hP0gROM34aLTRDQGpqavqSpH0m+D7QTeQhSatWrXrI3f83SWU2s0NqsS7MjAQAUDv97bPKMN4YKZl9YYKL/gVJcWLiLJ1aaG3dlxYHEgBP38F4X5UUZXpXV1eapoh6Fobhi9z9zRP9valUqp/o43G/C9+UdE+CynsQCYBJ7ECxDSDwtHoPOeQAmb2uDFmEHy1evXrDRJY9t2bNGkmXJCjcTSPSf9LqQALgKWSz2edIylRLX+fBBx/cjaaIetXW1jZN0nc18a/DDD/yyCO8/49/iqLoEUmfTdBAee9arAd3H0pIOWOuGuBp7lGp1Ae08zv6jLjZ5ybpIv98ouItnd4zb97utDyQAHjyH+3XVFN5Ghsb96Ipol41Nzd/WNKzJ+GrbxoYGBimBvB4LS0t35V0X0J+y2rytyMpMwDE+iHAU+qZN293N/uPMgxqz+9cs+a2yTiHjrVr+yRdnaCwTzX302l9IAHw5E6ssvLMoimiHnV0dBws6b2TNMhYQw3gX3V3dw9pdEYKCYBJEsdxUhJzJACAp76Q3ydp6k4epVQKgkl9Ch+bfT5hkT9jYHRmJUAC4DG5XG6RpHlV1olj6w7Uaf8g/qyk5km67u6kBvBkisXit5WALd6CINizJjsmQTBEKwSS6/rZs6eb2c4/iXb/yeE333zLZJ7L4atXX2lSlKDw7/5IsfhWWiGeTt0tPhfH8UlVWKxDaIoTznK53KGlUum5ZrbE3Q81sz0k7abRnRnuk3SvpL+bWZ+k7mnTpl0/9nQQZZDL5RZN8vVIAgBP6oYbbvh7Npv9VbW9LvbvfWOvyac8cRxvM2OHXCCpgnT6nXKfuZOHKdlkvfv/7/faL8jsF0mJv0vvH2hr+1YbrzmCBMA/vbgKy7SQpjgxFi1aNCedTr/Z3U+J43i/xzqZT9LZ3Hvsz2Hufryk/x4cHBzKZDJXSvr+IYcccsWyZcvYAmrnOvkf18Qv/Pf4H3QSAHi69vkjM3tNlRdzai3GPilrAJgZrwAA/+Kagw5qlvu7y3CoC8ZW4p90G9auveig1tZbJM1JSDXsv7VYfKOkH9Ai8WTq6hWAxYsX71alg+0MWwFWOMCZzEvDMPxLKpVa4+4flrTfDhym2cxebmaX3XrrrXeEYfjJMAz3ILrbLwzDjKSXT3IxNlMTeCrTp0//k6p/McCaTAAEQbCNFggk0y7Nzf9P0j47eZhS4P7pajmnk0ZnI3wpSfVg0oculFK0SNR9AmDbtm3PrdJz3mXz5s1tNMfyy2azLw7DsMfMfiPpSJXvifO+kj4q6bYwDD9LImA7f5jMPqhJfPo/VoaHqQk8le7u7qKZLav2vnYtxr5UKiUiARDHMTMAgMfJh2GD3N9fhh/oZdm1a1dX07ltHRo6T9I9CaqOQw5qbT2BVom6TwCY2aIqLlsHzbF8wjDMZDKZ69z9CkmVjO00SWdJujUMw08uXLhwKtF/eosWLTrI3Sf9RykIgq3UBp6Ou1f7O581+RvO1HogmeKHH3697fy2vh5In6m2czt6w4YhuX8tYVXyYZ/khy2g81ANqvZd+yAIXkBzLMvAf0YYhl+X1Gtmz53Ar26R9NGGhoabM5nMa6iJp23r71EVrD8SxzELOuJpzZo1a7mkTVVcxJocKJMAAJLHpUDuZ5bhUJdnV69eVZX9l2LxXElbElQth+Xnzj2O1ol6TwBU7XZ77n5MHdZHWWWz2ddKulnSuzV57z0dYGa/yGQy3WEYLqBWnqirq6vZzN5cDWVJpVK8G4entWzZspKZXU0CAE+GRAXwf/Lz5r1K5dhmu0pW/n/Sfuatt26W+/eSVC8eBGfROlHvCYADq7hsu+dyuZAmuf3a29v3DMPwV+7+c+38wjPl6hg+T1IhDMPPdXV1NVNLowYHB18taddqKMvIyAgLb+KZO0/uV1Vx8WJqaHKbByEA/nmvLMdA8+qO1av/Vs3nGcfxVyWNJKhijsrPnXsELRR1mQAYW2V/t2ouY6lUOp4muX3CMHxlEAQ3SnpVFRYvLenMwcHB/jAMufmOdhBOraLiNFAjeCapVOpPVVy8mtzjmSfrQLJcP2/eiyRld/rad/9stZ/r4evW3SWzi5NUPyWzD9FKUZcJgJGRkSmq8oUwzOwkmuS4B/4zwjD8saRLJO1V5cWdJ+nPYRh+c8mSJS31WmednZ3PMrOjq6hIu3Al4Zn09vbeourdMpKFLAFM/mBidHvlndWXW7v2qiScbyx9MUn1Y9LxPa2tWVoq6i4BMDQ01JSAYh6ayWQW0iyfXjab7ZC0QtIpCbvWTh8aGrohl8s9rx7rrVgsvkpVtCdtKpXak6sJ4+DuvoIEAAD8u/ycOZ2Sdrpf4+6fSco5H756dSSzvyQsCcBaAKjLBMAWJeB9PTM7mWb51OEJw/B97v5XSQcl9BwOjuP46mw2+5XFixdPqbNR1AlVVp69uKQwrh/KIOiv0qI9XIvxLhaLSXkFgFcVUPdis4+UYXB6c8fatZclqkPq/qWEVdWr++bPfw4tFnWVABgYGBhW9U7jfLzXL126lNXJ/0VHR8fuYRheJulLSv6724G7/+fw8HB/GIad9VB/CxcunGpmR5EAQCI7uHG8skqLtpnaATBZrm9tXSizl5ThB/mzlrBFTbNr1vzGRneeSgrzOD6TVou6SgCMWZuAMh542223vYSm+bibbDa7pFQq9Ut6aY2dWqukv2Yymf+u9aRPY2PjUZIaq+qX0Gx/ri6Ms61sqMZyuft91A6AyRtR+lna+fW1btu6774XJO7cJY+lryes2K+9fv78ObRc1FsCIEpCIeM4Po2mOSoMw3e7+zWSDqjRU0yb2cdvvfXWa8IwPLBW69HdX1CFZeJHEON1R1V2QM3urclBRUJ2AWC3AtSzqK1tdpkWr/7C0d3dxSTGIDVt2vmS/pGkIqeYBYB6SwCYWZSQch4bhuEh9dwwFy9ePCWTyZyv0exqPWzXdqSk/kwmc1yNXnvPrcIykQDAuGzevPkuVef73vdSOwAmQ1wsnqWdXdjX/d7iww//OKkxyEbRI5K+naQyu/Smwvz5z6YFkwCopwTANUmpFzN7b702yo6OjoOHh4evM7M31tmp72Zml2cymQ+ryres3B5tbW2N7t5ehUU7oKurq5mfATyTdevWbavGwba730PtTOIAKI6ZAYC61HvIIQe4tNN9NDP70nPvuuvRJMdipFj8hqShBBW5oVQqvZ9WTAKgbvT19d0qaX0SyurubwnDcJ96a5BhGL6oVCr1SWqv02syZWafDsPwF7UyOG1qalogqRrPJdi6det8fgYwznvynVVYrNtrMdZMrQeq/H6YSn1QO7muj0kPbUvY0/Mns2T9+vtc+nmi6s/srb1tbXvTkkkA1JM/JqSczZLqKUNnYRh+SNIVknbn0tRJg4ODVy5evHi3xN9kgqCtiovXQVPDOFXdOgANDQ23US0AJtL1z3nOs8zsLTs9CHX/9hFr1gzWQkxS7l9QsrYFneLF4vtozSQA6oa7X5qg4r49DMM9ar1OlixZ0pLNZi+S9Bnt7PtkteXI4eHhvx522GH7Jfw8Wqv4fpCjmWE8qnDBvW09PT13UzOT2iaYqYD6GziMjPyXpCk7e/8KUqlv1EpMsmvXrpZ0ZcKK/Y6eefN44EYCoG5+sP8k6aGEFHeapI/Wcn1ks9nWoaGhHnd/NZfjk5qfTqf/nOQdAtx9bhUXjwQAxmtLlZXndiVs32wG1kCy/a2tbTdJb9/pfoH0s+zNN2+spdh4HCcqoWHSNJPeQ6smAVAXoigakfSbBBX5tEwmM7sW6yIMw1e6e68k3sN+eodI+nN7e3tSV23dv4rL1rZo0aKZNDEkMAGwliqZ/D4/IUA9SReL/ympZWevG0ulvlxrsem45ZYrEndfdj+j/6CD6AORAKgPZvaLBBW30cw+W2vtLpPJfErSryRN5zIcl4OCILhy4cKFeyWw7NW8mGUqCIKjaV545n6SV1sC4EZqBcBEuX727OkmvasMffArOm66aaDmxhaSm3vSFjWcUWxuPp3WTQKgLhx88MFXSrorQUU+IQzDI2oh9osWLZqZyWQuN7OzVUNb3U2QuQ0NDb/r7OxMWtKkqleaNbNjaFp4xh/LIKiqBIC712wCgFcAgOqTSqff5dKuZTjUF2s1RtvMvq/qmy32TL8l7xtoa5tGCycBUPOWLVtWcvfzktQfkvTttra2xiTHPZPJzE+lUj1m9mIuvR0PY7FYvGDp0qWJWCxx9uzZTZKaqryYJAAwHiQAJkgcx0npm5CoQF3Ih+Eu7n5GOQ6VW726u1bjNLarwc8SVuzdHxkZ+X+0chIAdcHMfpSwH++2pqam/0rw4P9lZna9pLlcdjvt+FtvvfVzSSjolClTdklAMeeGYXgIzQrPMCitpu2qRgYHB1fXcLgbktKV4MpAPSgNDp4maedfQXT/Ys3HanQxwEQlB93sg3/bf/8ptHQSADUviqL1krqTVGYz+0gCFwS0bDZ7tpn9WrzvX07/lc1mT672QqbT6UT8oLALBcbRRopVVJyV69at21bDsU7KbDcSAKh5t8ye3WRm5dgzfsPD++57ca3Ha/Ett9ys0R3HkmTv9NSpb6a1kwColw7dDxNW5Clm9t2k1NvChQunhmF4obt/qt7bWoXa77dzudysai5jY2NjIurdzE6kReHppNPpahrs9db4va0xIeUkAYCa91Aq9R+S9ivDob5ydHd3sR5iZu7fSGCxzxpI+KvGIAEwLk1NTRdL2pywYh8dhuH7qr2QHR0dBzc0NPxNEgOrypkRx/EFXV1d6WotYBzHSfmxz4VheCBNCkkY7I1tn1qz0ul0IjqhZkZiGzUtH4YNkj6w09eK9NDUdPqH9RK37Jo1l0u6NWHFPvDhUul1tHoSADVv+fLlj0q6IIFF/1R7e/th1Vq4TCbz/FKp1CdpIZdYxXVs3bq1ahNCxWKxlJA4mqSlNCckIQEgqafGY80rAEAViB9++PWSDt7p47if2zYwsLVe4mZSLLNzE3jz/dCFUoqWTwKg9i9Ss28qeSv5NgVB8LOurq7maitYGIbvMbM/SNqdy2vCOssfr9a1IYIgeDhBoTyV1oQEeKBQKKyp8XNkEUBgkl0opeR+VhkOVfQ4Prfe4tcwNPR9SQ8nrNhzD547l4chJABqXz6fv1HSlQksetvWrVu/Vi2FmT17dlMYhj+S9DVJEzkl/T5373P3q9z9Ko0+GbuvzprxFDP7WjUWLIqiRyQNJeWaCsOwk58FPJlqmQFgZn+WFNd4rFkDAJhkB82de6Kk1p2+TqRfH75u3V31Fr/2DRs2KYGzjN3sw05ys+alCYEk6cuSjk1gJ+lt2Wy2J5/PT+p7Ve3t7fsGQfArSRMxeLpT0uXufp27/7W/v//2J/tQGIb7mNnx7n6SpOfXQVs/PpfLHdPX13dVFZbtIUn7JCGIZvYfqvHp1dgxQRCk3Ktistg1tR5rd280syS0CTrJqM1rULL86ECwHL+r59Tt70Ycfz8OgrcmrNgL8q2tL9eaNZdyJdRw2yQEUhRFf5S0KqEdpW9mMplwsr4/k8kcHgRBX4UH/yPufrGZHR9F0UFRFJ1eKBR+9lSD/7E63ZjP538QRdGxkvZx909Lqun3z+I4/oKqM2t7b4Kup5Pb2tqmcVfEk1xfLdVQDjO7pg7CzQwAYBLlW1tf7uVYx8nsptzq1X+p1zhmb7mlx6SViRtbSB9jFgAJgHrg7v7lhJa92cwu7ujomPB37jOZzKlm1i1p3wp9xZC7fyWdTh9QKBROzOfzv9MOTH2NougfhULhI+l0erakb0iq1W1oFmWz2ZdV4cV1R4JiOL25uZm1APCkbaMKynBvX1/fTTXfMQkCFgEEJncAeHaZfv+/YclbZ6usYvfzEljsTO+8eS/iSiABUPO2bdv2c0kbE1r8Z5dKpUvaJmj/zq6urnQYhp8zsx9KaqrAV4y4+09SqdShhULhfT09PWV5gtzT03NvFEXvCYLguZJqchEtdz+72soUBMGdCQvje5cuXcoquHjiSM9sRhUU4/eqg840uwAAk+f60YFfrgyH2jItnf5pvcezIY5/Imk4cb95VdifBAmAshsYGBh29yS/p3Rkc3PzVyr9JWEY7jE4OHilpDMr1PH7naT5hULhTb29vbdV4jv6+vr6RkZGQknfrsHOdEcYhkdUWWc+aXvhHnzbbbe9lLsi/sX0KriWflcvfeYkFJJXAFCTAwP3j5TpUD+up63/nkpm3br7Jf0mieOKvnnzurgiSADUvKampm8reVt2PN7pYRieVrGbWCazUFKvpKMrcPiN7v6aQqFwfBRF6ysdqJUrVz4cRdE7zOz1Ss4q9eP1/6qskzyQwBi+jzsiqiwBUBwZGbmyTmKdiBkALAKIWtM7Z85Rko4sx09/4H4uER1l7j9IZMHdP0btkQCoecuXL39Q0g8Sfhpfz2azXeU+aBiGS83sb5IOLvOhY0nf0uhT/wsnOlj5fP6COI6fr9raOnDpokWLZlZLYRoaGhKXAHD3ozKZzJEC/s+kvgJgZn9btWrVQyQAquo+QQIAtSWV+miZLo6rsmvXriago7Jr1/5B0h1JK7dLR48lhUACoLbFcfx5JfuJcIO7L8vlcrPK1UYymcynJP1S0tQyl/X2OI6PjqLonVEUbZ6sgPX39y8vlUqdkm6skWY8JZVKvaJaCtPT03OXpAeTFkQz+zh3RDyuPew+md/v7r+pl1gnaA0A+lCoGb3z5j1X7seU6X75XSL6uHiMPuw6P5GFL1dSCPx4VbP+/v67JSX9xrVHHMeXh2G4U0+slixZ0hKG4cVmdrbKv9jRsuHh4fb+/v6q2B5mxYoVG0ql0pGSrq+RwcoJVVak5QkM4/Pb29vJfOOxQen+k/n1pVLporrpmCRnFwCglm5y5Rrobdq6bdvlBPRfxtHp9HkJbRfH9Mybt5gaJAFQDz4n6dGEn8N8M/vJjtZxR0fH3KGhoR5JryxzuR6UdFIURSdV23TWFStWbEqn08dKurYGBisvDMNwlyoqUiJjmkqleP8Nj9lvEq/n/IoVKzbUUawTsQigmdGHQk24ft68UNKxZbkupIuP3rBhiKg+UTgwsE4JnWlqrAVAAqAeRFG00cy+UwODwJeFYfjp7f172Wz2xaVSqUfS/DKX58/FYnFhFEXLqjVmPT09WyQdJynpi201j213WC0d5b8m9Bp6QTabfSF3xfrW1dWVlrT3JBZhWT3FOymvALg7fSjUhJT0CZVrpqf7xUT0Ke8ZlyW06Mf1zZ3bQQ2SAKh5ZvZ5JX8WgCSdGYbh68Z72mEYnjn2runMct7zJH12+vTpx9xwww1/r/aARVH0yObNm19uZr9PcsWXSqWuainLpk2b8kro2hru/sWlS5emuCvWr4cffnif0T7y5DTBdDp9UZ2FPBEJADPjvoDEu37evNDdjy/T4eL08PByovoU9wzp6uSOGANmAZAAqH19fX33SKqFLUxM0g9yuVzu6T4UhuEumUzm5xp9/aGcnZoHzOylURR9uLu7u5iUoK1bt25bQ0PDq5Xgm7WZLa6meLp7T0JDufC22257M3fF+lUsFifz/f+/9fb23kYCoPrEcZzm6kDiO4mj7/6Xa50nH25s/EDf/PkvvO6QQ/Yiuv+nMHv2nm52eFLL7+7Hj70qghrAj9fTBSed/t9isXiapF0SfirNcRz/ur29PTe2yOG/Dv4PlPRrM2sv8/deL+k1+Xz+jiQGbfny5Y8uXLjw5Q0NDb+XdEQCT+GwKivPXyU9L6E/fP/T1tb2y4GBga3cGetPEAT7T2LbO78OQ56UNQDoQyHReufMWSTp5WU8ZMrMPuxx/OGGdFq9ra2DJt3l0kZJd0t60M0eMvcHzf0hBcEjiuPN7j4cp1IPe6n0SNpsm0lbUsPDxfYNGzZVXX9ACv66YMEMSZoSxy0jw8NT00Gwm5vt5tJuQRzvJrPdXdpN0m4y20fu84vSngnfN9TGkkWv5MohAVDTenp67g3D8FxJ76+B09nXzH69ePHi5y1fvvyfrzaMrXJ+kaQ9y9xpPWfbtm3vHxgYGE5y0FauXPlwZ2fnS4rF4pWSOhNW/N0PO+yw/arltYsgCK5y97MT2hT2aW5u/rCkD3NnrD/uPsdsUrpuQ3EcX1iHIZ+SkHLyCgCSPqQr59P/J9Pio+tJ/XNNKXMfva+aSe6SmWSmwF0KAvnoIFtxU5N6W1slacSkrT76r5+QEDBpm6RH/uU7t7hZaZw3911ManqSQX5aUsvY/51hUuBSs6QpfZKahke7trGk1FiZ5S577Lye+B2101ykl/fOmbOo45ZbVnDxkACodZ+T9BaV9534SbrPW254ePj7kt4gycMwPF3SV1Xepy3bzOz0KIp+WCsNoKenZ8uCBQte3NjYeJ3KvDBipTU2Ns6WVBUJgIMPPvjaW2+99T5JSZ0W+P729vaf9vf338Rtsb4EQTDfJ6ETZ2aXrlixYlO9xdvdp01SwmV764c+FBKr99BD21QqvTIBRW1wadex/73bvwzUn+omMv77TZk+UydMQfARSScSioT3awjB04ui6B+SPl1Dp/S6MAw/EobhdyV9s8yD/3viOD46n8//sNbawapVqx5KpVIvkXRvkspdKpUOqJayLFu2rCTp0gQ3g0Yz+5Yq+7QE1TkgnazE33n1GG8zm5aEcrIGABKtVPoY4wDsgFdf39q6kDCQAKh5mzdv/oakW2volD4p6f+VuYPcl06nc/39/TW7+mtvb+9tQRC8TNLDCepI719N5fGEbw9kZs/LZrNv5K5YX+NRSfMm4Xs35PP5P9RpzKcl5H5AAgCJtHzOnPniKS528NYXSGcTBhIANW9sBfMPEYmn7AT9dPr06Uf19PTcVevn2tfX16exVygSUuSZVdZWrpb0UJLbgLt/sb29fU+u/PrQ3t5+oKSpk/DV39XoK6b1aGpCyskaAEhm53/03X/GANhRJ/bNn/8cwkACoOYVCoULNbqKOf5PSdJZ+Xz+jd3d3UP1ctJRFP1a0pcTUtyWKovdiKTfJLwJ7BkEwfe4/OuDmU3G9P/hdDr9wzoOe0sSCunuJACQONfPnz/HzE4iEtiZ8aPHMQ9GSQDUB3f/gFgL5DEPuftLoij6fJ2e/4ckJWFf+6p7kmZmF9dA/b8im82ezG2gLhIAE/6Uw91/1dPTc28dh31qQtpGA1cIEndPi+OPitkr2Hmvyc+dO48wkACoeYVC4Xp3/yWR0M2pVOrwQqFQr++nKoqikVKpdLL+ZUuaauPupWor06ZNm/4g6R9JbwPufk4ul9ub20HN65iEgeU36zXYS5cuTYltAIGKyM+efYhJryUSKMf9r2TG1sgkAOpDPDrlZaiOQ3B5Op0+vLe3d229t4UVK1ZscPf3VXMZbbx74U6gdevWbVNtrG6+exzH3xO7AtS6zon8Mnfvi6Kobl83u+OOO6YmqLgsAohk9WFHt3Cj3aI8fUzpdT3z5s0lEiQA6mLQZ2ZfrsNTd0mfjaLoFT09PVtoCaMKhcKP3f3PVVzEqkxWpVKp76o2Xqd5aRiG7+JKqE1hGO4j6cAJ/VEOgi/Xc8yHh4enJai4DKSQnP7K/PnPltnriQTK2Z0z1gIgAVAvGhoaPiVpXR2d8iPu/tooij6s+l2V+qm4mZ0maVtVFs79gWos19gMku4aaQNfyGaz7VwKNalzgr/vjmnTpl1U57+vSUoA8AoAEqMYxx+RxLoVKC+zN14/f/4cAkECoOYtX7780SAI3lEnp3t3HMfPKxQKrH3wFKIoWi3pC1V5gQfBA9UaNzP7bo00gSZ3/0VbW9s0rgYSADvp693d3cV6DnipVGIGAFBm+ba2AyW9iUigAlJBHH+QMCQLP147qK+v76pMJvMTM3tjLY9ti8XiK2644Ya/U+PP6IuSTpe0W5WVa2O1BmzTpk2XzJgx435Je9ZA/c9tamr6Fh0sEgA74cF0Ol3320vGcTwtCBLzbIKnqUgELxY/JKmxDIcqmbSCiFawrqTpkpL2RP2U5fPmfXrx6tUbqEESALUfvHT6vaVS6bgaGcA88QbkfrGZvemGG254hJp+ZlEUbQ7D8IuSPlNN5TKz9dUas3Xr1m0Lw/A8Sf9VC23AzN4YhuHyKIrO5YpIvq6urubBwcHDJ/Arv8r6KlIqlZrmnpjlQRq5UlDteg855ACXTi3T4S7KrVnDFrgV9NfW1pZG6S6NJgKSoiFwP0vSadRgMvAKwM7cVHt7H3D3Wpv24pL+p1AoLI2iiMH/dhgZGfm6pKrau7uxsXF9NccsCIJzJdXSlOevZrPZJVwNyTc4OHiUJm47uk2Svk7UJXdP0i4ATdQYql46fVbZ2qr7lwhoZR2xZs2gpJ8lrdwmnTr2qglIANS+QqFwnqRrauR0hszs9VEUfUy1sUL7hFq5cuXDZvaNKirSXdddd91gNcesr6/vVkkX1lAzaHT3Ze3t7ftyRSTeCyfwu74eRdFmQi65e5LWAGAGAKpa7yGHHCDpLWU63J871q7tI6qVF5dK5ySwH94YF4tnUXskAOqmv5JKpU5TlW63th3ukdSVz+cvoEp3nJn9QNJwlZSlPxE/dHH8v6qthNM+qVTqora2NgYHJADGY8vw8PBXCfc/71tJSgA0SDJqDVXbQU2nz1aZnv672ReJ6MQ4fN26myRdncCiv2X5vHkHUYMkAOrC2JZmZyf4FFYEQdARRVEPtblz+vr67jGzS6qkOIUkxKy/v/8GSb+rqU6X++Lm5ubvcEUkU2dn57MkLZygtvKNVatWPUTU/ylJrwDY7NmzSfShKuXb2g608r37v6Zj9eoriOqE9iPOSWCxG9PuZ1J7JADqRhRFX1Uys3W/HhkZOaKvr+9OarFsN+2qGPjFcXx9UmIWx/Hna7ApvDkMw49wRSTPyMjICzUxT3YfMLMvEPEn3D8TtZ3ms571LBIAqM7f1VLpIyrTayru/kWTYqI6cW5fu/Y3km5L3D2cWQAkAOrtXlssFt8k6cEElfnrURSdsHLlyoepvvKJoujPGn2lYjIVp0yZcl1SYtbf3/8XSdfVYHP4ZCaTeQNXRcJ+GIPgVRM02P0U7/4/UcJeAdDIyAgJAFSdwvz5z5b7KWU63H2PDA//lKhOrJOkkktJnEn42I4AIAFQH2644Ya/KxlbYGwzszdFUXSGyOhWQuzukzpVzsz6qn0BwCcZDNXiLAAzs++HYXgEl0UytLW1TXP34ybgqzZs2bKFLSP/XdISAOwEgKpTiuOPqlxP/6WvH71hwxBRnXjDjY3flZS4HblM+o+e1taDqUESAHUjiqJlqu7tnB6M4/hF+Xz+J9RWBS+sILhskgfTv09azAqFwuWSVtVgc2iSdEkYhvO4MhJQWU1NL5G0ywRcox9dt27dNiL+Lx3HhM0AcHdmAKC6fkvnz3+2S28s0+Eekdm3ierkOHJ0fZhfJrDoDWb2IWqQBEBdGRoa+oCkanz/+lYze+7YdGtU0PDw8FWaxP3t4zi+NIFhc0kfq9EmsYekK8MwZI/c6rd0Ar5jRaFQ+DmhftIBdaISAOl0mhkAVSgMwz3CMHxPGIafyWazXfV07sU4/m+V6em/uf+gc/XqB2hRkyiOv57Icru/mVkAJADqysDAwHAQBCdJuq+KitUzMjKyOJ/Pr6GGKm9sXYWbJunrN4ytrJ84URRdKqlWd6M4QNKVCxcu3IsrpDq1tbVNM7MXV/p7zOy94vWrpzI9WX1cZgBU4eD/lZLWS/qapA+5+9VhGJ5RD+eenz37EJXv6X/J4vhrtKjJ1XHLLSsk/S2BRW8w6cPUIAmAutLX13enu58oaWSyy2Jmv2psbDx65cqV91EzExr3aJI6pBcmOGzu7rX8g9Ha0NDwu87OzulcIdVnypQpL1OFp/+7+y/y+Xw30X5KM5JU2DiOmQFQRTKZzEslLdMTE0km6fP1kHyNg+CjktJl6cNIv8quW7eeVlUFHSOzcxJa9FP65s6dRQ2SAKgrhULhWkmTnXX+3sEHH3zS8uXLH6VGJnwkm5+UizoIfpLw6+ZqSX+s5T5qqVT6TRiGu3CVVN01+9YKf8XWhoaGDxDp2kkApNNpZgBUiTAM9zGz859iANyUTqdfUcvnH7W1zZbZ68t1vFIQfJlWVR1SU6deJOnvCSx6Q2x2NjVIAqDuRFF0rqTvTVJn9n+jKHr7smXLStTEpFg3GePnfD5/Yw0MxD6kGp4i7e5HSSIJUEUWLVo0R9LRFf6aT/f09NxFtJ/WzCQVlhkAVeWzknZ9qv9oZm21fPKlYvG/Vaan/zL7y+E333w9Tao6ZKNoxM2+n8Sym3RKz7x5c6lFEgB1Z2ho6F3uPpHv77ikDxUKhTPH/jcm46ZndvckfO33ayF2hUIhkvTDGm8izzezyxYvXjyFq2XypVKpt432VSrmls2bN3+FSD9jn6QlYWUmiVcFcrncLEnP9PR7aq2e//Xz58+RdHLZ+i/uX6JVVdlvlNl3JA0nsujuZ1GDJADqzsDAwHAqlTpBEzN9xyW9K4qizxH5Sb64gmDjBH/llubm5p/WSvxGRkbOlrSpltuIu79geHj4UpIAk2v27NlNkk6pZFXHcfwOtv17emEYtiSwX0ICoArEcXyqnvnp98M129+I44+rXE//pbXZNWsup1VVl+zNN29094sTWvw3MQuABEBd6uvru8fMXi1pqMJf9YEoir5FxCdfb2/vg5Im8vWL86677rrBWonfypUr7zOzT9ZBU3nh8PDwr7u6upq5aibHzJkzXy1pz4qN/t1/1N/f/yci/YxmJLDMJAAmn+mZn/5L0p21ePJjA6vXlC2YZl8ydimpzoYeBEldDDBlccyOACQA6lM+n++VdFrFbgxmn4iiiGlb1cNV2SnFj1cqlUrfqLkAup+jydtOcSK9aOvWrZeQBJgccRy/t4KHv2dkZOS/iDIJAFRGLpfLShrPfuOFmhwUSp+QlCrT4e4b2br1J7Sq6tSxevXfJOWT2VDtDX2tra3UIgmAuhRF0XmSvl6BQ38jn89/nAjX5zXm7stWrFhxSw1eLyNBEJyuOljLwt2PGxwcvKytrW0al83ECcPwRWaWq1yfx969atWqh4g0CQBU7N65dBwfKw0NDfXV2rlfP3v2oXI/qYzB/OZz77qLXaOqW1Jn+aZiiR0BSADUr5aWlvdLurqMP35/k/R+Iltdli5dmpqgr3Iz+0ytxrGvr+/PZva9Omk2L2xubr6qo6Njd66giWGV3aLoknw+fxFRJgGAyl3C7n7iOD43MDAwsLXmOvGp1H+XsS+/LW5s/A5NqrrtWir9XNJ9ibxYpdcxC4AEQN3q7u4uavR9rQ1lONyDZvbaKIpGiGx1Wbdu3W4TNIC5JIqiVbUcS3f/oKS766TpdJZKpT8fdthh+3EVVVZ7e/tRY1syVsL96XT6HUR5u67zmSQAsJ3XcKjxTf/vrbVz7z300DZJJ5breCb99PAbb7yXVlXd5qxbt82kHyW0+CmXPkItkgCoWy0tLZskPVKGQ707iqI7iGhVevYEfEcpjuOav5lGUbTZ3d9VR22nLZ1O/3Vsb3pU6gcwCCr29N/M3trT00NnevtixgwAbG+bWTrOj/bU2rl7qfTxMvbj3cy+RotKyCg6CM7VxC4yXU6vzc+dO49aJAFQl7Zs2XKqpEN38jA3RFF0AdGs2o7JgRXvALifVygUbq6HeBYKhUskLaujJnRQKpW6NpfLLeJqKr9MJvN8SS+q0LX/3Xw+fxlR3m4kALC919p4n4DXVAIgP2/eApNeXcZA/im7evUqWlRCfr9uvvl2k36T0OKnYrOPUoskAOpOGIa7mNnHy3Co81UHi6MluGNS6T1PH06lUh+vp5imUql3qH5eBZCkZ8Vx3J3JZI7liiqfrq6utJl9tUKHXzs8PPw+orxDppMAwHjlcrnnSpo1jo9unTVrVk3tJuPSZ8vZh7c4/gotKmFtYHSXpKR6zfI5c+ZTiyQA6m1g+F5J+5bh4u8jmlXtiArf/D/R19d3Zz0FtLe39wFJp6q+El8zzOzyMAzfzSVVHlu2bHm7pAUVOPRIEARvWLly5cNEecfaOgkAjFccx6eO86M3LFu2rFQr5907d27O3Y8v4yFvya5d+3taVLJ0rF37J0lJnbWRCpgFQAKgnrS3t+85tqAZav/aWlLB499YwSeYVS2KoislfaPOTjst6ethGH6rq6srzeW14xYvXrybmX2iEsc2szP7+vpIzNZXAmAq1TbxFi5cOFXSeLe/q63X5Mw+J8nKeMSvmBTTqhLI/dvJbcb2mvy8eQuoRBIA9RHwIPiIyjTN0cyOIKLVKZPJtEuaWbFbvvvp9bzzQ2Nj41mSbqrDU3/H4ODgFYsWLZrJVbZjtm3b9hlJZd9m0cx+lc/nv0qE6ysB4O4kACZBQ0PDiePtS5lZzfxW9Myde6Sk55ftviU91NTUdD4tKpmmNjScL2lzUodEsfvZ1CIJgJoXhuEhkk4r4yHPWLx48W5EtvqY2ckVPPx5hULh2nqO7/Llyx8NguAkSfU41fqFqVRqeUdHx1yutO2TzWaPN7O3VeDQ69z9P8SaLDtrZgLv9TOotonn7uOd/q84jmtmBoCNPv0vp+8dxitLidU2MLBV0nkJPoWlY9tZggRATQ8KPy2psYyHfNbIyMglbW1t04hu9Ribov36Ch3+wTiOeYVEUl9f34CZnV6npz+vVCrls9nsybSE8Vm4cOFe7v5DlXfqrCQNBUGwNIqizUR5pyVxMD2daptYmUxmtpkdtR3JgppIAPTNnXu8pOeW8ZBFLxbPoUUlWxwE5yi5yedApdLHqEUSADUrl8vl3P2kch/X3Y9qbm6+NpvNPocoV4fBwcFjJe1TiWOb2Qf7+/vvJ8qj8vn8+ZK+V6en3+LuF4RheG5XV1czreHpL52GhoYfSnpWBe7B7+jr61tBiOs2AcAMgIm+mM3epfEn8rb29/ffkfRzdsm8PLtHPT6QF3WsX38nLSrZDr/55lskXZ3gU1h6fWvrQmqSBEBNiuP48yr/k6fHLHL3QiaT+dTixYunEO1J/qF2/3CFDn1pPp//ARH+l1FwS8t7JPXXcQhOGxwcXL5o0aI5tIYnF4bheyS9pAKH/lKhUPgxEa7rwfQ0+lITZ2z9k//YjmTBatXAqzn5efNeLSlX5qTC12lRtcHMzk108SV2BCABUHuy2ezxko6u8Nc0mNnZw8PDN2UymXeSCJi0gcZLzOy5FTj031Op1FuI8L/r7u4eSqVSJ0j6Rz33i1OpVD4Mw9fRIv7t/vtySV+qwKGvmDVr1plEuKz9kZYkljsMwxaqb2Kk0+m3bU87qYX3/10K5F7WadImrexcvXo5Lao2bN1770sl/T2xGQDphJ65cw+jJkkA1IylS5em3P1zE/iVB5nZOcPDwxuy2ezZLBI4sXUt6VMVOHTs7m/q7e19gCg/ud7e3tuCIDhR0nAdh2G6pJ+FYfirXC63N61CymQyh7v7BZJSZT70Tel0+rW1tLf4ZFu0aNF0VW6WXKXxGsAECMOwwd3fs51/bXXSz7uvtfV1LpV1inQsnUuLqh1Hd3cX3ez7CT4FM4m1AEgA1I7169e/UdJk7HO5l7t/anh4+O9hGP68vb39BdR3Zd16663/JWlRBQ79v4VC4Woi/AydpL6+P7v7u4iEXhXH8UA2m31jnQ8o55jZbyTtUuZD/0PSy3t6erbQ1MrZ+0vuavpmxkKAExPnkyXtt73dsCSf80BbW6OkT5b5sIMj0s9oUbWlwf27kooJvsBf1TtnziJqkgRA4i1evHiKmX1ykovRLOm1QRBcFYbh+jAMP5bL5WZRO+WVyWQWSvpEBQ7dK7Ki41YoFL4n6WtEQru5+/lhGF5+2GGH7VdvJ9/e3n5oKpW6WtIeZT70I5JeGkXReppY2c1McNmZAVBhY7MpP7S9f8/dE32tPlwsnibp4LKOs6SfHbFmzSCtqsb6oWvW3O3SrxN8Cmap1KeoSRIAiTc8PPweSQdUUZEOkvSJOI7Xh2F4fTabfW89Dg7KbeHChVPN7CeSmsp86EF3f30URSNEefxmzZr1fkmXEwlJ0kvS6fRN2Wz2g7Nnz26qhxMOw/CIIAj+Imn/Mh+6KOmkKIp6aFYMov8FMwAq7NZbbz1V0vzt/XvNzc23JvWcB0a3eD677Aculb5Li6pZiX61w91fkp879wiqkQRAYo29e39WFRex092/nE6n78hkMt1hGL6D94a3X1dXV7qhoeFClfn9PI2+939KoVBYR5S3z9h72a+RdD3RGB2cuPvnZ8yYcVM2mz2xxgf/p0v6k6Tdy90vMbO3R1H0W5pTZST5FQAxA6DS/akpkj6+A3910/Llyx9M6nk/MjLyfkl7lfmwN+bWreunVdWmzjVrrpb7QJLPITb7HDVJAiCxhoeHz1YypjQGZvY8Sd+K4/jvYRj+JZPJ/Gd7e/uzqcVnNjg4+G1Jx1fg0P9dKBQuIcI7JoqiRyS9TNIaovFPs9x9WRiG1+ZyuVwtnVh7e/u+YRj+RtI3JTVW4Cs+ls/nf0gTYhD9FPag+iran3qPtv/dfynB7//n587dw83eV+7jmjv3sVpn9r2En8GSnjlzXkJFkgBInEWLFh0k6Z0JbQ9HmtlXgiC4LZvN9oVheFZHR8dcavWJli5dmspms+dIKvvWfGb2yyiKPk2UdzoJ8I9SqXScpI1E4wmOiOO4J5PJXJrL5Z6b5BNpa2ubls1mzw6CYI2kl1biO9z9f6Mo4r1EEgBP10b2pPoqY2w25Y5ut5nY6f+x2dkq/6slxVJj489pVbWtYdu28zS6Xk1iWRB82hmjkgBImnQ6/T8q//vgE379uXtW0mdLpdKaMAxXhWH4ifb29rrfp3Px4sVTbrvttgvdvRJJnqihoeFUSc6VtPNWrFixwd2Pk8QWiv9yfZvZy+M4vi4Mw79ks9njlaAt2HK53AGZTObzzc3Nd7r7pyRNq1CQvlooFM6kuZAAeAZ7UX2VMTw8/GVJu9ZTAqAwf/6zJb2jAof+3eE33ngvraq2tW/YsMmlixN+Gof1zpt3MrVJAiAxstlsu7u/rgZP7TmSPhYEwYowDNdlMpnPh2HYqeTu27xjN9b29n2Hh4f/6O6vrsDhN6bT6VcuX778Ua6kMnamCoWVkl4kaRPReFJHuvtvwzBckc1m375o0aKZ1VrQMAw7s9nsL+I4vtXMPqgKvmZlZt/M5/Pvo3lMjCRvpWdmJAAq0596saRTdvTvJ3UHgJL7J1WBh0jmztP/ermfxvH3E38O7p/Mh2EDtVmh+BKCsndQr5T0wjo65bvc/depVOrSOI7/XMsr1mcymVeZ2XdVmfc9hyR1scJ4ZQePkq4UK3Y/Y1s0s0vd/SctLS1/6O7untR9hXO53KxSqXSymb1G5V9s86kGdN/N5/OniZk4E3l//baZvT2hxf9rFEVHUovl09nZOb1YLK6SdOCOHiOO42P6+/v/lKTz7p0zZ5GCIC8pVeZDPzo1nd6rbWBgK62r9rlkfa2tayTNSfipnN6xZs251CgJgGofYLxI0h/qOASbJF3h7pdOmTLld9ddd91gjdTrPu7+eTN7Y4W+Ijaz1+fz+V9wFVVWNptd4u6/V4WmjNegeyT92syu2rZt29WrVq16aILqqVXS8e5+sqSOCT7nr0dR9J8M/ic8AXCBmSV1yufaKIpaqcWy/u6eK+m0nTlGEASH9PX1Jeo1gN65c6+UWfkfIrn/qmPt2hNoWfWjd+7cs2T22YSfxsampqY5h61c+TA1SgKgWgVhGEaSFhEKSdKIpOsk/T4Igj/09fXdkLQOdVdXV/Pg4OC7JH1UFXxqbGbvzufz59BkJqxjeYSky8XWXdurJCkys6vc/W+lUmlgxYoVt+/sdd3V1ZXevHlzWxAER0k6StKRkp41Sef4qSiKPkpVT0oC4Aoze3FCi/9QFEW7UYtlu0cvlfTLneyjxkNDQ1MGBgaGk3Lefa2tr3Dp1xXpZ7i/Nrd2LQ8Z6ikB0Na2t4rFOyQlexq9+4c61q5la0ASAFXbeXmDmf2ESDyljZKudPfudDr9597e3tuqtaCdnZ3TS6XSae7+Xkl7V/QCNPtEPp//OM1jwq/X0Mx+L7bv2llb3f1mSavMbIOkTe7+kJk9ZGab4jgeCoKgxczS7j5TUtrdn+Xus4MgmO3usyU9uwo6KO7uZxYKhS9QpZN2TV5nZkndlcKHhoaakzTYrOJ2sNDM/iZp6k4e6p4oivZJynnnw7Ah3rr1RkmV2HVpJC6V9jh83bottLA6SwK0tl4q6eUJP43N6VJpTmbduvup0fJJE4KdN3v27CYzY5uop7ePpFPM7JRSqaQwDO90925Jf3X3nhkzZgxM8rvGFobhEkmnFIvFkzQB74m7+zlRFDH4nwSFQiHK5XJdcRz/caxtYsdMM7OcpNw/LySzx9q3zEzuLvcnThJ47N9XiZK7n14oFL5LdU7iDdgsyTNyrKGhYV9JG6jJHdfR0bF7qVS6pAyDf5nZXUk6d9+69Z0VGvzLpR4G/3V6X5V+4MlPAMwoBsGnJL2dGiUBUF0tc8aMd2n0KRbG74Cxd+rfaGYaHBx8JAzDgqReM1vh7gONjY03V3JF/LEn/Ue7+7GSjpN08ASe/wWFQuEMmsHk6evrG8hkMkeZ2R8lHURE6tJWSScXCoXfEorJ/ylNdEfb7BASADuura2tMY7jX0qaVZZBr/udSTn3axcs2NWHhz9Ssbbp/kdaWJ3+wO2zzxVTN268W9K+iT4Rs7deP2/edw9fvTqiVkkAVIUFCxbsKunDRGKn7SLpCElHPPZkcHh4OA7D8FZJqyXdJmmDmd0u6c5isXjf1KlTHxjPQoO5XG7vYrG4fxAE+7v7HDNbJGlRsVhsVflX2h2PKzS6tVFMtU+uQqGwLgzD50r6jaSQiNSVjZJeGkVRgVCQAChTAuBPVOOODf6nTJlykbu/oIyHTcwMgKbh4Y9L2r1Sx/cgIAFQp47u7i72zpt3vtzPSvipBIH7FyUdTa2SAKgKDQ0NZ0li8Z8KXfCSZo/9Gf0hG0sOpFIpDQ0NKQzDEY0+xdukJy5GNmUsqTAjjmMFQfBYJ22yz+mKlpaWE7q7u0eo3uoQRdHGtra2rubm5l9KOp6I1IUbJb0kiqI7CMXk6+rqSg8ODiZ9Z45DqMntN3v27Kbm5uaL3f0l5TxuUl4BuL61daGk0yv4FcO7FYskOetYqVQ6PxUEZ9XAqXT1zZt3Qm716oup1fIMsLCDcrncAWb2HiIxqRok7arR6fuzHvdnH1XfE6VLh4aGXtXd3T1EtVWXgYGBrS0tLa8wM94Dr3Huflk6nV7C4L96bNu2bbqSvygxCYDt7c13dTVPnz79EkkvqcDhq/4VAJeCQDpXlX0Yd+Ocdeu20drq1+JbbrlZZv018vv9hWsOOqiZWiUBMKniOP4fSTREjMdFkpaySnT16u7uLubz+bdL+oBGt7xDjY39zewThULhlT09PSyIVUVKpVLit+QcewUA4xSG4YFbtmz5S6W2fozjuOpnAOTnzXurpIrufGFSP60N5n5BjZzKwdOam99HjZIAmMwfrwWS3kgkMA4XtrS0vDaKIqb9J0AURV/U6KsADxGNmjHo7ieMbbnphKO6uPuMGjiN+bNnz26iNp9ZNpvt0uiCv7kKtqmqnuFz3SGH7OXun634tWW2nhYHLxZ/oRpZdyp2/1DvIYccQK2SAJisDsvniR/G4bxZs2a9bpK3OMT2JwGudPcOSQNEI/FWmlmuUChcQiiqVi0kAJqmT5/eTlU+ta6urnQmk/mwu18l6VmVHCMMDw9vrOZYpNPpL2oi1o9yv4eWh4716++UdG0tnItJ05RO/8iT/9oYCYCkyWQyz6/UtDXUlE9FUXTqsmXLmE6eQIVCYV1zc/Nijb6+geRxM/tmS0tLZz6fX0M4qriiamMGgMzs5dTmk8tms0sGBwfzZvZpVX73nfur+XW7vrlzX2zSGybk2orj+2h9GLs/XVBDp/OCvrlz30qtkgCY4GvI/pcw4GmMuPt/RFH0UTHdONGuu+66wSiKlkp6pyQWb0yOB8zsVfl8/l0supkIM2rkPN66ePFidgV6nIULF+4VhuGP3f1aSYdN0NfeXbW/KYccspeb/VA8vcQEG2pouFBS7axDZfaVvrlzZ1GzJAAmRDabPVnsF46ntjmO4xcXCoUfEYraEUXRt4IgWCyJJ8lVzt2vSqfTi/L5/KVEgwTABNtzZGTki1Sn1N7evm8mk/l8Q0PDLZJOmeABb1UmAFyyhnT6fEl7T1wvP9iF1ghJOnLVqockXV1DpzTVg+A7vApAAqDi2traGt39U0QCT+H2IAiW9Pf3/4lQ1J6+vr4VQ0NDWUnnE42qNGhmpxUKhRf19PTcRTiSw91n1tC5vDmbzZ5YxwP/Q7PZ7A+DILjNzD4oafokFKMqEwC9c+e+V9KxE/qlZnsLeOz+ZHZFjf14HNPX2noaNUsCoKKam5vfodE95oF/dXU6ne7s6+tj0bgaNjAwsDWKolPc/dWSeLeyevwxjuMF+Xz+O+K1m8Qxs+m1dDru/rNMJvPSeqm/XC63dzabfVcYhn8JguBGdz9VUuMktqeqSwBc39p6tJl9dhIaYyd3GDzOH2rwnL6SnzOHdk4CoDLCMJwh6SNEAv8ilvQ/s2bNelFPT8+9hKM+FAqFS+I4fo5YIHCyPWBmb42i6Nj+/v7bCUdizaix82k0s4vCMDyjVvtZYRgeks1m3x6G4Z/iOL7L3b8h6UhVwXTcOI6rKgHQM3fuYYF0iSYnKXJ0PgwbuMVAkjpWr75F0mCNnVZTHAQXXz979v7U8PilCcG4nSlpD8KAx7lf0huiKLoyiiKiUWf6+/vvl7Q0m82+1t2/JmlPojJxfXwz+34QBB/u7e19gHCQAKjGTqmkr4ZheIqZfaGhoeHXy5cvfzSh52JhGLa6+1FmdpSkLkn7uVftZJuqSQAU5s9/djGOr5jENr6vDw6eLOkn3GawfP/9m9Oj96Zas18qlbqyMHv28zLr1t1PTY/jpk4IxieTycw3s5e4+7FmdqRq8wLC+F1bLBZfe8MNN/ydUGDx4sW7DQ8Pf07SW8TMqsr+aJnlzez0vr6+PqJRG7LZ7O/c/bgaP83NGp0xdHUqlcr39vbeoip7XaWtra1xl1122T+O4/lm1ubuh479c56kaQm6R2Ty+Xz/ZJejb/bsdk+lLpV0wCQXZcO2xsbM2CJwqGO9c+eepUl4FWUC3RiXSi8+fN061gEiAVB+CxcunNrQ0NCl0cVcjpM0h6jUjSFJn2xpaflCd3d3kXDg8drb2xcHQfBtSQuJRtndbmYfy+fzP9XoqzeonQTA39x9cZ2d9mZJqyTdIeked78zCIJ7zOwf7v5oHMdDqVTqoWKxOFQsFh+VpMbGxjiKos1PdcAwDGcMDw//MwGZSqVmBEEwJQiCFjOb7u4z4zhuMbMWM9vN3feTtI+k/cf+uVctBDYIgn36+vrumdSBVmvrSZJ+JKkqVuE3s9/ukkq9um1gYJg7Tn3qmzv3eDf7taRafyXkrjgIlh5+883XU+skACoql8vNiuP4WHc/zsyerwRlyrFdrk2lUm/t7e1dSyjwVLq6utKDg4PvlPRRSbsTkZ32oKTPtLS0fLO7u3uIcNSeMAwHJB1KJFAGI1EUNWuSkoTL5807KOX+eUlLq7CP/Wc3O6Fz9Wpem6q3wf+8eW9z93PqYPD/mKLMPhNMnfr5bBQ9QgsgAVBxbW1tjc3NzUs0OjvgWEmHEefE2yLprCiKvi1WGMc4LViwYNfGxsYPS3q3eGVoh647Mztn27ZtX1zF1NVaTwD8XdK+RAJlcGcURQdO9Jf+ra1tt4Zi8YMunSGpuYrjc59LH+5Ys+ZHxkyqmtfT2nqwSV+T9LI6DcHfZfaR3OrV59PeSQBMqFwut3epVDpO0rFm9kLxRDBR3P3ihoaG/2Rfceyojo6Og4vF4mfM7CSxPsB4/EPS10ql0jkrVqzYRDhqz4IFC3Ztamo6Mo7jLjN7nqR2+iMo15gniqLDJ+rLrunqSk/buPG9Lp2tZC1muUbSuQ3btp3XvmED99kaM7b45HslvV3VnZCaKCs8jj/SecstvyUUJAAmQ5DNZrNjrwoc5+45sRNDtfprHMcf7O/vX04oUA5hGC7Q6GsBJ5AIeFIbzOzrw8PD3125cuXDhKN2LF68eLeRkZEjJXW5e5dG18jgGkAlXBJF0asn4ouunz370CCV+rlGZ3om1TZJV5vZpWZ2WfbmmzfShJLpmoMOat6lqellJr1R0osZXzyp7lIcn774lltuJgGASbNw4cKpTU1Ni+M4PkbSMRp9CkKnaHKtlvSxKIouEtP9UQHt7e2HmtlZZvY6SSkiouskfa2lpeUSFtasDUuWLGkZHh7u5LcNE83dzykUCu+u9Pf0tbae6NKPJU2tofDFkpab+8XFILhk8erVG2hR1e/62bMPTaVS75b0Gpd2JSLPaNilT96+Zs3nTpJKJABQDQmBvdLp9NFBEDzf3Z8vaTZRmTDrJH2+paXlxwxCMBEWLVo0J5VKvVPSm1Wb+6A/nQfc/QJ3P7e/v/8mWkOyjT3hP9rdn6fRPeKfQ/8Ck5QAOLtQKHymkt/R29r6Bo0O/ms9gdtn7t+wlpZfZKNohNZVXXrmzZtr0ufk/krutzukO10qnZRZt+5+EgCoKmEYHujuL3hcQoBFksrfWfizmX01iqLLxAIhmARtbW3Tmpub3yTpnartldC3SbpC0vlDQ0NXDLAdVaL7DtlsdlEcxy82s+MlHS5ms6A6ftNPLRQKP67YiLi1dYlLV0tqrJ+r3W5y91M616zJ08Im34VS6qDW1g9r9JXCBiKyU9bHQfDiw2+++RYSAKhamUxmvqTnjyUEuiTtRlR2yLCZXejuX4miqEA4UC1yuVzO3V/n7q/R6L7cSfeomV0l6dKGhoZLli9f/iC1nNz+Qi6Xe0Ecxydr9P1SEtKoRsdGUXRlJQ6cD8OG+OGHV8i97rasdGmrxfGRHbfcsoImNnnyYbhLaevWZSYdTzTK5i5zf15u7dpbSQAgCYIwDBdJOlrSkZKWSNqDsDytHkkXBEHwy76+vnsIB6rV0qVLUxs2bDg6juMTJB0n6aAEFf9uSX9098uKxeIfWNAv2XK53N5xHL9Z0lslHUJEUNWdWrMF+Xz+xkocu6+19eUuXVrH4b24Y82aE2llk8Mly7e2/sqlVxKNslsVTJt2eDaKHiEBgMTVZSaTmWdmSx6XEKCzJt0s6QJ3v6BQKKwjHEiiMAznmdmLJb3I3RerutYMuNvMrpV0jaTufD6/hhqriTaXkfQhSa8Q00yREI2NjbtXaqZRb2vrVyWdUc+DpI41axbSyiZHz9y5rzKzXxGJSo2i7JMdq1f/d72cLltE1A4vFAo3jw14vz/WgdvH3Q+XFAZBELp7KGnPGo/DVkl/kfQnSX+MomgVTQNJF0XRao3uUPEVSUF7e/s8M+sMguBwSRl3nytpeoWLUZJ0h6QBM4viOI7cPerv77+bGqod7e3t+wZB8DWNblfJQwIkyVCFXzPava47mdKdNLFJHaC+iiBUsoH7WyWRAEBNDBo2Srpk7I/GkgIHuvthZtZqZnPGBg5zldz3ObeY2Yo4jq82sz9J6olYrRa1LR5bOf8mST967F/mcrm93X1eHMdzgyDY192fJWkfM9vL3feU1CRp2tigbuZj18/YwH5Io+/rP+ju90m6393vNbO73X19EAS3PProo7excF9ty+Vyx8RxvOxx7QNIkoomI839Ibc6zom5/5ImNqnxT8vIyVZQXf3ukQCov6TAHRp9ivebx//7JUuWtAwNDc0xs7nuPkejrw/sK2l/SQeMDRwm9dYnaYOkG8zshjiOV6ZSqRV9fX23jf03oK6NrWtxj6RuooHttXjx4t2Gh4cvkzSFaIAEwJN0QoKgW+7vrtPY/i7V0nIBTWwSmX1f0onilazKhNf9B3V1vlQ5xqOzs3N6HMcHlEql/YMg2C+O472DIJjp7jMlzXT3XR///zW6JVSjpKlPcciipEGNPoF8RNIjZrbJ3bdKusPM7orj+O9mdnupVLprZGTkbp4+AkDl+gPZbPbFkrrcfbakZ0s6UCwui+S4MIqi11TyC3rmzfu4uZ8pqbkO4jkss79IOnfD6tWXnjQ6WwyTqHfOnEUKgvdrdBcAdgLbeUWXrpfZ9ztWrz7f6uiBIgkATLilS5emli1bxg8JAFS5hQsXTk2lUs9Op9N7xnG8q5nt5u67mdmuj/+nu880s100OoNg17F/NhNBTFiH1uyr+Xz+vZX+nvysWTNKjY1Hyv0ok1rlvpfM9pO0l0ZftapmsUmbfey1L5ltlvsjcr9XQbBRcXyfmd1lQbBCu+yyKssrlVXpQin17NbWA91sTiqO57jZHJd2s9EHcDPH7sEzTZrq9XcvLpm0xd2HZbbJzTaZ+yZJmyU9ILM7zf0Wj+N1TVOm3HJYne5URAIAAABUpI+xYMGCmbvsssvUbdu2TQmCYHoqlZomqaFUKrWYWVrSLu7eZGbNY0mDBknTzCzQ2G4XYzPLzN3/+e/GzBj7nDT6mtpjU2Mf3+Ft0OS/woYJ4O4fLBQKX5jUMkjBXxcsmCFJzdu27SpJlkrNLLo/Y387ZbZNpdJ2b0NWDIK42NCw+an++3Sz4cPYjpXr43Fts+mRR6ZZKvVvrxKUgmDX7TlmIE2zON6hVxJKQfDQ9nw+5b5V7k9ISMVmPtzYuEmS9n700UfmrFu3jZomAQAAAPC0FixY8LSd3nQ6PSWdTj/lE7Q4jm0sSfHUnS2zKUEQMCOigoaHh2++4YYb/k4kAAAAAAAAAAAAAAAAAAAAAAAAAAAAAAAAAAAAAAAAAAAAAAAAAEwMtgEEAAB4Cm1tbY3Nzc27j4yMlFauXHkfEQEAkAAAAFSVpUuXptavX5+TFAZBsK+77y/pWe6ekiQzG5b0sKTNku6RdJ+73yfp9m3btt04MDCwlSiini1atGhmOp3+hru/WtIuY//6ulKpdOqKFStuIUIAABIAAIBJE4Zhg5md6O5LJR0taeYOHiqWtF7SCjPLx3H8p0Kh0D/274G6kMlkvm1mb3+S/zQYx/GR/f39NxAlAAAJAADAhFqyZEnL0NDQ/5N0hqQDK/Q1D0i6xsyucveroihaT+RRy8IwXCNp7lP859uGh4fDVatWPUSkAAAkAAAAEyKTybzMzM6VtN8Ef/Vtkn4TBMFv4jj+cxRFI9QGaiwBsF7SrKf5yJeiKPovIgUAIAEAAKioRYsWHZRKpb4p6fgqKM79Zna5u18m6cooih6hhlADCYBrJR3xNB8ZiuN4Xn9//+1ECwCQFClCAADJks1mTzazKyQ9p0qKNFVSu6STJb1v3333Dffbb79g11133XD//fcPU2NIon322WeBmS1+mo+kJQ1v3LjxKqIFAEgKZgAAQELMnj27aebMmV9y93cmpMiPSvqtpAsl/ZaZAUiSTCbzKjP71TN87N6hoaEDBwYGSHQBAEgAAADKo729/dlmtszMcgk9hYfN7PI4ji9samr63fLlyx+lVlHNFi5cOLWhoeEfkpqftiNl9sp8Pn8pEQMAJAGvAABA9Q/+FwdB8Cczm5vg02iU9Bwze02pVHr3fvvtN3fvvfce3Lhx4+2SnFpGtbn33ntH9t133+dKmvMMH31448aNlxExAEASMAMAAKpYNps90d3PlzSlRk/xbkkXSVoWRdFfqXFU2fX3Lnf/xjN87L4oivaRFBMxAAAJAADADt2fwzA8W9In6+hefaOknwZB8PO+vr47aQKYbLlcblYcx+uf6XNBELT39fWtIGIAABIAAIDtEoZhg6TvSTqlTkMQS/qzmf3Y3S9i8UBM8vV4s6R5z/Cx06MoOpdoAQCqXUAIAKCqBhu7SPp1HQ/+H/ttOtrdz5O0MZPJnJ/L5Y4RSWtMAnf/3Tg+djiRAgCQAAAAjNvixYt3M7OrJB1PNP5pupm9MY7jP4ZheHMYhmcddthh+xEWTKBrxvGZTsIEAEgCnqYAQBVob2/fMwiCqyQtJBrPqOTuV0r68ZYtWy5dt27dNkKCSsnlcgfEcXzHM7XJlpaWad3d3UNEDABAAgAA8EyD/z9JWkA0ttsmM7vQ3c+JomgV4UAlhGF4v6Q9nu4z7n5YoVBYSbQAANWMVwAAYBItXLhwryAIrmHwv8NmuvvbJK0Mw/Av2Wz2jV1dXc2EBWX2jMmlIAgOJUwAABIAAIAntWTJkpbGxsbfSmojGmVxpLufPzg4eHcYhl/LZrPPISQok2d8su/uswkTAIAEAADg37S1tTUODQ1d7O5ZolF2u0p6j7uvymazf8tkMqeO7a4A7Ki7xvEZFqcEAJAAAAD8G2tubv6epBcSispy98Vm9kNJG7PZ7HdyuRyzLbAj7eiBcXxsfyIFACABAAB4gjAMvyrpTURiQk1397fFcbwqDMM/hGH4yqVLl6YIC8bVWQqC8SQAmAEAACABAAD4P5lM5sOS3kMkJo1JepGkS2699dY7wzD8XGdnJ09u8fSNxuwf4/jYHkQKAEACAADw2OD/9Wb2KSJRNfaRdGaxWFwfhuHPwzA8gpDgycRxPDSOj80gUgCAameEAAAmZPC/0MyWS2Ixuuq2WtK3R0ZGvr9y5cqHCQckaSw5dO0zfMxnzZrVsGzZshIRAwCQAACAOrV48eLdhoeH+yTNqsDhb3f3m8zsLjO73923/HM04p4ys73d/dlmtp9GFyl7FjUyLpvc/UdxHJ+7YsWKWwhHfctmsy909yuf6XPDw8O7rVq16iEiBgCoVmlCAAAVFYyMjPysjIP/+9z9Ekl/SKfTf+nt7X1ge/7y7Nmzm3bdddf5pVIpZ2YdknKS2vg9+Dczzey9qVTqjGw2e2Ucx98sFApXSIoJTV0a18ydXXbZpZFQAQCqGTMAAKCCMpnMp8zs7DIc6hoz+6q7/y6KopFyljEMw10kZSQ938yOc/cOSayQ/+9uc/dz0+n0D7c38YLEX8dvNrMfPdPn4jjer7+//24iBgAgAQAAdSabzb5i7Gn9Dt9r3f1v7v5f/f39yyeq3IsXL95t27ZtxwRBcJy7HytpX2rzCYbM7IKxWQER4ah9YRh+TtKZz/S5IAgO7Ovru5OIAQBIAABAHTnssMP2S6fTN0qauYOH2CLpPVEUnS/JJ3nwk5G0dOzPIdTuE/S4+zlbtmxZtm7dum2EozZlMplLzezlz/S5Uql08IoVKzYQMQAACQAAqKN7ayaT+a2ZvXgnBpVvKBQK66rtxHK5XJu7L3X310qaS1X/032SflQqlb7NALD2hGF4i6TZ4/jovlEUbSRiAAASAABQJzKZzNvM7Ds78FdjSZ+YNWvWp5OwlVh7e3s2CILXSHqdeE3gMSVJl8Vx/M3+/v6rNcmzN7DzFixYsGtjY+P9Gse6GOwCAAAgAQAAdWTRokUHpVKplZJatvOvbjOzN+fz+V8k7ZyXLl2aWr9+/QslnWJmr5TUTEuQJK2WdG6pVDp/xYoVmwhHMmWz2de6+8/H89nGxsZdli9f/ihRAwCQAACA2heEYfgnSV3b+fc2u/urC4XC1UkPwKJFi2am0+nXSDrF3RfTJCRJj0r6pbt/p1AoXE84kiUMw59Leu04PhpHUZQWsz4AACQAAKD2ZbPZd7n7N7bzr90Tx/Fx/f39N9RgPFrd/RRJb5a0Dy1EknSDpO+k0+mf9fT0bCEc1a2rqys9ODh4r6TdxvHx+6Mo2ouoAQBIAABAjRt7T/gWSbtvx1/bZGbPz+fz/bUcm6VLl6Y2bNhwdBzHb5P0ao3jXeo6MCTpN2b2tXw+fx3hqE7ZbPZEd182zo/fGEXRAqIGACABAAA1LgzDr0l6z3b8lS1BEBzT19fXV09xGtse8Q2S3inpAFqOJCly9+9u27bt5wMDA1sJR1Vd18slHT7Oj18TRdHziRoAgAQAANSwjo6OuaVS6UZJDeP8K4+4+3GFQuHaOh5YNZjZy9397ZJeICmgJWmLpJ/FcfydWnwlJIFt9AhJ475G3f0XhULhtUQOAFDNmIYJADtp7733/oGkQ8f58aKZvSqKoj/Vc8w2btwY33333Tdv3LjxJ/vuu+/PzGybpPmSptRxWJok5czstH333fe4ffbZp3TQQQetueuuu4pcZRNvv/32+46k2dvxVy7duHHj1UQOAFDNmAEAADshl8s9L47j7u34K++MouhbRO7fhWG4i6TXSXq3pIVERJK0yd1/KunHhUIhIhwTYzvf/ZckufuphULhx0QPAEACAABqd9B6paQXjuuGa/bVfD7/XqL2zDKZTCjpDDM7WeN/taLW3SzpvHQ6/eOenp57CUdldHZ2Ti8WizdJ2m87/+qRURT9lQgCAEgAAEBtDv4XaHRbt/HcSy+fNWvWK5ctW1YicuOXy+UOiOP4HZL+n6Q9iIgkacTdf2dmP5L02yiKRghJWa/r70l66w781T2jKPoHEQQAkAAAgNocKHxT0unj+Gj/0NDQUazwvuO6urqat2zZ8loze5ekDBH5p/vN7GelUunHLBy48zKZzDvN7Jwd+Ku3RVE0iwgCAEgAAEBtDkjTg4ODf5e01zN89O/pdPrwnp6eu4ha2QZpvB7w5G6SdP7IyMiPVq5ceR/h2O52dayZXS4pvd2dKbNf5vP5k4kiAIAEAADUoDAMj5b0TCt+/yMIgq6+vr4BIlZ+7e3t+wZB8NjrAc8iIv80PDaQPX/Tpk2/X7du3TZC8ozXc6ekKyVN38FDfCCKoi8SSQAACQAAqEHZbPbj7v7fT/ORTe5+DCu3V15bW1tjc3PzKySdIWkJEXmCRzSaqDp/8+bNl5EMeNJr+YXufrGklp3JIURRVCCaAAASAABQg8IwXCbpxKf4z3e7+4sLhcJKIjXh9dKp0W0El0pqJCJPsEnSZZIuHBoa+uPAwMBwvQckk8mcambf1Q5M+3+ce6Io2leS08QAACQAAKA2Bw5/NLNjnuQ/rZL00iiK7iBKkyeXy+1dKpXebmZvl7QPEfk3D0m61MyWPfroo1fVWzJgbKu/L2nHVvv/Vz+OouhUmhQAgAQAANSoMAx/JOnN/zoQkPTOKIoeIULVoa2trXHKlCknuPt7JB1ORJ7Ug2Z2qbtf3NjYePXy5csfrfFr92hJP5R0UFk6UmavyOfzl9GMAAAkAACgRuVyuefGcXytpEBSwczOyufzfyQyVV1nuVKp9G4zO0lSExF5Uo9KukbSb0ul0hUrVqzYUEP1PyuO449JelMZ+z8bW1paDuzu7i7SdAAAJAAAoIZlMpnZ6XQ66O3tXUs0kqOzs/NZxWLxbZJOk7QvEXlaN0u6StLVw8PDf161atVDSTuBMAwPNLOz3f1UlXnbSDP7TD6fP5tmAgAgAQAAQHUPDBvM7ARJ73H3xUTkGcWS+iV1m9nykZGR62+44Ya/V2NBx3aGOF7SKZKOV2UWhByWNIf1PgAAJAAAAEiQ9vb2bBAE75b0GvF6wPa4S9L1kvJmtjKVSq3q6em5azIKsmDBgl0bGhqOMLPjxupx9wp/5fejKPp/NAEAAAkAAAASaOHChXs1NDQ89nrAfkRkhzxoZjdKWu/ut0q6NQiCDZLufOihh+5bt27dtp39go6Ojt1LpdJsd59tZjlJz5O0UKNrckyEYhAErX19fbdS3QAAEgAAACRYGIYN7v5qM3u3pCVEpKweknSPmW2K4/hhM3vIzLZKGnH3kqQtj33Q3Wea2RRJU9x91yAIZrr7IZJ2neRz4Ok/AIAEAAAANZgMyEh6t6STJTUTkbq3JZ1Oz+3p6bmXUAAASAAAAFCDFi1aNDOVSp0i6QxJBxOROu04mZ2Zz+f/l0gAAEgAAABQ+4JMJvMSM3unpBfxW1pX1m7evHlhOdYxAACABAAAAAmSyWRmm9lbJb1VlV91HpPL3f2YQqFwNaEAAJAAAACgTnV1dTVv3br1JHd/r6RFRKQmnRtF0emEAQBAAgAAAEiSstnsEnd/p6QTJDUSkZpwZzqdfk5PT88WQgEAIAEAAACeoLOz81nFYvHNkt4h6dlEJLFiScdEUXQNoQAAkAAAAABPJ8jlcs+P4/gMSS/htzdZ3P3jhULhE0QCAFALUoQAAIDKjiHvvvvuWzdu3HjB3nvvvczMYknzJDUTmqof/P/5kEMOeetNN93kRAMAUAt4CgEAwATr6upqHhwcfJm7v83MjiEiVemOkZGR3MqVK+8jFAAAEgAAAGCnZTKZMAiCt7n76yRNIyJV4dE4jo/q7+/PEwoAAAkAAABQVmEYzjCzN7r7aZLaiMikid39tYVC4UJCAQAgAQAAACrqcbMC3iBpFyIygR0js/fl8/mvEAkAAAkAAAAwYRYtWjQzCIKTzOwMSYcSkYoP/j+Sz+c/TSQAACQAAADApP1eZ7PZYySd5u4vk9RASMruf6Io+hhhAACQAAAAAFVhwYIFuzY0NCw1s3dKWkhEdppL+kAURV8iFAAAEgAAAKAqZbPZJZLe4u4nSZpKRLbbo2b2lnw+fwGhAACQAAAAAFVvyZIlLdu2bXtVHMdvNLNjiMi43BkEwQl9fX19hAIAQAIAAAAkTjabfY5GZwW8QdIeRORJ/aGxsfF1y5cvf5BQAABIAAAAgEQLw7BB0tGSTpT0Skl7EhU96hH/Y0UAAAPeSURBVO7/XSgUviQpJhwAABIAAACgpixdujS1fv365wVBcJy7v1DSYfXWBzCz5ZJOzefza2gRAAASAAAAoC4sXLhwr4aGhmPM7Bh3XyJpbg2f7l2SPj1r1qzvLVu2rETtAwBIAAAAgLrV3t6+ZyqVWuzuz5X0XEntkqYl/LQ2SvpcS0vLd7u7u4eoZQAASAAAAIB/F3R0dMwuFouLzKx9LCGwQNK+VV7uIUmXm9lPH3300d8NDAwMU5UAAJAAAAAA2ykMwxlm1iqpVdK8OI5bzWyWpGdL2m0SijQsqWBm17v730ql0h9XrFixiZoCAIAEAAAAqJAlS5a0bNu27dlxHB9kZvtL2kuj2xDuIWlvSbtKmi6pSdIukqZKanzcIUYkbX3c/98saauZDbr7Vnd/wMz+Lul2d99gZhtaWlpuYXo/AAAAAAAAAAAAAAAAAAAAAAAAAAAAAAAAAAAAAAAAAAAAAAAAAAAAAAAAAAAAAAAAAAAAAAAAAAAAAAAAAAAAAAAAAAAAAAAAAAAAAAAAAAAAAAAAAAAAAAAAAAAAAAAAAAAAAAAAAAAAAAAAAAAAAAAAAAAAAAAAAAAAAAAAAAAAAAAAAAAAAAAAAAAAAAAAAAAAAAAAAAAAAAAAAAAAAAAAAAAAAAAAAAAAAAAAAAAAAAAAAAAAAAAAAAAAAAAAAAAAAAAAAAAAAAAAAAAAAAAAAAAAAAAAAAAAAAAAAAAAAAAAAAAAAAAAAAAAAAAAAAAAAAAAAAAAAAAAAAAAAAAAAAAAAAAAAAAAAAAAAAAAAAAAAAAAAAAAAAAAAAAAAAAAAAAAAAAAAAAAAAAAAAAAAAAAAAAAAAAAAAAAAAAAAAAAAAAAAAAAAAAAAAAAAAAAAAAAAAAAAAAAAAAAAAAAAAAAAAAAAAAAAAAAAAAAAAAAAAAAAAAAAAAAAAAAAAAAAAAAAAAAAAAAAAAAAAAAAAAAAAAAAAAAAAAAAAAAAAAAAAAAAAAAAAAAAAAAAAAAAAAAAAAAAAAAAAAAAAAAAAAAAAAAAAAAAAAAAAAAAAAAAAAAAAAAAAAAAAAAAAAAAAAAAAAAAAAAAAAAAAAAAAAAAAAAAAAAAAAAAAAAAAAAAAAAAAAAAAAAAAAAAAAAAAAAAAAAAAAAAAAAAAAAAAAAAAAAAAAAAAAAAAAAAAAAAAAAAOD/tweHBAAAAACC/r/2gxkAAAAAAAAAAAAAAAAAAAAAAAAAAAAAAAAAAAAAAAAAAAAAAAAAAAAAAAAAAAAAAAAAAAAAAAAAAAAAAAAAAAAAAAAAAAAAAAAAAAAAAAAAAAAAAL4A3+B4+htRi7UAAAAldEVYdGRhdGU6Y3JlYXRlADIwMjMtMTItMzBUMjM6MjQ6MzgrMDA6MDDH7lXdAAAAJXRFWHRkYXRlOm1vZGlmeQAyMDIzLTEyLTMwVDIzOjI0OjM4KzAwOjAwtrPtYQAAAABJRU5ErkJggg==" vertex="1" parent="0v8Zg-rZT7xSfdYN5Gm1-103">
          <mxGeometry x="130" y="107.5" width="45" height="22.5" as="geometry" />
        </mxCell>
        <mxCell id="0v8Zg-rZT7xSfdYN5Gm1-104" value="" style="group" vertex="1" connectable="0" parent="1">
          <mxGeometry x="596" y="735" width="220" height="150" as="geometry" />
        </mxCell>
        <mxCell id="0v8Zg-rZT7xSfdYN5Gm1-105" value="" style="rounded=0;whiteSpace=wrap;html=1;strokeColor=#FF8000;dashed=1;dashPattern=12 12;" vertex="1" parent="0v8Zg-rZT7xSfdYN5Gm1-104">
          <mxGeometry y="20" width="200" height="110" as="geometry" />
        </mxCell>
        <mxCell id="0v8Zg-rZT7xSfdYN5Gm1-106" value="&lt;font style=&quot;font-size: 14px;&quot;&gt;&lt;b&gt;dao.py&lt;/b&gt;&lt;/font&gt;" style="text;html=1;align=center;verticalAlign=middle;whiteSpace=wrap;rounded=0;fillColor=default;" vertex="1" parent="0v8Zg-rZT7xSfdYN5Gm1-104">
          <mxGeometry x="66.5" width="67" height="40" as="geometry" />
        </mxCell>
        <mxCell id="0v8Zg-rZT7xSfdYN5Gm1-107" value="Defines table specific models for database interaction with commend methods for Create, Read, Update, and Delete (CRUD)" style="text;html=1;align=center;verticalAlign=middle;whiteSpace=wrap;rounded=0;" vertex="1" parent="0v8Zg-rZT7xSfdYN5Gm1-104">
          <mxGeometry x="20" y="45" width="160" height="60" as="geometry" />
        </mxCell>
        <mxCell id="0v8Zg-rZT7xSfdYN5Gm1-108" value="" style="shape=image;verticalLabelPosition=bottom;verticalAlign=top;imageAspect=0;aspect=fixed;image=data:image/svg+xml,PHN2ZyB4bWxucz0iaHR0cDovL3d3dy53My5vcmcvMjAwMC9zdmciIGZpbGw9Im5vbmUiIHZpZXdCb3g9IjAgMCAzMiAzMiIgaGVpZ2h0PSI4MDBweCIgd2lkdGg9IjgwMHB4Ij4mI3hhOzxwYXRoIGZpbGw9InVybCgjcGFpbnQwX2xpbmVhcl84N184MjA0KSIgZD0iTTEzLjAxNjQgMkMxMC44MTkzIDIgOS4wMzgyNSAzLjcyNDUzIDkuMDM4MjUgNS44NTE4NVY4LjUxODUySDE1LjkyMzVWOS4yNTkyNkg1Ljk3ODE0QzMuNzgxMDcgOS4yNTkyNiAyIDEwLjk4MzggMiAxMy4xMTExTDIgMTguODg4OUMyIDIxLjAxNjIgMy43ODEwNyAyMi43NDA3IDUuOTc4MTQgMjIuNzQwN0g4LjI3MzIyVjE5LjQ4MTVDOC4yNzMyMiAxNy4zNTQyIDEwLjA1NDMgMTUuNjI5NiAxMi4yNTE0IDE1LjYyOTZIMTkuNTk1NkMyMS40NTQ3IDE1LjYyOTYgMjIuOTYxNyAxNC4xNzA0IDIyLjk2MTcgMTIuMzcwNFY1Ljg1MTg1QzIyLjk2MTcgMy43MjQ1MyAyMS4xODA3IDIgMTguOTgzNiAySDEzLjAxNjRaTTEyLjA5ODQgNi43NDA3NEMxMi44NTg5IDYuNzQwNzQgMTMuNDc1NCA2LjE0Mzc4IDEzLjQ3NTQgNS40MDc0MUMxMy40NzU0IDQuNjcxMDMgMTIuODU4OSA0LjA3NDA3IDEyLjA5ODQgNC4wNzQwN0MxMS4zMzc4IDQuMDc0MDcgMTAuNzIxMyA0LjY3MTAzIDEwLjcyMTMgNS40MDc0MUMxMC43MjEzIDYuMTQzNzggMTEuMzM3OCA2Ljc0MDc0IDEyLjA5ODQgNi43NDA3NFoiIGNsaXAtcnVsZT0iZXZlbm9kZCIgZmlsbC1ydWxlPSJldmVub2RkIi8+JiN4YTs8cGF0aCBmaWxsPSJ1cmwoI3BhaW50MV9saW5lYXJfODdfODIwNCkiIGQ9Ik0xOC45ODM0IDMwQzIxLjE4MDUgMzAgMjIuOTYxNiAyOC4yNzU1IDIyLjk2MTYgMjYuMTQ4MlYyMy40ODE1TDE2LjA3NjMgMjMuNDgxNUwxNi4wNzYzIDIyLjc0MDhMMjYuMDIxNyAyMi43NDA4QzI4LjIxODggMjIuNzQwOCAyOS45OTk4IDIxLjAxNjIgMjkuOTk5OCAxOC44ODg5VjEzLjExMTFDMjkuOTk5OCAxMC45ODM4IDI4LjIxODggOS4yNTkyOCAyNi4wMjE3IDkuMjU5MjhMMjMuNzI2NiA5LjI1OTI4VjEyLjUxODVDMjMuNzI2NiAxNC42NDU5IDIxLjk0NTUgMTYuMzcwNCAxOS43NDg1IDE2LjM3MDRMMTIuNDA0MiAxNi4zNzA0QzEwLjU0NTEgMTYuMzcwNCA5LjAzODA5IDE3LjgyOTYgOS4wMzgwOSAxOS42Mjk2TDkuMDM4MDkgMjYuMTQ4MkM5LjAzODA5IDI4LjI3NTUgMTAuODE5MiAzMCAxMy4wMTYyIDMwSDE4Ljk4MzRaTTE5LjkwMTUgMjUuMjU5M0MxOS4xNDA5IDI1LjI1OTMgMTguNTI0NCAyNS44NTYyIDE4LjUyNDQgMjYuNTkyNkMxOC41MjQ0IDI3LjMyOSAxOS4xNDA5IDI3LjkyNTkgMTkuOTAxNSAyNy45MjU5QzIwLjY2MiAyNy45MjU5IDIxLjI3ODUgMjcuMzI5IDIxLjI3ODUgMjYuNTkyNkMyMS4yNzg1IDI1Ljg1NjIgMjAuNjYyIDI1LjI1OTMgMTkuOTAxNSAyNS4yNTkzWiIgY2xpcC1ydWxlPSJldmVub2RkIiBmaWxsLXJ1bGU9ImV2ZW5vZGQiLz4mI3hhOzxkZWZzPiYjeGE7PGxpbmVhckdyYWRpZW50IGdyYWRpZW50VW5pdHM9InVzZXJTcGFjZU9uVXNlIiB5Mj0iMjIuNzQwNyIgeDI9IjEyLjQ4MDkiIHkxPSIyIiB4MT0iMTIuNDgwOSIgaWQ9InBhaW50MF9saW5lYXJfODdfODIwNCI+JiN4YTs8c3RvcCBzdG9wLWNvbG9yPSIjMzI3RUJEIi8+JiN4YTs8c3RvcCBzdG9wLWNvbG9yPSIjMTU2NUE3IiBvZmZzZXQ9IjEiLz4mI3hhOzwvbGluZWFyR3JhZGllbnQ+JiN4YTs8bGluZWFyR3JhZGllbnQgZ3JhZGllbnRVbml0cz0idXNlclNwYWNlT25Vc2UiIHkyPSIzMCIgeDI9IjE5LjUxOSIgeTE9IjkuMjU5MjgiIHgxPSIxOS41MTkiIGlkPSJwYWludDFfbGluZWFyXzg3XzgyMDQiPiYjeGE7PHN0b3Agc3RvcC1jb2xvcj0iI0ZGREE0QiIvPiYjeGE7PHN0b3Agc3RvcC1jb2xvcj0iI0Y5QzYwMCIgb2Zmc2V0PSIxIi8+JiN4YTs8L2xpbmVhckdyYWRpZW50PiYjeGE7PC9kZWZzPiYjeGE7PC9zdmc+" vertex="1" parent="0v8Zg-rZT7xSfdYN5Gm1-104">
          <mxGeometry x="180" y="110" width="40" height="40" as="geometry" />
        </mxCell>
        <mxCell id="0v8Zg-rZT7xSfdYN5Gm1-132" value="" style="shape=image;verticalLabelPosition=bottom;verticalAlign=top;imageAspect=0;aspect=fixed;image=data:image/svg+xml,PHN2ZyB4bWxuczp4bGluaz0iaHR0cDovL3d3dy53My5vcmcvMTk5OS94bGluayIgeG1sbnM9Imh0dHA6Ly93d3cudzMub3JnLzIwMDAvc3ZnIiBwcmVzZXJ2ZUFzcGVjdFJhdGlvPSJ4TWlkWU1pZCIgdmVyc2lvbj0iMS4xIiB2aWV3Qm94PSItNCAwIDI2NCAyNjQiIGhlaWdodD0iODAwcHgiIHdpZHRoPSI4MDBweCI+JiN4YTsgICAgPGc+JiN4YTsgICAgICAgIDxwYXRoIGZpbGw9IiMwMDAwMDAiIGQ9Ik0yNTUuMDA3OTI2LDE1OC4wODU2MTcgQzI1My40NzMxMDksMTUzLjQzNzQxMyAyNDkuNDUyMTk0LDE1MC4xOTkyNzkgMjQ0LjI1MTc4OCwxNDkuNDIxODIgQzI0MS43OTk5ODIsMTQ5LjA1NTg1MiAyMzguOTkxNjY3LDE0OS4yMTE5MzUgMjM1LjY2ODk4OCwxNDkuODk3MTY0IEMyMjkuODc3MzU4LDE1MS4wOTIwMjggMjI1LjU4MDM0MiwxNTEuNTQ2Njc5IDIyMi40NDQ0OSwxNTEuNjM1MzYzIEMyMzQuMjgwNzk0LDEzMS42NTAyMTcgMjQzLjkwNTkyMSwxMDguODU5NzE0IDI0OS40NDY4NzMsODcuNDA2NTU4OSBDMjU4LjQwNjI4Miw1Mi43MTgyNjMzIDI1My42MTg1NSwzNi45MTU0MzY1IDI0OC4wMjM3OTcsMjkuNzY2OTQ2OSBDMjMzLjIxNzE4MiwxMC44NDc3NzgzIDIxMS42MTQ0NDgsMC42ODM0NTQ5NjUgMTg1LjU1MTUyLDAuMzcxODc5OTA4IEMxNzEuNjQ5NDc4LDAuMjAyMTk4NjE0IDE1OS40NDM2NTgsMi45NDcyNTE3MyAxNTMuMDc3MzU4LDQuOTIwNzU3NTEgQzE0Ny4xNDkxNTUsMy44NzU0NzM0NCAxNDAuNzc0NTc3LDMuMjkxMzQ0MTEgMTM0LjA4NjA2LDMuMTgzMTUwMTIgQzEyMS41NTAzMzcsMi45ODMzMTY0IDExMC40NzMxNjQsNS43MTU5NTM4MSAxMDEuMDA4MjU5LDExLjMzMjU4MiBDOTUuNzY3MDU3Nyw5LjU2MTI3NDgzIDg3LjM1ODA3ODUsNy4wNjMzNTMzNSA3Ny42NDYwNDE2LDUuNDY4ODIyMTcgQzU0LjgwMzUxMDQsMS43MTg2ODgyMiAzNi4zOTM5NzY5LDQuNjQxMTA4NTUgMjIuOTI4MjU4NywxNC4xNTM5MDMgQzYuNjIyMzAwMjMsMjUuNjcyMTI5MyAtMC45MzcwOTAwNjksNDUuNjgzODc5OSAwLjQ2MTE1NDczNCw3My42MzM5OTU0IEMwLjkwNDU3Mjc0OCw4Mi41MDgyNjc5IDUuODY5MDgwODMsMTA5LjUwNzY5NSAxMy42ODUwNjI0LDEzNS4xMTQxOTkgQzE4LjE3NzE4MjQsMTQ5LjgzMTUzOCAyMi45NjcyNzk0LDE2Mi4wNTM5MTIgMjcuOTIyMzI3OSwxNzEuNDQzNzMyIEMzNC45NDkwMjU0LDE4NC43NTg2ODggNDIuNDY3NjIxMiwxOTIuNjAwMDkyIDUwLjkwODUyNjYsMTk1LjQxNTUwMSBDNTUuNjQwMDkyNCwxOTYuOTkyMjk2IDY0LjIzNTg5ODQsMTk4LjA5NTUyIDczLjI3NzQ4NzMsMTkwLjU2Njg3MyBDNzQuNDIzMjc5NCwxOTEuOTUzODg1IDc1Ljk1MTU5MzUsMTkzLjMzMzIxIDc3Ljk4MTI2NTYsMTk0LjYxMzgwMSBDODAuNTU3ODE5OSwxOTYuMjM5MDc2IDgzLjcwOTA0MzksMTk3LjU2Njk2NSA4Ni44NTU1MzgxLDE5OC4zNTM4ODUgQzk4LjE5Njk4ODUsMjAxLjE4OTM5NSAxMDguODIwMTAyLDIwMC40Nzk5MjYgMTE3Ljg4Mjk3NSwxOTYuNTA2MzA5IEMxMTcuOTM4NTUsMTk4LjExNzk4NiAxMTcuOTgxNzA5LDE5OS42NTgxMjUgMTE4LjAxODM2NSwyMDAuOTg3Nzg4IEMxMTguMDc4NjcsMjAzLjE0NTE2NCAxMTguMTM3NzkyLDIwNS4yNTk5NzIgMTE4LjIxNzAxNiwyMDcuMjM3NjE3IEMxMTguNzUzODQ4LDIyMC42MTIyODYgMTE5LjY2Mzc0MSwyMzEuMDExMzI2IDEyMi4zNTk3MjMsMjM4LjI4NjkyOCBDMTIyLjUwNzUyOSwyMzguNjg3Nzc4IDEyMi43MDY3NzEsMjM5LjI5NzMzIDEyMi45MTcyNDcsMjM5Ljk0MzUzOCBDMTI0LjI2MTY5MSwyNDQuMDYyMDA1IDEyNi41MTEyOTgsMjUwLjk1NTY3NyAxMzIuMjMyNTczLDI1Ni4zNTUzMjYgQzEzOC4xNTg0MTEsMjYxLjk0NzcxNCAxNDUuMzI1MjI5LDI2My42NjM0NDYgMTUxLjg4ODk5OCwyNjMuNjYyODU1IEMxNTUuMTgwOTMzLDI2My42NjI4NTUgMTU4LjMyMjEwNiwyNjMuMjMxMjYxIDE2MS4wNzY2MTksMjYyLjY0MDYyOCBDMTcwLjg5NzQ0MSwyNjAuNTM2NDYyIDE4Mi4wNTAyOTEsMjU3LjMyOTY2MyAxOTAuMTE4MTM0LDI0NS44NDIxOCBDMTk3Ljc0NTUxNSwyMzQuOTgxOTg2IDIwMS40NTM2NzIsMjE4LjYyNTE4MiAyMDIuMTI0NzExLDE5Mi44NTEzNjMgQzIwMi4yMTE2MjEsMTkyLjEyMjk3NSAyMDIuMjkyMDI4LDE5MS40MjcxMDQgMjAyLjM2OTQ3OCwxOTAuNzYzNzUxIEMyMDIuNDIxNTA2LDE5MC4zMTYxOTQgMjAyLjQ3NDcxNiwxODkuODU4NTg3IDIwMi41Mjg1MTcsMTg5LjQwMjE2MiBMMjA0LjMyNTgzOCwxODkuNTYwMDE4IEwyMDQuNzg4NzY3LDE4OS41OTEzNTMgQzIxNC43OTEwOTUsMTkwLjA0NzE4NyAyMjcuMDIxMTU1LDE4Ny45MjU4NzUgMjM0LjUzMjA2NSwxODQuNDM3MDYyIEMyNDAuNDY3MzYzLDE4MS42ODI1NSAyNTkuNDg1ODU3LDE3MS42NDIzODMgMjU1LjAwNzkyNiwxNTguMDg1NjE3Ij4mI3hhOyYjeGE7PC9wYXRoPiYjeGE7ICAgICAgICA8cGF0aCBmaWxsPSIjMzM2NzkxIiBkPSJNMjM3LjkwNTU4OSwxNjAuNzIyNDc2IEMyMDguMTY1ODM4LDE2Ni44NTcwMTYgMjA2LjEyMTM4NiwxNTYuNzg3ODggMjA2LjEyMTM4NiwxNTYuNzg3ODggQzIzNy41MjE4ODUsMTEwLjE5NDY5NyAyNTAuNjQ4MjQsNTEuMDUxNjAyOCAyMzkuMzIwMzg4LDM2LjU3NjY2NTEgQzIwOC40MTcxMDksLTIuOTA4MjMwOTUgMTU0LjkyMTk3NywxNS43NjU1Nzk3IDE1NC4wMjkyMjksMTYuMjUwMzgzNCBMMTUzLjc0MTg5NCwxNi4zMDE4MTk5IEMxNDcuODY2MzA5LDE1LjA4MjEyNDcgMTQxLjI5MDcxNiwxNC4zNTU1MTA0IDEzMy45MDA0MTYsMTQuMjM0OTAwNyBDMTIwLjQ0MzU2NiwxNC4wMTQzNzQxIDExMC4yMzYwODMsMTcuNzYyNzM0NCAxMDIuNDkwNDU3LDIzLjYzNjU0NSBDMTAyLjQ5MDQ1NywyMy42MzY1NDUgNy4wNjAzOTcyMywtMTUuNjc2ODk2MSAxMS40OTg3MTU5LDczLjA4MDYwOTcgQzEyLjQ0MjkwMDcsOTEuOTYzMTIyNCAzOC41NjI1ODY2LDIxNS45NTQwMzIgNjkuNzE3MTM2MywxNzguNTAyOTQ3IEM4MS4xMDQxMTA5LDE2NC44MDg0MjUgOTIuMTA2MTk4NiwxNTMuMjI5MzAzIDkyLjEwNjE5ODYsMTUzLjIyOTMwMyBDOTcuNTcwODgyMiwxNTYuODU5NDE4IDEwNC4xMTI3NzYsMTU4LjcxMTEzMiAxMTAuOTcwOTc1LDE1OC4wNDYwMDUgTDExMS41MDM2NjcsMTU3LjU5MzcxOCBDMTExLjMzODEyNSwxNTkuMjk0MDc5IDExMS40MTM4MDEsMTYwLjk1NzE5MiAxMTEuNzE3MDk5LDE2Mi45MjU5NjggQzEwMy42OTEyMzMsMTcxLjg5MzA2MiAxMDYuMDQ5NjI2LDE3My40Njc0OTIgOTAuMDA1NTc5NywxNzYuNzcwMDY5IEM3My43NzExNTk0LDE4MC4xMTU4MDYgODMuMzA4MTk0LDE4Ni4wNzIzODggODkuNTM0OTY1NCwxODcuNjI5MDgxIEM5Ny4wODM3MTM2LDE4OS41MTY4NTkgMTE0LjU0Nzg4LDE5Mi4xOTA5NjUgMTI2LjM0ODEyLDE3NS42NzIxNjYgTDEyNS44Nzc1MDYsMTc3LjU1Njk4OCBDMTI5LjAyMjIyNiwxODAuMDc1NjAzIDEzMS4yMzA0NDgsMTkzLjk0MDM5NyAxMzAuODYwMzQyLDIwNi41MDg2MzcgQzEzMC40OTAyMzYsMjE5LjA3NzQ2OSAxMzAuMjQzMTA0LDIyNy43MDYzODMgMTMyLjcyMDkyNCwyMzQuNDQ2MzM3IEMxMzUuMTk4NzQ0LDI0MS4xODYyOTEgMTM3LjY2ODI4NiwyNTYuMzUxMTg3IDE1OC43NTk2MTIsMjUxLjgzMTg3MSBDMTc2LjM4MzQwOSwyNDguMDU1MTMyIDE4NS41MTYwNDYsMjM4LjI2ODAwOSAxODYuNzg2NTg3LDIyMS45NDI1NCBDMTg3LjY4ODIwMywyMTAuMzM2MjIyIDE4OS43Mjg1MTcsMjEyLjA1MTk1NCAxODkuODU3NDA0LDIwMS42NzUzODEgTDE5MS40OTM5MTIsMTk2Ljc2MjkwMSBDMTkzLjM4MTA5OSwxODEuMDI5ODM4IDE5MS43OTM2NjMsMTc1Ljk1NDE4IDIwMi42NTE0OTIsMTc4LjMxNDkzOCBMMjA1LjI5MDEyNSwxNzguNTQ2Njk3IEMyMTMuMjgxNywxNzguOTEwMyAyMjMuNzQxMDQ0LDE3Ny4yNjEzNzYgMjI5Ljg3OTcyMywxNzQuNDA4MTI5IEMyNDMuMDk4MzA5LDE2OC4yNzM1ODkgMjUwLjkzNzk0LDE1OC4wMzEyMjQgMjM3LjkwNDQwNiwxNjAuNzIyNDc2IEwyMzcuOTA1NTg5LDE2MC43MjI0NzYiPiYjeGE7JiN4YTs8L3BhdGg+JiN4YTsgICAgICAgIDxwYXRoIGZpbGw9IiNGRkZGRkYiIGQ9Ik0xMDguMDc2MzQyLDgxLjUyNTA2MjQgQzEwNS4zOTY5MTUsODEuMTUyIDEwMi45NjkzNDksODEuNDk3Mjc0OCAxMDEuNzQxMzc2LDgyLjQyNjY3OSBDMTAxLjA1MDIzNiw4Mi45NDk5MTIyIDEwMC44MzY4MDQsODMuNTU1OTE2OSAxMDAuNzc5NDU1LDgzLjk3MzMyMSBDMTAwLjYyNTE0NSw4NS4wNzgzMTg3IDEwMS4zOTk2NDksODYuMjk5Nzg3NSAxMDEuODc0OTkzLDg2LjkzMDAzMjMgQzEwMy4yMjA2MTksODguNzEzNzU1MiAxMDUuMTg3MDMsODkuOTM5OTUzOCAxMDcuMTMzMzM5LDkwLjIxMDE0MzIgQzEwNy40MTUzNTMsOTAuMjQ5MTY0IDEwNy42OTU1OTQsOTAuMjY4MDgzMSAxMDcuOTc0NjUxLDkwLjI2ODA4MzEgQzExMS4yMjA0NzEsOTAuMjY4MDgzMSAxMTQuMTcwNjc5LDg3Ljc0MTE5MTcgMTE0LjQzMDgxOCw4NS44NzU4Nzk5IEMxMTQuNzU1OTkxLDgzLjUzOTk1MzggMTExLjM2NDczLDgxLjk4MjY2OTcgMTA4LjA3NjM0Miw4MS41MjUwNjI0Ij4mI3hhOyYjeGE7PC9wYXRoPiYjeGE7ICAgICAgICA8cGF0aCBmaWxsPSIjRkZGRkZGIiBkPSJNMTk2Ljg2MDQ1Myw4MS41OTg5NjU0IEwxOTYuODU5ODYxLDgxLjU5ODk2NTQgQzE5Ni42MDQ0NTMsNzkuNzY3OTQ0NiAxOTMuMzQ1NjI2LDc5LjI0NTg5MzggMTkwLjI1MzUyNCw3OS42NzU3MTM2IEMxODcuMTY2MTUyLDgwLjEwNjEyNDcgMTg0LjE3MTYwMyw4MS40OTk2Mzk3IDE4NC40MjE2OTEsODMuMzM0Nzk5MSBDMTg0LjYyMjcwNyw4NC43NjIwMTM5IDE4Ny4xOTg2Nyw4Ny4xOTg0NDggMTkwLjI0OTM4Niw4Ny4xOTc4NTY4IEMxOTAuNTA2NTY4LDg3LjE5Nzg1NjggMTkwLjc2NjcwNyw4Ny4xODA3MTEzIDE5MS4wMjg2MTksODcuMTQ0MDU1NCBDMTkzLjA2NDc5NCw4Ni44NjIwNDE2IDE5NC41NTg4MTgsODUuNTY5MDM0NiAxOTUuMjY4Mjg2LDg0LjgyMzUwMTIgQzE5Ni4zNDk2MzUsODMuNjg4MzUxIDE5Ni45NzQ1NTksODIuNDIxOTQ5MiAxOTYuODYwNDUzLDgxLjU5ODk2NTQiPiYjeGE7JiN4YTs8L3BhdGg+JiN4YTsgICAgICAgIDxwYXRoIGZpbGw9IiNGRkZGRkYiIGQ9Ik0yNDcuODAyMDg4LDE2MC4wMjU0MjMgQzI0Ni42NjgxMiwxNTYuNTk2MzIzIDI0My4wMTg0OTQsMTU1LjQ5MjUwOCAyMzYuOTU0MzA5LDE1Ni43NDUzMTIgQzIxOC45NDkxNzMsMTYwLjQ2MTE1NSAyMTIuNTAxMjg0LDE1Ny44ODY5NjUgMjEwLjM4MzUyLDE1Ni4zMjc5MDggQzIyNC4zNzg5NzUsMTM1LjAwNzE4NyAyMzUuODkxODgsMTA5LjIzNjMyMyAyNDIuMTAyNjg4LDg1LjE5MDY1MTMgQzI0NS4wNDUyMSw3My44MDA3MjA2IDI0Ni42NzA0ODUsNjMuMjIzMTMxNiAyNDYuODAyOTE5LDU0LjYwMTkwMyBDMjQ2Ljk0OTU0Myw0NS4xMzc1ODg5IDI0NS4zMzg0NTcsMzguMTg0MjAzMiAyNDIuMDE0MDA1LDMzLjkzNjI1ODcgQzIyOC42MTE1NDcsMTYuODEwODYzNyAyMDguOTQyMTE1LDcuNjI1MDE2MTcgMTg1LjEzMTc1MSw3LjM3MjU2MzUxIEMxNjguNzYzMTIyLDcuMTg4NjkyODQgMTU0LjkzMzIxLDExLjM3ODEwNjIgMTUyLjI1MjAwOSwxMi41NTU4MjQ1IEMxNDYuNjA1ODIsMTEuMTUxNjY3NCAxNDAuNDUwNTg3LDEwLjI4OTY2MjggMTMzLjc1MDI0NSwxMC4xNzk2OTUyIEMxMjEuNDYxNjU0LDkuOTgxMDQzODggMTEwLjg0MDMxNCwxMi45MjI5NzQ2IDEwMi4wNDU4NTcsMTguOTE5MTY4NiBDOTguMjI1OTU4NCwxNy40OTc4NjYxIDg4LjM1MzY5OTgsMTQuMTA4OTcgNzYuMjgxNDk2NSwxMi4xNjQ0MzQyIEM1NS40MDg5MjM4LDguODAzMzI1NjQgMzguODIzMzE2NCwxMS4zNDk3Mjc1IDI2Ljk4NzAxMTUsMTkuNzM1MDU3NyBDMTIuODYzODUyMiwyOS43NDA5MzMgNi4zNDM4MzM3Miw0Ny42MjY2NDIgNy42MDcyNzk0NSw3Mi44OTQzNzQxIEM4LjAzMjM2OTUyLDgxLjM5NjE3NTUgMTIuODc1Njc2NywxMDcuNTQ3Nzg4IDIwLjUyMDIwMzIsMTMyLjU5MzIxOSBDMzAuNTgyMjQ0OCwxNjUuNTU2OTE1IDQxLjUxOTI5NzksMTg0LjIxODMwOSA1My4wMjgwNjQ3LDE4OC4wNTY1MzYgQzU0LjM3NDg3MywxODguNTA1ODY2IDU1LjkyODYwOTcsMTg4LjgyMDM5NyA1Ny42NDA3OTQ1LDE4OC44MjAzOTcgQzYxLjgzOTA3NjIsMTg4LjgyMDM5NyA2Ni45ODU2ODEzLDE4Ni45Mjc4ODkgNzIuMzQwOTg4NSwxODAuNDkwMDUxIEM4MS4yMzU5NTM4LDE2OS43ODg4OTYgODkuNTQwODc3NiwxNjAuODIxODAxIDkyLjYwMjIzNTYsMTU3LjU2MzU2NiBDOTcuMTI2MjgxOCwxNTkuOTkyMzE0IDEwMi4wOTU1MiwxNjEuMzQ3OTkxIDEwNy4xNzk0NTUsMTYxLjQ4Mzk3MiBDMTA3LjE4ODMyMywxNjEuNjE2OTk4IDEwNy4yMDE5MjEsMTYxLjc1MDAyMyAxMDcuMjEzNzQ2LDE2MS44ODI0NTcgQzEwNi4xOTM4ODUsMTYzLjA5MjEwMiAxMDUuMzU3MzAzLDE2NC4xNTIxNjYgMTA0LjY0NDI4NiwxNjUuMDU3MzMgQzEwMS4xMjIzNjUsMTY5LjUyODE2NiAxMDAuMzg5MjQ3LDE3MC40NTg3NTMgODkuMDUxOTM1MywxNzIuNzkzNDk3IEM4NS44MjczOTk1LDE3My40NTg2MjQgNzcuMjYxMTU0NywxNzUuMjI0MDE4IDc3LjEzNjQwNjUsMTgxLjIyNzg5OCBDNzYuOTk5ODMzNywxODcuNzg3NTI5IDg3LjI2MDUyNjYsMTkwLjU0MjYzMyA4OC40Mjk5Njc3LDE5MC44MzQ2OTcgQzkyLjUwNDA5MjQsMTkxLjg1NDU1OSA5Ni40Mjg2Mzc0LDE5Mi4zNTc2OTEgMTAwLjE3MTY3NywxOTIuMzU3NjkxIEMxMDkuMjc1MzQ0LDE5Mi4zNTcwOTkgMTE3LjI4NTgzOCwxODkuMzY1NTA2IDEyMy42ODgyMDMsMTgzLjU3NjgzMSBDMTIzLjQ5MDczNCwyMDYuOTYyNjk3IDEyNC40NjYyNTQsMjMwLjAwNjgzNiAxMjcuMjczOTc3LDIzNy4wMjgyMTIgQzEyOS41NzMyNDcsMjQyLjc3NTUwMSAxMzUuMTkxNjQ5LDI1Ni44MjI5ODQgMTUyLjkzODQyLDI1Ni44MjE4MDEgQzE1NS41NDE1OCwyNTYuODIxODAxIDE1OC40MDg0MjUsMjU2LjUxOTA5NSAxNjEuNTYxNDIzLDI1NS44NDMzMjYgQzE4MC4wODIxMDYsMjUxLjg3MjA3NCAxODguMTI0NTI3LDI0My42ODY1NzcgMTkxLjIzNjEzOSwyMjUuNjQwMDU1IEMxOTIuOTAxMDI1LDIxNS45OTU0MTggMTk1Ljc1ODQxMSwxOTIuOTYzNjk1IDE5Ny4xMDE2NzIsMTgwLjYxMDA2OSBDMTk5LjkzNzc3NCwxODEuNDk0NTQgMjAzLjU4OTE3MywxODEuODk5NTI5IDIwNy41MzYxODUsMTgxLjg5ODkzOCBDMjE1Ljc2ODM4OCwxODEuODk4OTM4IDIyNS4yNjY5OTMsMTgwLjE1MDA5NyAyMzEuMjI0MTY2LDE3Ny4zODQ5NDIgQzIzNy45MTU2NCwxNzQuMjc3NDY5IDI0OS45OTE5ODIsMTY2LjY1MDY3OSAyNDcuODAyMDg4LDE2MC4wMjU0MjMgTDI0Ny44MDIwODgsMTYwLjAyNTQyMyBaIE0yMDMuNjk2MTg1LDc2LjU0NDU5MTIgQzIwMy42MzQ2OTcsODAuMTkxODUyMiAyMDMuMTMyNzQ4LDgzLjUwMjcwNjcgMjAyLjYwMDY0Nyw4Ni45NTkwMDIzIEMyMDIuMDI4MzQyLDkwLjY3NjAyNzcgMjAxLjQzNTkzNSw5NC41MTg5ODM4IDIwMS4yODY5NDcsOTkuMTg0MzMyNiBDMjAxLjEzOTczMiwxMDMuNzI0MzQyIDIwMS43MDY3MTYsMTA4LjQ0NDY3NCAyMDIuMjU1MzcyLDExMy4wMDg5MjQgQzIwMy4zNjMzMjYsMTIyLjIyODQ3MSAyMDQuNTAwMjQ5LDEzMS43MjA1NzMgMjAwLjA5ODU4NywxNDEuMDg2NzQ0IEMxOTkuNDE0NTQsMTM5Ljg3MTc3OCAxOTguNzU0MTQzLDEzOC41NDYyNTQgMTk4LjE0ODczLDEzNy4wNzgyNDUgQzE5Ny42MDE4NDgsMTM1Ljc1MjEyOSAxOTYuNDE0MDc5LDEzMy42MjE5NDkgMTk0Ljc2OTg4NSwxMzAuNjczNTE1IEMxODguMzcwNDc2LDExOS4xOTc4NTcgMTczLjM4NTMxMiw5Mi4zMjQzNjAzIDE4MS4wNTY0NDMsODEuMzU4MzM3MiBDMTgzLjM0MDkzMyw3OC4wOTM1OTgyIDE4OS4xMzk2NTgsNzQuNzM4NDAxOCAyMDMuNjk2MTg1LDc2LjU0NDU5MTIgTDIwMy42OTYxODUsNzYuNTQ0NTkxMiBaIE0xODYuMDUyMjg2LDE0Ljc1ODEzMzkgQzIwNy4zODYwMTQsMTUuMjI5MzM5NSAyMjQuMjYxMzIxLDIzLjIxMDI3MjUgMjM2LjIwOTk1OCwzOC40NzgwNDE2IEMyNDUuMzczOTMxLDUwLjE4OTAwNjkgMjM1LjI4MjkxOSwxMDMuNDc2MDI4IDIwNi4wNjk5NDksMTQ5LjQ0NjY1MSBDMjA1Ljc4MTQzMiwxNDkuMDgwMDkyIDIwNS40ODc1OTQsMTQ4LjcwOTk4NiAyMDUuMTgzNzA0LDE0OC4zMzA0MiBDMjA1LjA2MjUwMywxNDguMTc4NDc2IDIwNC45Mzg5MzgsMTQ4LjAyNDE2NiAyMDQuODE0MTg5LDE0Ny44NjgwODMgQzIxMi4zNjI5MzgsMTM1LjQwMDk0MiAyMTAuODg2NjUxLDEyMy4wNjYyMzYgMjA5LjU3Mjk1MiwxMTIuMTI5Nzc0IEMyMDkuMDMzMTY0LDEwNy42NDE3OTIgMjA4LjUyMzUyOSwxMDMuNDAyNzE2IDIwOC42NTMwMDcsOTkuNDIxNDEzNCBDMjA4Ljc4NzIxNSw5NS4yMDAwNzM5IDIwOS4zNDUzMyw5MS41ODExOTE3IDIwOS44ODQ1MjcsODguMDgxMTQ1NSBDMjEwLjU0ODQ3MSw4My43Njc1NzUxIDIxMS4yMjMwNTgsNzkuMzA1MDE2MiAyMTEuMDM2ODIyLDc0LjA0MzcxMzYgQzIxMS4xNzU3Niw3My40OTIxMDE2IDIxMS4yMzE5MjYsNzIuODM5OTgxNSAyMTEuMTU5MjA2LDcyLjA2NjA2OTMgQzIxMC42ODM4NjEsNjcuMDIwNTYzNSAyMDQuOTI0MTU3LDUxLjkyMjQ3NTggMTkzLjE4MzYzLDM4LjI1NTE1MDEgQzE4Ni43NjIzNDYsMzAuNzgwODk2MSAxNzcuMzk2NzY3LDIyLjQxNTY2NzQgMTY0LjYwOTc3NCwxNi43NzM2MTY2IEMxNzAuMTA5OTMxLDE1LjYzMzczNjcgMTc3LjYzMTQ4MywxNC41NzA3MTU5IDE4Ni4wNTIyODYsMTQuNzU4MTMzOSBMMTg2LjA1MjI4NiwxNC43NTgxMzM5IFogTTY2LjY3NDEwNjIsMTc1Ljc3Nzk5NSBDNjAuNzc0MjgxOCwxODIuODcxNTAxIDU2LjY5OTU2NTgsMTgxLjUxMjI3NyA1NS4zNTk4NTIyLDE4MS4wNjU5MDMgQzQ2LjYyOTI0NzEsMTc4LjE1MzUzMyAzNi40OTk4MDYsMTU5LjcwMjAyMyAyNy41Njg3NzYsMTMwLjQ0MTc1NSBDMTkuODQwODg2OCwxMDUuMTIzNzY5IDE1LjMyNDUyNjYsNzkuNjY1MDcxNiAxNC45Njc0MjczLDcyLjUyNjA0MTYgQzEzLjgzODc4MDYsNDkuOTQ4Mzc4OCAxOS4zMTE3NDEzLDM0LjIxMjk1MTUgMzEuMjM0OTU2MSwyNS43NTcyNjU2IEM1MC42Mzg5Mjg0LDExLjk5NjUyNjYgODIuNTQxMzc2NCwyMC4yMzI4Njg0IDk1LjM2MDI5NTYsMjQuNDEwNDU3MyBDOTUuMTc1ODMzNywyNC41OTE5NjMgOTQuOTg0Mjc3MSwyNC43NjIyMzU2IDk0LjgwMTU4ODksMjQuOTQ2Njk3NSBDNzMuNzY2NDI5Niw0Ni4xOTExNTAxIDc0LjI2NTQyMjYsODIuNDg3NTc1MSA3NC4zMTY4NTkxLDg0LjcwNTg0NzYgQzc0LjMxNTA4NTUsODUuNTYxOTQgNzQuMzg2NjIzNiw4Ni43NzM5NDkyIDc0LjQ4NTM1OCw4OC40NDEyMDA5IEM3NC44NDcxODcxLDk0LjU0NTU4ODkgNzUuNTIwNTkxMiwxMDUuOTA3NzMyIDczLjcyMTQ5NjUsMTE4Ljc3NTEzMiBDNzIuMDQ4OTIzOCwxMzAuNzMyMDQ2IDc1LjczNDYxNDMsMTQyLjQzNTMyNiA4My44MzIwMTg1LDE1MC44ODM5MTcgQzg0LjY3MDM3NDEsMTUxLjc1ODMzNyA4NS41NDUzODU3LDE1Mi41Nzk1NDcgODYuNDQ5MzY3MiwxNTMuMzUyMjc3IEM4Mi44NDQ2NzQ0LDE1Ny4yMTIzNzkgNzUuMDExNTQ3MywxNjUuNzQ3ODggNjYuNjc0MTA2MiwxNzUuNzc3OTk1IEw2Ni42NzQxMDYyLDE3NS43Nzc5OTUgWiBNODkuMTUzMDM0NiwxNDUuNzg0NjEgQzgyLjYyNjUxMjcsMTM4Ljk3NTQ4MyA3OS42NjI3MDY3LDEyOS41MDM0ODMgODEuMDIwMTU3LDExOS43OTU1ODQgQzgyLjkyMDM1MSwxMDYuMjAyNzUzIDgyLjIxODU2ODEsOTQuMzY0Njc0NCA4MS44NDE5NTg0LDg4LjAwNDg3NzYgQzgxLjc4OTMzOTUsODcuMTE1MDg1NSA4MS43NDI2MzI4LDg2LjMzNTI2MSA4MS43MTQ4NDUzLDg1LjcxOTc5NjggQzg0Ljc4ODAyNzcsODIuOTk1NDM2NSA5OS4wMjg4NDA2LDc1LjM2NDUwODEgMTA5LjE4NDI5Niw3Ny42OTE1NjU4IEMxMTMuODE5NDkyLDc4Ljc1MzQwNDIgMTE2LjY0MjU4Nyw4MS45MDg3NjY3IDExNy44MTY3NTgsODcuMzM3Mzg1NyBDMTIzLjg5MzM1OCwxMTUuNDQwMDM3IDExOC42MjE0MTMsMTI3LjE1MzM2NyAxMTQuMzg1MjkzLDEzNi41NjU2NTQgQzExMy41MTIwNTUsMTM4LjUwNDg2OCAxMTIuNjg3Mjk4LDE0MC4zMzc2NjMgMTExLjk4MjU1OSwxNDIuMjM0MzA5IEwxMTEuNDM2ODU5LDE0My42OTk5NTQgQzExMC4wNTQ1NzcsMTQ3LjQwNjMzNyAxMDguNzY4NjY1LDE1MC44NTE5OTEgMTA3Ljk3MTY5NSwxNTQuMTI0NDE2IEMxMDEuMDM0MjczLDE1NC4xMDMxMzIgOTQuMjg0ODU5MSwxNTEuMTM5OTE3IDg5LjE1MzAzNDYsMTQ1Ljc4NDYxIEw4OS4xNTMwMzQ2LDE0NS43ODQ2MSBaIE05MC4yMTc4MjkxLDE4My42ODUwMjUgQzg4LjE5MjI5NTYsMTgzLjE3ODkzOCA4Ni4zNzAxNDMyLDE4Mi4yOTk3ODggODUuMzAxMjEwMiwxODEuNTcwODA4IEM4Ni4xOTM5NTg0LDE4MS4xNTA0NDggODcuNzgzMTY4NiwxODAuNTc5MzI2IDkwLjUzODg2MzcsMTgwLjAxMTc1MSBDMTAzLjg3NjI4NiwxNzcuMjY1NTE1IDEwNS45MzU1MiwxNzUuMzI4MDc0IDExMC40MzM1NTIsMTY5LjYxNjg1IEMxMTEuNDY1MjM4LDE2OC4zMDc4OCAxMTIuNjM0MDg4LDE2Ni44MjMzMTYgMTE0LjI1Mjg1OSwxNjUuMDE1MzUzIEMxMTQuMjUzNDUsMTY1LjAxNDE3MSAxMTQuMjU0MDQyLDE2NS4wMTM1OCAxMTQuMjU0NjMzLDE2NS4wMTI5ODggQzExNi42NjYyMzYsMTYyLjMxMzQ2IDExNy43Njg4NjgsMTYyLjc3MTA2NyAxMTkuNzY4OTc5LDE2My42MDA1NTQgQzEyMS4zOTAxMTUsMTY0LjI3MTU5NCAxMjIuOTY4Njg0LDE2Ni4zMDMwMzkgMTIzLjYwODk3OSwxNjguNTM5MDQ4IEMxMjMuOTExNjg2LDE2OS41OTQ5NzUgMTI0LjI1MjIzMSwxNzEuNTk5ODE1IDEyMy4xMzg5NTYsMTczLjE1ODg3MyBDMTEzLjc0MjYzMywxODYuMzE0NzkgMTAwLjA1MTA2NywxODYuMTQ1NyA5MC4yMTc4MjkxLDE4My42ODUwMjUgTDkwLjIxNzgyOTEsMTgzLjY4NTAyNSBaIE0xNjAuMDE2NTU0LDI0OC42Mzc0ODcgQzE0My43MDA1NDUsMjUyLjEzMzM5NSAxMzcuOTIzNjk1LDI0My44MDgzNyAxMzQuMTE2ODA0LDIzNC4yOTE0MzYgQzEzMS42NTk2NzcsMjI4LjE0Njg0NSAxMzAuNDUyMzk3LDIwMC40NDAzMTQgMTMxLjMwOTA4MSwxNjkuODQzODggQzEzMS4zMjAzMTQsMTY5LjQzNjUyNyAxMzEuMjYyMzc0LDE2OS4wNDMzNjMgMTMxLjE1MDA0MiwxNjguNjczODQ4IEMxMzEuMDUyNDksMTY3Ljk2MDI0IDEzMC45MDIzMTksMTY3LjIzODM1NiAxMzAuNjk0MjA4LDE2Ni41MTE3NDEgQzEyOS40MTk1MjksMTYyLjA1OTgyNCAxMjYuMzE1MDEyLDE1OC4zMzU3MDQgMTIyLjU5MDMsMTU2Ljc5MjAxOCBDMTIxLjExMDQ2NywxNTYuMTc4OTE5IDExOC4zOTM3OTIsMTU1LjA1MzgyIDExNS4xMjk2NDQsMTU1Ljg4ODYyOCBDMTE1LjgyNjEwNiwxNTMuMDIwNiAxMTcuMDMzMzg2LDE0OS43ODI0NjcgMTE4LjM0MTc2NCwxNDYuMjc1MzI2IEwxMTguODkxMDEyLDE0NC43OTk2MyBDMTE5LjUwOTQzMiwxNDMuMTM2NTE3IDEyMC4yODQ1MjcsMTQxLjQxMzY5MSAxMjEuMTA1MTQ1LDEzOS41OTAzNTYgQzEyNS41MzgxNDMsMTI5Ljc0MTc0NiAxMzEuNjA5NDIzLDExNi4yNTI5NyAxMjUuMDIwMjMxLDg1Ljc3OTUxMDQgQzEyMi41NTE4NzEsNzQuMzY1OTMwNyAxMTQuMzEwMjA4LDY4Ljc5MjQ2MTkgMTAxLjgxNTg3MSw3MC4wODY2NTEzIEM5NC4zMjUwNjI0LDcwLjg2MTc0NiA4Ny40NzI3NzYsNzMuODg0MDgzMSA4NC4wNTQ5MDk5LDc1LjYxNjk2MDcgQzgzLjMyMDAxODUsNzUuOTg5NDMxOSA4Mi42NDc3OTY4LDc2LjM0ODg5NjEgODIuMDE5OTE2OSw3Ni42OTk0OTE5IEM4Mi45NzM1NjEyLDY1LjE5OTAwMjMgODYuNTc4MjU0LDQzLjcwNzQxOCAxMDAuMDYwNTI3LDMwLjEwOTg1NjggQzEwOC41NDg3MywyMS41NDg5MzMgMTE5Ljg1NDExNSwxNy4zMjEwOTAxIDEzMy42Mjg0NTMsMTcuNTQ4NzExMyBDMTYwLjc2ODU5MSwxNy45OTMzMTE4IDE3OC4xNzI0NTMsMzEuOTIxMzY3MiAxODcuOTk0NDU3LDQzLjUyNzY4NTkgQzE5Ni40NTc4MjksNTMuNTI5NDIyNiAyMDEuMDQwOTk4LDYzLjYwMzg3OTkgMjAyLjg3MDI0NSw2OS4wMzcyMjg2IEMxODkuMTE1NDE4LDY3LjYzODk4MzggMTc5Ljc2MDQ4LDcwLjM1NDQ3NTggMTc1LjAxNzY4MSw3Ny4xMzQwNDE2IEMxNjQuNzAwODIyLDkxLjg4MTUzMzUgMTgwLjY2MjA5NywxMjAuNTA2MjM2IDE4OC4zMzMyMjksMTM0LjI2MjgzNiBDMTg5LjczOTc1MSwxMzYuNzg0NDA2IDE5MC45NTQxMjUsMTM4Ljk2MzA2NyAxOTEuMzM2MDU1LDEzOS44ODg5MjQgQzE5My44MzM5NzcsMTQ1Ljk0MzA1OCAxOTcuMDY3OTcyLDE0OS45ODQ2NjUgMTk5LjQyOTMyMSwxNTIuOTM1NDY0IEMyMDAuMTUyOTc5LDE1My44Mzk0NDYgMjAwLjg1NTM1MywxNTQuNzE2MjMxIDIwMS4zODkyMjksMTU1LjQ4MTg2NiBDMTk3LjIyMzQ2NCwxNTYuNjgzMjMzIDE4OS43NDAzNDIsMTU5LjQ1Nzg0OCAxOTAuNDIyMDIzLDE3My4zMjg1NTQgQzE4OS44NzIxODUsMTgwLjI4OTAzNSAxODUuOTYwNjQ3LDIxMi44NzQ5MzggMTgzLjk3NDEzNCwyMjQuMzg3ODQzIEMxODEuMzUxNDY0LDIzOS41OTc2NzIgMTc1Ljc1NDM0NiwyNDUuMjYzMzcyIDE2MC4wMTY1NTQsMjQ4LjYzNzQ4NyBMMTYwLjAxNjU1NCwyNDguNjM3NDg3IFogTTIyOC4xMjA4MzEsMTcwLjcwMDU2NCBDMjIzLjg2MTA2MiwxNzIuNjc4MjA4IDIxNi43MzIwODMsMTc0LjE2MTU4OSAyMDkuOTU5NjEyLDE3NC40Nzk2NjcgQzIwMi40Nzk0NDYsMTc0LjgzMDI2MyAxOTguNjcxOTYzLDE3My42NDE5MDMgMTk3Ljc3NjI1OSwxNzIuOTExMTUgQzE5Ny4zNTUzMDcsMTY0LjI2NzQ1NSAyMDAuNTczMzM5LDE2My4zNjQwNjUgMjAzLjk3ODE5OSwxNjIuNDA4MDU1IEMyMDQuNTEzMjU2LDE2Mi4yNTcyOTMgMjA1LjAzNTMwNywxNjIuMTExMjYxIDIwNS41MzkwMywxNjEuOTM1MDc2IEMyMDUuODUyMzc5LDE2Mi4xODk4OTQgMjA2LjE5NTI4OSwxNjIuNDQyOTM4IDIwNi41NzA3MTYsMTYyLjY5MDY2MSBDMjEyLjU4Mjg3MywxNjYuNjU4OTU2IDIyMy4zMDY0OTQsMTY3LjA4NzAwMiAyMzguNDQ0Nzg1LDE2My45NjIzODMgQzIzOC41MDAzNiwxNjMuOTUwNTU5IDIzOC41NTU5MzUsMTYzLjkzOTkxNyAyMzguNjEwOTE5LDE2My45Mjg2ODQgQzIzNi41Njk0MjMsMTY1LjgzNzc0NiAyMzMuMDc1Mjg5LDE2OC40MDAxMTEgMjI4LjEyMDgzMSwxNzAuNzAwNTY0IEwyMjguMTIwODMxLDE3MC43MDA1NjQgWiI+JiN4YTsmI3hhOzwvcGF0aD4mI3hhOyAgICA8L2c+JiN4YTs8L3N2Zz4=" vertex="1" parent="1">
          <mxGeometry x="1428" y="150" width="60" height="60" as="geometry" />
        </mxCell>
        <mxCell id="0v8Zg-rZT7xSfdYN5Gm1-111" value="" style="rounded=0;whiteSpace=wrap;html=1;strokeColor=#3399FF;" vertex="1" parent="1">
          <mxGeometry x="1337" y="240" width="240" height="585" as="geometry" />
        </mxCell>
        <mxCell id="0v8Zg-rZT7xSfdYN5Gm1-112" value="&lt;font style=&quot;font-size: 14px;&quot;&gt;&lt;b&gt;database_name&lt;/b&gt;&lt;/font&gt;" style="text;html=1;align=center;verticalAlign=middle;whiteSpace=wrap;rounded=0;fillColor=default;" vertex="1" parent="1">
          <mxGeometry x="1391.84" y="220" width="130" height="40" as="geometry" />
        </mxCell>
        <mxCell id="0v8Zg-rZT7xSfdYN5Gm1-135" value="&lt;font style=&quot;font-size: 12px;&quot;&gt;&lt;b style=&quot;&quot;&gt;schema_name&lt;/b&gt;&lt;/font&gt;" style="text;html=1;align=center;verticalAlign=middle;whiteSpace=wrap;rounded=0;fillColor=none;" vertex="1" parent="1">
          <mxGeometry x="1452.47" y="795" width="120" height="30" as="geometry" />
        </mxCell>
        <mxCell id="0v8Zg-rZT7xSfdYN5Gm1-136" value="" style="shape=image;verticalLabelPosition=bottom;verticalAlign=top;imageAspect=0;aspect=fixed;image=data:image/svg+xml,PHN2ZyB4bWxucz0iaHR0cDovL3d3dy53My5vcmcvMjAwMC9zdmciIHZpZXdCb3g9Ii04Ljc4IDAgNzAgNzAiIGhlaWdodD0iODAwcHgiIHdpZHRoPSI4MDBweCI+JiN4YTsgICAgPG1ldGFkYXRhPiYjeGE7ICAgICAgICAmI3hhOyAgICAgICAgICAgICYjeGE7ICAgICAgICAgICAgICAgICYjeGE7ICAgICAgICAgICAgICAgICAgICBEYXRhJiN4YTsgICAgICAgICAgICAgICAgJiN4YTsgICAgICAgICAgICAgICAgJiN4YTsgICAgICAgICAgICAgICAgICAgIHNxbC1kYXRhYmFzZS1nZW5lcmljJiN4YTsgICAgICAgICAgICAgICAgJiN4YTsgICAgICAgICAgICAgICAgJiN4YTsgICAgICAgICAgICAgICAgICAgIFNRTCBEYXRhYmFzZSAoR2VuZXJpYykmI3hhOyAgICAgICAgICAgICAgICAmI3hhOyAgICAgICAgICAgICAgICAmI3hhOyAgICAgICAgICAgICAgICAgICAgaW1hZ2Uvc3ZnK3htbCYjeGE7ICAgICAgICAgICAgICAgICYjeGE7ICAgICAgICAgICAgICAgICYjeGE7ICAgICAgICAgICAgICAgICAgICBBbWlkbyBMaW1pdGVkJiN4YTsgICAgICAgICAgICAgICAgJiN4YTsgICAgICAgICAgICAgICAgJiN4YTsgICAgICAgICAgICAgICAgICAgIFJpY2hhcmQgU2xhdGVyJiN4YTsgICAgICAgICAgICAgICAgJiN4YTsgICAgICAgICAgICAgICAgJiN4YTsgICAgICAgICAgICAmI3hhOyAgICAgICAgJiN4YTsgICAgPC9tZXRhZGF0YT4mI3hhOyAgICA8cGF0aCB0cmFuc2Zvcm09InRyYW5zbGF0ZSgtODMwLjkwNiAtOTQzLjk4MSkiIGZpbGw9IiMwMGJjZjIiIGQ9Im0gODUyLjk3MDc3LDEwMTMuOTM2MyBjIC02LjU1MjM4LC0wLjQ3MjMgLTEzLjAyODU3LC0yLjEyMTYgLTE3LjAwMDM0LC00LjMyOTYgLTIuMjYyMzIsLTEuMjU3NiAtMy45ODU4OSwtMi44MDMyIC00LjY2MjIzLC00LjE4MDcgbCAtMC40MDI0LC0wLjgxOTYgMCwtMjUuNzA4MDcgMCwtMjUuNzA4MSAwLjMxODQzLC0wLjY0NjUgYyAxLjQyMjk3LC0yLjg4OSA1Ljk2NDMyLC01LjQ5MzUgMTIuMzAzNzgsLTcuMDU2MiAyLjE1MTk1LC0wLjUzMDUgNS4yNTg2LC0xLjA1ODggNy43OTMwNCwtMS4zMjUyIDIuNTg3OTcsLTAuMjcyMSA5LjQ0NzY1LC0wLjIzMDcgMTIuMDI5MTksMC4wNzMgNi44NjEyMywwLjgwNjEgMTIuNjk5NjcsMi42MTA4IDE2LjI5NzY4LDUuMDM3NyAxLjM4NzU2LDAuOTM1OSAyLjgxMTM3LDIuNDMzNCAzLjI5MzcxLDMuNDY0MiBsIDAuNDEzNTgsMC44ODM4IC0wLjAzNTQsMjUuNjMwMyAtMC4wMzU0LDI1LjYzMDQ3IC0wLjMzMTk1LDAuNjc0NCBjIC0wLjE4MjU3LDAuMzcwOSAtMC43MzQwNiwxLjEwMDcgLTEuMjI1NTMsMS42MjE2IC0yLjk5MTgxLDMuMTcxNSAtOS40MDkxOSw1LjUxNzYgLTE3LjgyNjcsNi41MTcyIC0xLjcxNTY3LDAuMjAzOCAtOS4xNjkxNiwwLjM2ODYgLTEwLjkyOTM3LDAuMjQxNyB6IG0gMTIuMDc1MDEsLTIyLjAyODM5IGMgLTAuMDI1MiwtMC4wNjU3IC0xLjAwNDcyLC0wLjkzODMxIC0yLjE3NjcxLC0xLjkzOTIyIC0xLjE3MTk5LC0xLjAwMDkxIC0yLjE4MTM4LC0xLjg2Njg3IC0yLjI0MzA5LC0xLjkyNDM2IC0wLjA2MTcsLTAuMDU3NSAwLjE1NDgxLC0wLjI2MTA2IDAuNDgxMTcsLTAuNDUyMzcgMC4zMjYzNSwtMC4xOTEzMSAwLjk1MTYzLC0wLjcyMzUgMS4zODk1LC0xLjE4MjY1IDEuMjgwNSwtMS4zNDI3MiAxLjg4NDY2LC0zLjAwMTMxIDEuODg0NjYsLTUuMTczODggMCwtMi4xMzg4IC0wLjY1MTYyLC0zLjg2NDUgLTEuOTU2NzEsLTUuMTgxOCAtMS4zMTUzMywtMS4zMjc4IC0yLjgyNTU0LC0xLjg5ODMgLTUuMDI0ODYsLTEuODk4MyAtMy4zOTAwNywwIC01Ljk5MzY4LDEuOTc4MSAtNi44MjQ2OCw1LjE4NTEgLTAuMjg1ODYsMS4xMDMxIC0wLjI4NDMyLDMuMzMyMTEgMC4wMDMsNC4zMTAyMyAwLjc0OTQxLDIuNTUxMzYgMi43OTA0NCw0LjQwNDM0IDUuMzMwNjIsNC44Mzk0NiAwLjg1OTYsMC4xNDcyNCAwLjk3NjA1LDAuMjEwNzEgMS41NjIxLDAuODUxNDQgMC4zNDgyOSwwLjM4MDc4IDEuMDYzMDEsMS4xNDA4NSAxLjU4ODI3LDEuNjg5MDQgbCAwLjk1NTAxLDAuOTk2NyAyLjUzODc4LDAgYyAxLjM5NjMzLDAgMi41MTgxNiwtMC4wNTM3IDIuNDkyOTYsLTAuMTE5MzkgeiBtIC04LjcwNjUzLC03LjEwODQ4IGMgLTAuNjExMTksLTAuMzE4NjggLTAuODQyMjUsLTAuNTY1OTkgLTEuMTkwNzksLTEuMjc0NTMgLTAuMjY5MTksLTAuNTQ3MjQgLTAuMzE1MjIsLTAuODU4NTEgLTAuMzE4MjQsLTIuMTUxOTcgLTAuMDAzLC0xLjMxNDMgMC4wMzg4LC0xLjU5ODMgMC4zMTk4NywtMi4xNjkgMC40NTk4NSwtMC45MzM5IDEuMDkzNTUsLTEuMzc2IDIuMDczODQsLTEuNDQ2OSAxLjM2NDU0LC0wLjA5OSAyLjE1MjE3LDAuNTcwNyAyLjU2NDk4LDIuMTgwMSAwLjUwNjEyLDEuOTczMjEgLTAuMDUwNCw0LjA3MTA3IC0xLjI2NDcxLDQuNzY3MjkgLTAuNjM3MDcsMC4zNjUyNyAtMS41ODczNywwLjQwNjU5IC0yLjE4NDk1LDAuMDk1IHogbSAtMTEuMjUzMTUsMy42NjI2OSBjIDIuNjYxNzksLTAuNTA0OCA0LjE3MjgsLTIuMDUyOCA0LjE3MjgsLTQuMjc0OTUgMCwtMS45NzEzNyAtMC45NzU0OCwtMy4xMjAwNCAtMy42NzE2LC00LjMyMzY0IC0xLjU0MzM4LC0wLjY4OSAtMi4xMDI0MSwtMS4xMjE1IC0yLjEwMjQxLC0xLjYyNjggMCwtMC40MTg4IDAuNTMwNTIsLTAuODc3NyAxLjE0ODEzLC0wLjk5MyAwLjYwMzAyLC0wLjExMjYgMi4yMDIzNywwLjE2NTIgMy4xNDY4MywwLjU0NjcgbCAwLjc5MTY3LDAuMzE5OCAwLC0xLjc1MjQgMCwtMS43NTI1IC0wLjg1OTIzLC0wLjE5MDYgYyAtMC41MzEwMywtMC4xMTc4IC0xLjY0Njg5LC0wLjE4ODUgLTIuOTIxMzcsLTAuMTg0OSAtMS44MDUyOCwwIC0yLjE1ODgxLDAuMDQ0IC0yLjgzODE4LDAuMzEzOCAtMS45ODQ0NSwwLjc4NzggLTIuOTI2MTMsMi4xMjk4IC0yLjkxMTA3LDQuMTQ4NSAwLjAxNDEsMS44ODk4IDEuMDExMDgsMy4wNjg2NCAzLjQ5MjI3LDQuMTI5MTIgMS40NjM5OSwwLjYyNTcyIDIuMDUwNzYsMS4xMDIxOCAyLjA1MDc2LDEuNjY1MjIgMCwxLjE5NjUgLTEuOTkzNjIsMS4zNDM3NSAtNC4xMDQzNywwLjMwMzE1IC0wLjU3ODA1LC0wLjI4NDk4IC0xLjA5NzM5LC0wLjU0MTM3IC0xLjE1NDEsLTAuNTY5NzYgLTAuMDU2NywtMC4wMjg0IC0wLjEwMzExLDAuNzkwMjMgLTAuMTAzMTEsMS44MTkxNyAwLDEuODYyMzkgMC4wMDIsMS44NzEzNyAwLjMzOTE5LDEuOTk5NzQgMS4yNjk3OSwwLjQ4Mjc4IDQuMDc2MjYsMC42OTc4NyA1LjUyMzc5LDAuNDIzMzUgeiBtIDMwLjQzMDgsLTEuNzI3NjYgMCwtMS41ODA5OCAtMi40MDU4NCwwIC0yLjQwNTgzLDAgMCwtNS40MzAzNSAwLC01LjQzMDMgLTIuMTMwODksMCAtMi4xMzA4OCwwIDAsNy4wMTEzIDAsNy4wMTEzMSA0LjUzNjcyLDAgNC41MzY3MiwwIDAsLTEuNTgwOTggeiBtIC0xNC44NDc0NSwtMjcuNzA1MDMgYyA0LjIzNDQ3LC0wLjI5MzcgNy40MDg2LC0wLjg0ODIgMTAuMjAxNzgsLTEuNzgyMSAyLjc4MjY0LC0wLjkzMDQgNC40MjY0MywtMi4wNTYyIDQuNzk0MTMsLTMuMjgzNCAwLjE0MTY2LC0wLjQ3MjkgMC4xMzE0NiwtMC42NTIzIC0wLjA2NjUsLTEuMTcwOCAtMC44ODc3NSwtMi4zMjQ1IC01Ljg0Njk0LC00LjExMDQgLTEzLjQyNDkzLC00LjgzNDUgLTMuMjQxNTQsLTAuMzA5OCAtOS4xMzY3MSwtMC4yMDk0IC0xMi4yMjc0NSwwLjIwODEgLTQuNzE2MDQsMC42MzcyIC04LjU0MzMzLDEuODIwOCAtMTAuMjQ1MSwzLjE2ODMgLTMuNDQyNTEsMi43MjYgMC4xOTc5Myw1LjcyNDIgOC42NjM5Nyw3LjEzNTQgMy42NzA4NCwwLjYxMTkgOC40MjY3NCwwLjgyOCAxMi4zMDQxNCwwLjU1OSB6Ii8+JiN4YTs8L3N2Zz4=" vertex="1" parent="1">
          <mxGeometry x="1557" y="805" width="40" height="40" as="geometry" />
        </mxCell>
        <mxCell id="0v8Zg-rZT7xSfdYN5Gm1-140" value="" style="group" vertex="1" connectable="0" parent="1">
          <mxGeometry x="1376.37" y="265" width="160.94000000000005" height="90" as="geometry" />
        </mxCell>
        <mxCell id="0v8Zg-rZT7xSfdYN5Gm1-116" value="" style="rounded=1;whiteSpace=wrap;html=1;fillColor=#F0F0F0;verticalAlign=top;" vertex="1" parent="0v8Zg-rZT7xSfdYN5Gm1-140">
          <mxGeometry width="160.63" height="90" as="geometry" />
        </mxCell>
        <mxCell id="0v8Zg-rZT7xSfdYN5Gm1-138" value="&lt;b&gt;table_1:&lt;/b&gt;&lt;div&gt;column 1: data type: x&lt;/div&gt;&lt;div&gt;column 2: data type: y&lt;/div&gt;&lt;div&gt;column 3: data type: z&lt;/div&gt;" style="text;html=1;align=center;verticalAlign=top;whiteSpace=wrap;rounded=0;" vertex="1" parent="0v8Zg-rZT7xSfdYN5Gm1-140">
          <mxGeometry x="0.9400000000000546" y="5" width="160" height="75" as="geometry" />
        </mxCell>
        <mxCell id="0v8Zg-rZT7xSfdYN5Gm1-141" value="" style="group" vertex="1" connectable="0" parent="1">
          <mxGeometry x="1376.37" y="380" width="160.94000000000005" height="90" as="geometry" />
        </mxCell>
        <mxCell id="0v8Zg-rZT7xSfdYN5Gm1-137" value="&lt;div&gt;&lt;br&gt;&lt;/div&gt;" style="rounded=1;whiteSpace=wrap;html=1;fillColor=#F0F0F0;verticalAlign=top;" vertex="1" parent="0v8Zg-rZT7xSfdYN5Gm1-141">
          <mxGeometry x="0.30999999999994543" width="160.63" height="90" as="geometry" />
        </mxCell>
        <mxCell id="0v8Zg-rZT7xSfdYN5Gm1-139" value="&lt;b&gt;table_2:&lt;/b&gt;&lt;div&gt;column 1: data type: x&lt;/div&gt;" style="text;html=1;align=center;verticalAlign=top;whiteSpace=wrap;rounded=0;" vertex="1" parent="0v8Zg-rZT7xSfdYN5Gm1-141">
          <mxGeometry y="5" width="160" height="75" as="geometry" />
        </mxCell>
        <mxCell id="0v8Zg-rZT7xSfdYN5Gm1-142" value="" style="group" vertex="1" connectable="0" parent="1">
          <mxGeometry x="1377" y="495" width="160.94000000000005" height="90" as="geometry" />
        </mxCell>
        <mxCell id="0v8Zg-rZT7xSfdYN5Gm1-143" value="&lt;div&gt;&lt;br&gt;&lt;/div&gt;" style="rounded=1;whiteSpace=wrap;html=1;fillColor=#F0F0F0;verticalAlign=top;" vertex="1" parent="0v8Zg-rZT7xSfdYN5Gm1-142">
          <mxGeometry x="0.30999999999994543" width="160.63" height="90" as="geometry" />
        </mxCell>
        <mxCell id="0v8Zg-rZT7xSfdYN5Gm1-144" value="&lt;b&gt;table_3:&lt;/b&gt;&lt;div&gt;column 1: data type: x&lt;/div&gt;&lt;div&gt;column 2: data type: z&lt;/div&gt;" style="text;html=1;align=center;verticalAlign=top;whiteSpace=wrap;rounded=0;" vertex="1" parent="0v8Zg-rZT7xSfdYN5Gm1-142">
          <mxGeometry y="5" width="160" height="75" as="geometry" />
        </mxCell>
        <mxCell id="0v8Zg-rZT7xSfdYN5Gm1-149" value="" style="ellipse;whiteSpace=wrap;html=1;aspect=fixed;fillColor=#BDBDBD;strokeColor=#BDBDBD;" vertex="1" parent="1">
          <mxGeometry x="1451.84" y="600" width="10" height="10" as="geometry" />
        </mxCell>
        <mxCell id="0v8Zg-rZT7xSfdYN5Gm1-150" value="" style="group" vertex="1" connectable="0" parent="1">
          <mxGeometry x="1337.47" y="925" width="240" height="140" as="geometry" />
        </mxCell>
        <mxCell id="0v8Zg-rZT7xSfdYN5Gm1-151" value="" style="rounded=0;whiteSpace=wrap;html=1;strokeColor=#FF8000;" vertex="1" parent="0v8Zg-rZT7xSfdYN5Gm1-150">
          <mxGeometry y="15" width="240" height="90" as="geometry" />
        </mxCell>
        <mxCell id="0v8Zg-rZT7xSfdYN5Gm1-152" value="&lt;font style=&quot;font-size: 14px;&quot;&gt;&lt;b&gt;init.sql&lt;/b&gt;&lt;/font&gt;" style="text;html=1;align=center;verticalAlign=middle;whiteSpace=wrap;rounded=0;fillColor=default;" vertex="1" parent="0v8Zg-rZT7xSfdYN5Gm1-150">
          <mxGeometry x="83.75" y="-5" width="72.5" height="40" as="geometry" />
        </mxCell>
        <mxCell id="0v8Zg-rZT7xSfdYN5Gm1-153" value="Defines pydantic models for each database table, used for API payload/response validation" style="text;html=1;align=center;verticalAlign=middle;whiteSpace=wrap;rounded=0;" vertex="1" parent="0v8Zg-rZT7xSfdYN5Gm1-150">
          <mxGeometry x="20" y="30" width="200" height="60" as="geometry" />
        </mxCell>
        <mxCell id="0v8Zg-rZT7xSfdYN5Gm1-158" value="" style="group" vertex="1" connectable="0" parent="1">
          <mxGeometry x="1376.37" y="675" width="160.94000000000005" height="90" as="geometry" />
        </mxCell>
        <mxCell id="0v8Zg-rZT7xSfdYN5Gm1-159" value="&lt;div&gt;&lt;br&gt;&lt;/div&gt;" style="rounded=1;whiteSpace=wrap;html=1;fillColor=#FFFFFF;verticalAlign=top;" vertex="1" parent="0v8Zg-rZT7xSfdYN5Gm1-158">
          <mxGeometry x="0.30999999999994543" width="160.63" height="90" as="geometry" />
        </mxCell>
        <mxCell id="0v8Zg-rZT7xSfdYN5Gm1-160" value="&lt;b&gt;table_n:&lt;/b&gt;&lt;div&gt;column n: data type: n&lt;/div&gt;&lt;div&gt;&lt;br&gt;&lt;/div&gt;" style="text;html=1;align=center;verticalAlign=top;whiteSpace=wrap;rounded=0;" vertex="1" parent="0v8Zg-rZT7xSfdYN5Gm1-158">
          <mxGeometry y="5" width="160" height="75" as="geometry" />
        </mxCell>
        <mxCell id="0v8Zg-rZT7xSfdYN5Gm1-163" value="&lt;div style=&quot;&quot;&gt;&lt;span style=&quot;font-size: 8px; color: rgb(252, 252, 252); background-color: initial;&quot;&gt;UI&lt;/span&gt;&lt;/div&gt;" style="rounded=1;whiteSpace=wrap;html=1;fillColor=#FF9999;strokeColor=none;align=center;" vertex="1" parent="1">
          <mxGeometry x="164" y="370" width="35" height="20" as="geometry" />
        </mxCell>
        <mxCell id="0v8Zg-rZT7xSfdYN5Gm1-168" value="" style="ellipse;whiteSpace=wrap;html=1;aspect=fixed;fillColor=#BDBDBD;strokeColor=#BDBDBD;" vertex="1" parent="1">
          <mxGeometry x="1452.47" y="625" width="10" height="10" as="geometry" />
        </mxCell>
        <mxCell id="0v8Zg-rZT7xSfdYN5Gm1-169" value="" style="ellipse;whiteSpace=wrap;html=1;aspect=fixed;fillColor=#BDBDBD;strokeColor=#BDBDBD;" vertex="1" parent="1">
          <mxGeometry x="1452.47" y="650" width="10" height="10" as="geometry" />
        </mxCell>
        <mxCell id="0v8Zg-rZT7xSfdYN5Gm1-7" value="" style="rounded=0;whiteSpace=wrap;html=1;strokeColor=#FF8000;" vertex="1" parent="1">
          <mxGeometry x="179" y="240" width="200" height="80" as="geometry" />
        </mxCell>
        <mxCell id="0v8Zg-rZT7xSfdYN5Gm1-11" value="&lt;font style=&quot;font-size: 14px;&quot;&gt;&lt;b&gt;Header.tsx&lt;/b&gt;&lt;/font&gt;" style="text;html=1;align=center;verticalAlign=middle;whiteSpace=wrap;rounded=0;fillColor=default;" vertex="1" parent="1">
          <mxGeometry x="229" y="220" width="100" height="40" as="geometry" />
        </mxCell>
        <mxCell id="0v8Zg-rZT7xSfdYN5Gm1-15" value="Generic header with links to each data table" style="text;html=1;align=center;verticalAlign=middle;whiteSpace=wrap;rounded=0;" vertex="1" parent="1">
          <mxGeometry x="199" y="250" width="160" height="60" as="geometry" />
        </mxCell>
        <mxCell id="0v8Zg-rZT7xSfdYN5Gm1-37" value="" style="shape=image;verticalLabelPosition=bottom;verticalAlign=top;imageAspect=0;aspect=fixed;image=data:image/svg+xml,PHN2ZyB4bWxucz0iaHR0cDovL3d3dy53My5vcmcvMjAwMC9zdmciIGZpbGw9Im5vbmUiIHZpZXdCb3g9IjAgMCAzMiAzMiIgaGVpZ2h0PSI4MDBweCIgd2lkdGg9IjgwMHB4Ij4mI3hhOzxwYXRoIGZpbGw9IiM1M0MxREUiIGQ9Ik0xOC42Nzg5IDE1Ljk3NTlDMTguNjc4OSAxNC41NDE1IDE3LjQ3OTYgMTMuMzc4NSAxNiAxMy4zNzg1QzE0LjUyMDYgMTMuMzc4NSAxMy4zMjExIDE0LjU0MTUgMTMuMzIxMSAxNS45NzU5QzEzLjMyMTEgMTcuNDEwNSAxNC41MjA2IDE4LjU3MzQgMTYgMTguNTczNEMxNy40Nzk2IDE4LjU3MzQgMTguNjc4OSAxNy40MTA1IDE4LjY3ODkgMTUuOTc1OVoiLz4mI3hhOzxwYXRoIGZpbGw9IiM1M0MxREUiIGQ9Ik0yNC43MDA0IDExLjE1MzdDMjUuMjY2MSA4LjkyNDc4IDI1Ljk3NzIgNC43OTE0OCAyMy40NzA0IDMuMzkwMTZDMjAuOTc1MyAxLjk5NDk1IDE3LjcyODQgNC42Njg0MyAxNi4wMTM5IDYuMjczMThDMTQuMzA0NCA0LjY4NDQyIDEwLjk2NjMgMi4wMjIzNyA4LjQ2MTYzIDMuNDI4MTRDNS45Njc1MSA0LjgyODAzIDYuNzM2NjQgOC44OTI4IDcuMzE0OSAxMS4xMzU3QzQuOTg4MzEgMTEuNzc2NCAxIDEzLjE1NjQgMSAxNS45NzU5QzEgMTguNzg3NCA0Ljk4NDE2IDIwLjI4ODggNy4yOTY5OCAyMC45Mjg5QzYuNzE2NTggMjMuMTg0MiA1Ljk4NTk2IDI3LjE5MDkgOC40ODMyNyAyOC41ODc3QzEwLjk5NzMgMjkuOTkzMiAxNC4zMjUgMjcuMzk0NSAxNi4wNTU0IDI1Ljc3MjJDMTcuNzgwOSAyNy4zODY0IDIwLjk5NjYgMzAuMDAyMSAyMy40OTIyIDI4LjYwMTRDMjUuOTk1NiAyNy4xOTYzIDI1LjM0MzYgMjMuMTE4NCAyNC43NjUzIDIwLjg2MjVDMjcuMDA3MyAyMC4yMjEgMzEgMTguNzUyMyAzMSAxNS45NzU5QzMxIDEzLjE4MzUgMjYuOTkwMyAxMS43OTIzIDI0LjcwMDQgMTEuMTUzN1pNMjQuNDE2MiAxOS42NjdDMjQuMDM2NSAxOC41MDE2IDIzLjUyNCAxNy4yNjIzIDIyLjg5NzEgMTUuOTgyMUMyMy40OTU1IDE0LjczMjEgMjMuOTg4MSAxMy41MDg4IDI0LjM1NzIgMTIuMzUwOUMyNi4wMzU5IDEyLjgyMjggMjkuNzE4NSAxMy45MDEzIDI5LjcxODUgMTUuOTc1OUMyOS43MTg1IDE4LjA3IDI2LjE4NDYgMTkuMTU4NyAyNC40MTYyIDE5LjY2N1pNMjIuODUgMjcuNTI2QzIwLjk4OCAyOC41NzEgMTguMjIyMSAyNi4wNjk2IDE2Ljk0NzggMjQuODgwOUMxNy43OTMyIDIzLjk4NDQgMTguNjM4IDIyLjk0MjIgMTkuNDYyNSAyMS43ODQ5QzIwLjkxMjkgMjEuNjYwMiAyMi4yODMgMjEuNDU2MiAyMy41MjU2IDIxLjE3NzdDMjMuOTMyNiAyMi43NzM0IDI0LjcyMDIgMjYuNDc2MyAyMi44NSAyNy41MjZaTTkuMTIzNjIgMjcuNTExMUM3LjI2MTQzIDI2LjQ3IDguMTEyNTggMjIuODk0NiA4LjUzOTU3IDIxLjIzMzNDOS43NjgzNCAyMS40OTY5IDExLjEyODYgMjEuNjg2NSAxMi41ODI0IDIxLjgwMDhDMTMuNDEyMyAyMi45MzMyIDE0LjI4MTYgMjMuOTc0MSAxNS4xNTc2IDI0Ljg4NTdDMTQuMDc1MyAyNS45MDA4IDEwLjk5NDUgMjguNTU3IDkuMTIzNjIgMjcuNTExMVpNMi4yODE0OSAxNS45NzU5QzIuMjgxNDkgMTMuODc0IDUuOTQyMDcgMTIuODAzMyA3LjY1OTA0IDEyLjMzMjZDOC4wMzQ1MSAxMy41MTY1IDguNTI2OTUgMTQuNzU0NCA5LjEyMTIzIDE2LjAwNjJDOC41MTkyNSAxNy4yNzY2IDguMDE5NzcgMTguNTM0MSA3LjY0MDg1IDE5LjczMkM2LjAwMzY5IDE5LjI3NzYgMi4yODE0OSAxOC4wNzkxIDIuMjgxNDkgMTUuOTc1OVpNOS4xMDM3IDQuNTAzNTRDMTAuOTczNSAzLjQ1NDE2IDEzLjg3NDcgNi4wMDk4MyAxNS4xMTU5IDcuMTYwMTNDMTQuMjQ0NCA4LjA2NzU0IDEzLjM4MzEgOS4xMDA2IDEyLjU2MDMgMTAuMjI2NUMxMS4xNDk0IDEwLjM1MzMgOS43OTg3NSAxMC41NTY5IDguNTU3MDkgMTAuODI5N0M4LjA5MTI1IDkuMDIwNzEgNy4yMzU5MiA1LjU1MTc5IDkuMTAzNyA0LjUwMzU0Wk0yMC4zNzkzIDExLjU3NzFDMjEuMzM2NSAxMS42OTQyIDIyLjI1MzYgMTEuODUgMjMuMTE0NyAxMi4wNDA2QzIyLjg1NjIgMTIuODQ0IDIyLjUzNCAxMy42ODQxIDIyLjE1NDUgMTQuNTQ1M0MyMS42MDQ0IDEzLjUzMzMgMjEuMDEzOSAxMi41NDE2IDIwLjM3OTMgMTEuNTc3MVpNMTYuMDE0MyA4LjA0ODFDMTYuNjA1NCA4LjY2ODk3IDE3LjE5NzQgOS4zNjIzIDE3Ljc3OTggMTAuMTE0NUMxNi41OTg1IDEwLjA2MDMgMTUuNDE1MyAxMC4wNjAxIDE0LjIzNCAxMC4xMTM3QzE0LjgxNjkgOS4zNjg0OCAxNS40MTQgOC42NzYxOCAxNi4wMTQzIDguMDQ4MVpNOS44NTY1IDE0LjU0NDRDOS40ODMyOSAxMy42ODYyIDkuMTYzOTggMTIuODQyNCA4LjkwMzIyIDEyLjAyNzVDOS43NTkxOCAxMS44NDE4IDEwLjY3MiAxMS42OSAxMS42MjMgMTEuNTc0OEMxMC45ODY2IDEyLjUzNzIgMTAuMzk3MSAxMy41Mjg1IDkuODU2NSAxNC41NDQ0Wk0xMS42NTAzIDIwLjQ2NTdDMTAuNjY3OSAyMC4zNTk0IDkuNzQxMjYgMjAuMjE1MyA4Ljg4NTU2IDIwLjAzNDdDOS4xNTA0NCAxOS4yMDU1IDkuNDc2NzggMTguMzQzNSA5Ljg1Nzk2IDE3LjQ2NjhDMTAuNDA2IDE4LjQ5MzMgMTEuMDA0NSAxOS40OTQyIDExLjY1MDMgMjAuNDY1N1pNMTYuMDQ5OCAyMy45OTE1QzE1LjQ0MjQgMjMuMzU2IDE0LjgzNjUgMjIuNjUzMSAxNC4yNDQ4IDIxLjg5NzFDMTUuNDMyOCAyMS45NDIzIDE2LjYyMzEgMjEuOTQyNCAxNy44MTEgMjEuODkxQzE3LjIyNjggMjIuNjYwOCAxNi42MzY5IDIzLjM2NDcgMTYuMDQ5OCAyMy45OTE1Wk0yMi4xNjY3IDE3LjQyMjJDMjIuNTY3NyAxOC4zMDg0IDIyLjkwNTcgMTkuMTY1NyAyMy4xNzQyIDE5Ljk4MDlDMjIuMzA0MyAyMC4xNzM0IDIxLjM2NTIgMjAuMzI4NCAyMC4zNzU3IDIwLjQ0MzVDMjEuMDE1IDE5LjQ2MDcgMjEuNjE0OSAxOC40NTM2IDIyLjE2NjcgMTcuNDIyMlpNMTguNzQ3MyAyMC41OTQxQzE2LjkzMDEgMjAuNzIgMTUuMTAxNiAyMC43MTg2IDEzLjI4MzggMjAuNjA0NEMxMi4yNTA5IDE5LjE0MTUgMTEuMzMxNCAxNy42MDMgMTAuNTM3NyAxNi4wMDU4QzExLjMyNzYgMTQuNDExOSAxMi4yNDA0IDEyLjg3NjQgMTMuMjY4NCAxMS40MTU4QzE1LjA4NzUgMTEuMjgyNSAxNi45MTc4IDExLjI4MjEgMTguNzM2OSAxMS40MTY2QzE5Ljc1NjEgMTIuODc3MSAyMC42Njc1IDE0LjQwODYgMjEuNDc1NyAxNS45ODgxQzIwLjY3NzEgMTcuNTgxMiAxOS43NTk1IDE5LjExOTggMTguNzQ3MyAyMC41OTQxWk0yMi44MzAzIDQuNDY2NkMyNC43MDA2IDUuNTEyNTQgMjMuODY4MSA5LjIyNzI2IDIzLjQ1OTUgMTAuODQyNkMyMi4yMTQ5IDEwLjU2NDEgMjAuODYzMyAxMC4zNTY5IDE5LjQ0ODMgMTAuMjI4MUMxOC42MjM5IDkuMDkwMDQgMTcuNzY5OCA4LjA1NTE4IDE2LjkxMjQgNy4xNTk0OUMxOC4xNjk1IDUuOTg0NDEgMjAuOTc4MSAzLjQzMDg5IDIyLjgzMDMgNC40NjY2WiIgY2xpcC1ydWxlPSJldmVub2RkIiBmaWxsLXJ1bGU9ImV2ZW5vZGQiLz4mI3hhOzwvc3ZnPg==" vertex="1" parent="1">
          <mxGeometry x="359" y="300" width="40" height="40" as="geometry" />
        </mxCell>
        <mxCell id="0v8Zg-rZT7xSfdYN5Gm1-173" value="&lt;div style=&quot;&quot;&gt;&lt;span style=&quot;font-size: 8px; color: rgb(252, 252, 252); background-color: initial;&quot;&gt;UI&lt;/span&gt;&lt;/div&gt;" style="rounded=1;whiteSpace=wrap;html=1;fillColor=#FF9999;strokeColor=none;align=center;" vertex="1" parent="1">
          <mxGeometry x="164" y="230" width="35" height="20" as="geometry" />
        </mxCell>
        <mxCell id="0v8Zg-rZT7xSfdYN5Gm1-174" value="" style="endArrow=classic;startArrow=classic;html=1;rounded=0;exitX=0;exitY=0.5;exitDx=0;exitDy=0;entryX=-0.005;entryY=0.413;entryDx=0;entryDy=0;entryPerimeter=0;" edge="1" parent="1" source="0v8Zg-rZT7xSfdYN5Gm1-12" target="0v8Zg-rZT7xSfdYN5Gm1-7">
          <mxGeometry width="50" height="50" relative="1" as="geometry">
            <mxPoint x="159" y="330" as="sourcePoint" />
            <mxPoint x="129" y="295" as="targetPoint" />
            <Array as="points">
              <mxPoint x="119" y="425" />
              <mxPoint x="119" y="273" />
            </Array>
          </mxGeometry>
        </mxCell>
        <mxCell id="0v8Zg-rZT7xSfdYN5Gm1-176" value="" style="endArrow=classic;html=1;rounded=0;strokeColor=#8A8A8A;dashed=1;entryX=0;entryY=0.5;entryDx=0;entryDy=0;dashPattern=8 8;" edge="1" parent="1" target="0v8Zg-rZT7xSfdYN5Gm1-16">
          <mxGeometry width="50" height="50" relative="1" as="geometry">
            <mxPoint x="119" y="570" as="sourcePoint" />
            <mxPoint x="124" y="540" as="targetPoint" />
          </mxGeometry>
        </mxCell>
        <mxCell id="0v8Zg-rZT7xSfdYN5Gm1-177" value="" style="endArrow=none;html=1;rounded=0;strokeColor=#8A8A8A;dashed=1;dashPattern=8 8;" edge="1" parent="1">
          <mxGeometry width="50" height="50" relative="1" as="geometry">
            <mxPoint x="119" y="990" as="sourcePoint" />
            <mxPoint x="119" y="570" as="targetPoint" />
          </mxGeometry>
        </mxCell>
        <mxCell id="0v8Zg-rZT7xSfdYN5Gm1-178" value="" style="endArrow=none;html=1;rounded=0;strokeColor=#8A8A8A;dashed=1;dashPattern=8 8;entryX=0;entryY=0.5;entryDx=0;entryDy=0;" edge="1" parent="1" target="0v8Zg-rZT7xSfdYN5Gm1-25">
          <mxGeometry width="50" height="50" relative="1" as="geometry">
            <mxPoint x="119" y="990" as="sourcePoint" />
            <mxPoint x="174" y="995" as="targetPoint" />
          </mxGeometry>
        </mxCell>
        <mxCell id="0v8Zg-rZT7xSfdYN5Gm1-179" value="" style="endArrow=none;html=1;rounded=0;strokeColor=#8A8A8A;dashed=1;dashPattern=8 8;entryX=0;entryY=0.5;entryDx=0;entryDy=0;" edge="1" parent="1" target="0v8Zg-rZT7xSfdYN5Gm1-22">
          <mxGeometry width="50" height="50" relative="1" as="geometry">
            <mxPoint x="119" y="850" as="sourcePoint" />
            <mxPoint x="179" y="850" as="targetPoint" />
          </mxGeometry>
        </mxCell>
        <mxCell id="0v8Zg-rZT7xSfdYN5Gm1-180" value="" style="endArrow=none;html=1;rounded=0;strokeColor=#8A8A8A;dashed=1;dashPattern=8 8;entryX=0;entryY=0.5;entryDx=0;entryDy=0;" edge="1" parent="1">
          <mxGeometry width="50" height="50" relative="1" as="geometry">
            <mxPoint x="119" y="707.14" as="sourcePoint" />
            <mxPoint x="179" y="707.14" as="targetPoint" />
          </mxGeometry>
        </mxCell>
        <mxCell id="0v8Zg-rZT7xSfdYN5Gm1-181" value="" style="endArrow=classic;html=1;rounded=0;strokeColor=#8A8A8A;dashed=1;dashPattern=8 8;exitX=0.131;exitY=-0.003;exitDx=0;exitDy=0;exitPerimeter=0;" edge="1" parent="1" source="0v8Zg-rZT7xSfdYN5Gm1-97">
          <mxGeometry width="50" height="50" relative="1" as="geometry">
            <mxPoint x="561" y="955" as="sourcePoint" />
            <mxPoint x="622" y="865" as="targetPoint" />
          </mxGeometry>
        </mxCell>
        <mxCell id="0v8Zg-rZT7xSfdYN5Gm1-182" value="" style="endArrow=classic;html=1;rounded=0;strokeColor=#8A8A8A;dashed=1;dashPattern=8 8;exitX=0.131;exitY=-0.003;exitDx=0;exitDy=0;exitPerimeter=0;entryX=0.671;entryY=1;entryDx=0;entryDy=0;entryPerimeter=0;" edge="1" parent="1" target="0v8Zg-rZT7xSfdYN5Gm1-59">
          <mxGeometry width="50" height="50" relative="1" as="geometry">
            <mxPoint x="901" y="920" as="sourcePoint" />
            <mxPoint x="901" y="865" as="targetPoint" />
          </mxGeometry>
        </mxCell>
        <mxCell id="0v8Zg-rZT7xSfdYN5Gm1-183" value="" style="endArrow=classic;html=1;rounded=0;strokeColor=#8A8A8A;dashed=1;dashPattern=8 8;exitX=0.131;exitY=-0.003;exitDx=0;exitDy=0;exitPerimeter=0;entryX=-0.001;entryY=0.944;entryDx=0;entryDy=0;entryPerimeter=0;" edge="1" parent="1" target="0v8Zg-rZT7xSfdYN5Gm1-59">
          <mxGeometry width="50" height="50" relative="1" as="geometry">
            <mxPoint x="622" y="755" as="sourcePoint" />
            <mxPoint x="621" y="650" as="targetPoint" />
            <Array as="points">
              <mxPoint x="622" y="679" />
            </Array>
          </mxGeometry>
        </mxCell>
        <mxCell id="0v8Zg-rZT7xSfdYN5Gm1-184" value="" style="endArrow=classic;html=1;rounded=0;strokeColor=#8A8A8A;dashed=1;dashPattern=8 8;exitX=0.131;exitY=-0.003;exitDx=0;exitDy=0;exitPerimeter=0;entryX=0.103;entryY=1.001;entryDx=0;entryDy=0;entryPerimeter=0;" edge="1" parent="1">
          <mxGeometry width="50" height="50" relative="1" as="geometry">
            <mxPoint x="1382.28" y="939.42" as="sourcePoint" />
            <mxPoint x="1381.9999999999998" y="825.0049999999998" as="targetPoint" />
          </mxGeometry>
        </mxCell>
        <mxCell id="0v8Zg-rZT7xSfdYN5Gm1-185" value="" style="endArrow=classic;startArrow=classic;html=1;rounded=0;exitX=0;exitY=0.5;exitDx=0;exitDy=0;entryX=0.995;entryY=0.219;entryDx=0;entryDy=0;entryPerimeter=0;" edge="1" parent="1" source="0v8Zg-rZT7xSfdYN5Gm1-70" target="0v8Zg-rZT7xSfdYN5Gm1-12">
          <mxGeometry width="50" height="50" relative="1" as="geometry">
            <mxPoint x="700" y="205" as="sourcePoint" />
            <mxPoint x="380" y="400" as="targetPoint" />
            <Array as="points">
              <mxPoint x="460" y="295" />
              <mxPoint x="460" y="400" />
            </Array>
          </mxGeometry>
        </mxCell>
        <mxCell id="0v8Zg-rZT7xSfdYN5Gm1-186" value="" style="endArrow=classic;startArrow=classic;html=1;rounded=0;exitX=0;exitY=0.5;exitDx=0;exitDy=0;entryX=0.995;entryY=0.609;entryDx=0;entryDy=0;entryPerimeter=0;" edge="1" parent="1" source="0v8Zg-rZT7xSfdYN5Gm1-80" target="0v8Zg-rZT7xSfdYN5Gm1-12">
          <mxGeometry width="50" height="50" relative="1" as="geometry">
            <mxPoint x="816" y="327.5" as="sourcePoint" />
            <mxPoint x="380" y="435" as="targetPoint" />
            <Array as="points">
              <mxPoint x="460" y="575" />
              <mxPoint x="460" y="435" />
            </Array>
          </mxGeometry>
        </mxCell>
        <mxCell id="0v8Zg-rZT7xSfdYN5Gm1-187" value="" style="endArrow=classic;html=1;rounded=0;entryX=0;entryY=0.5;entryDx=0;entryDy=0;" edge="1" parent="1" target="0v8Zg-rZT7xSfdYN5Gm1-76">
          <mxGeometry width="50" height="50" relative="1" as="geometry">
            <mxPoint x="460" y="435" as="sourcePoint" />
            <mxPoint x="605" y="425" as="targetPoint" />
          </mxGeometry>
        </mxCell>
        <mxCell id="0v8Zg-rZT7xSfdYN5Gm1-188" value="" style="endArrow=classic;startArrow=classic;html=1;rounded=0;exitX=1;exitY=0.5;exitDx=0;exitDy=0;entryX=-0.003;entryY=0.094;entryDx=0;entryDy=0;entryPerimeter=0;" edge="1" parent="1" source="0v8Zg-rZT7xSfdYN5Gm1-70" target="0v8Zg-rZT7xSfdYN5Gm1-111">
          <mxGeometry width="50" height="50" relative="1" as="geometry">
            <mxPoint x="1050" y="370" as="sourcePoint" />
            <mxPoint x="1100" y="320" as="targetPoint" />
          </mxGeometry>
        </mxCell>
        <mxCell id="0v8Zg-rZT7xSfdYN5Gm1-191" value="" style="endArrow=classic;startArrow=classic;html=1;rounded=0;exitX=1;exitY=0.5;exitDx=0;exitDy=0;entryX=-0.001;entryY=0.333;entryDx=0;entryDy=0;entryPerimeter=0;" edge="1" parent="1">
          <mxGeometry width="50" height="50" relative="1" as="geometry">
            <mxPoint x="916.63" y="575" as="sourcePoint" />
            <mxPoint x="1337" y="575.34" as="targetPoint" />
          </mxGeometry>
        </mxCell>
        <mxCell id="0v8Zg-rZT7xSfdYN5Gm1-192" value="&lt;font style=&quot;font-size: 10px;&quot;&gt;Receives &lt;b&gt;all data&lt;/b&gt; for selected table&lt;/font&gt;" style="text;html=1;align=center;verticalAlign=middle;whiteSpace=wrap;rounded=0;" vertex="1" parent="1">
          <mxGeometry x="560" y="260" width="180" height="35" as="geometry" />
        </mxCell>
        <mxCell id="0v8Zg-rZT7xSfdYN5Gm1-193" value="&lt;span style=&quot;font-size: 10px;&quot;&gt;Updates &lt;b&gt;only select&lt;/b&gt;&amp;nbsp;data in grid (added, removed, and edited rows)&lt;/span&gt;" style="text;html=1;align=center;verticalAlign=middle;whiteSpace=wrap;rounded=0;" vertex="1" parent="1">
          <mxGeometry x="560" y="390" width="180" height="40" as="geometry" />
        </mxCell>
        <mxCell id="0v8Zg-rZT7xSfdYN5Gm1-194" value="&lt;span style=&quot;font-size: 10px;&quot;&gt;Clears database table and &lt;b&gt;replaces with data from .xlsx file&lt;/b&gt;&lt;/span&gt;" style="text;html=1;align=center;verticalAlign=middle;whiteSpace=wrap;rounded=0;" vertex="1" parent="1">
          <mxGeometry x="560" y="525" width="180" height="50" as="geometry" />
        </mxCell>
        <mxCell id="0v8Zg-rZT7xSfdYN5Gm1-195" value="&lt;span style=&quot;font-size: 10px;&quot;&gt;&lt;b&gt;Query Param:&lt;/b&gt; &#39;table_name&#39;&lt;/span&gt;&lt;div&gt;&lt;span style=&quot;font-size: 10px;&quot;&gt;&lt;b&gt;Payload:&lt;/b&gt; None&lt;/span&gt;&lt;/div&gt;&lt;div&gt;&lt;span style=&quot;font-size: 10px;&quot;&gt;&lt;br&gt;&lt;/span&gt;&lt;/div&gt;&lt;div&gt;&lt;span style=&quot;font-size: 10px;&quot;&gt;&lt;b&gt;Response: &lt;/b&gt;All rows from table&lt;/span&gt;&lt;/div&gt;" style="text;html=1;align=left;verticalAlign=middle;whiteSpace=wrap;rounded=0;" vertex="1" parent="1">
          <mxGeometry x="1029" y="269" width="180" height="35" as="geometry" />
        </mxCell>
        <mxCell id="0v8Zg-rZT7xSfdYN5Gm1-196" value="&lt;span style=&quot;font-size: 10px;&quot;&gt;&lt;b&gt;Query Param:&lt;/b&gt;&amp;nbsp;None&lt;/span&gt;&lt;div&gt;&lt;span style=&quot;font-size: 10px;&quot;&gt;&lt;b&gt;Payload:&lt;/b&gt;&amp;nbsp;Select data and ids&lt;/span&gt;&lt;/div&gt;&lt;div&gt;&lt;span style=&quot;font-size: 10px;&quot;&gt;&lt;br&gt;&lt;/span&gt;&lt;/div&gt;&lt;div&gt;&lt;span style=&quot;font-size: 10px;&quot;&gt;&lt;b&gt;Response: &lt;/b&gt;Mappings for ids&lt;/span&gt;&lt;/div&gt;" style="text;html=1;align=left;verticalAlign=middle;whiteSpace=wrap;rounded=0;" vertex="1" parent="1">
          <mxGeometry x="1029" y="409" width="180" height="35" as="geometry" />
        </mxCell>
        <mxCell id="0v8Zg-rZT7xSfdYN5Gm1-197" value="&lt;span style=&quot;font-size: 10px;&quot;&gt;&lt;b&gt;Query Param:&lt;/b&gt;&amp;nbsp;None&lt;/span&gt;&lt;div&gt;&lt;span style=&quot;font-size: 10px;&quot;&gt;&lt;b&gt;Payload:&lt;/b&gt;&amp;nbsp;Data and ids&lt;/span&gt;&lt;/div&gt;&lt;div&gt;&lt;span style=&quot;font-size: 10px;&quot;&gt;&lt;br&gt;&lt;/span&gt;&lt;/div&gt;&lt;div&gt;&lt;span style=&quot;font-size: 10px;&quot;&gt;&lt;b&gt;Response: &lt;/b&gt;None&lt;/span&gt;&lt;/div&gt;" style="text;html=1;align=left;verticalAlign=middle;whiteSpace=wrap;rounded=0;" vertex="1" parent="1">
          <mxGeometry x="1029" y="550" width="180" height="35" as="geometry" />
        </mxCell>
        <mxCell id="0v8Zg-rZT7xSfdYN5Gm1-198" value="" style="rounded=0;whiteSpace=wrap;html=1;" vertex="1" parent="1">
          <mxGeometry x="1259" y="31.5" width="395" height="61" as="geometry" />
        </mxCell>
        <mxCell id="0v8Zg-rZT7xSfdYN5Gm1-199" value="&lt;b&gt;Legend:&lt;/b&gt;" style="text;html=1;align=center;verticalAlign=middle;whiteSpace=wrap;rounded=0;" vertex="1" parent="1">
          <mxGeometry x="1259" y="7.5" width="60" height="24" as="geometry" />
        </mxCell>
        <mxCell id="0v8Zg-rZT7xSfdYN5Gm1-200" value="" style="endArrow=classic;startArrow=classic;html=1;rounded=0;" edge="1" parent="1">
          <mxGeometry width="50" height="50" relative="1" as="geometry">
            <mxPoint x="1276" y="46.82" as="sourcePoint" />
            <mxPoint x="1316" y="46.82" as="targetPoint" />
          </mxGeometry>
        </mxCell>
        <mxCell id="0v8Zg-rZT7xSfdYN5Gm1-202" value="" style="endArrow=classic;html=1;rounded=0;strokeColor=#8A8A8A;dashed=1;dashPattern=8 8;exitX=0.131;exitY=-0.003;exitDx=0;exitDy=0;exitPerimeter=0;" edge="1" parent="1">
          <mxGeometry width="50" height="50" relative="1" as="geometry">
            <mxPoint x="1276" y="72.20999999999997" as="sourcePoint" />
            <mxPoint x="1316" y="71.79" as="targetPoint" />
            <Array as="points">
              <mxPoint x="1294" y="71.79" />
            </Array>
          </mxGeometry>
        </mxCell>
        <mxCell id="0v8Zg-rZT7xSfdYN5Gm1-204" value="" style="endArrow=none;html=1;rounded=0;strokeColor=#FF8000;" edge="1" parent="1">
          <mxGeometry width="50" height="50" relative="1" as="geometry">
            <mxPoint x="1420.84" y="46.86" as="sourcePoint" />
            <mxPoint x="1460.84" y="46.86" as="targetPoint" />
          </mxGeometry>
        </mxCell>
        <mxCell id="0v8Zg-rZT7xSfdYN5Gm1-205" value="" style="endArrow=none;html=1;rounded=0;strokeColor=#3399FF;" edge="1" parent="1">
          <mxGeometry width="50" height="50" relative="1" as="geometry">
            <mxPoint x="1420.84" y="71.86" as="sourcePoint" />
            <mxPoint x="1460.84" y="71.86" as="targetPoint" />
          </mxGeometry>
        </mxCell>
        <mxCell id="0v8Zg-rZT7xSfdYN5Gm1-206" value="UI/Data Flow" style="text;html=1;align=left;verticalAlign=middle;whiteSpace=wrap;rounded=0;" vertex="1" parent="1">
          <mxGeometry x="1330" y="35" width="97.53" height="24" as="geometry" />
        </mxCell>
        <mxCell id="0v8Zg-rZT7xSfdYN5Gm1-207" value="Dependency" style="text;html=1;align=left;verticalAlign=middle;whiteSpace=wrap;rounded=0;" vertex="1" parent="1">
          <mxGeometry x="1330" y="60" width="97.53" height="24" as="geometry" />
        </mxCell>
        <mxCell id="0v8Zg-rZT7xSfdYN5Gm1-208" value="Table related (auto-generated)" style="text;html=1;align=left;verticalAlign=middle;whiteSpace=wrap;rounded=0;" vertex="1" parent="1">
          <mxGeometry x="1473.5" y="35" width="175" height="24" as="geometry" />
        </mxCell>
        <mxCell id="0v8Zg-rZT7xSfdYN5Gm1-209" value="Non-table related" style="text;html=1;align=left;verticalAlign=middle;whiteSpace=wrap;rounded=0;" vertex="1" parent="1">
          <mxGeometry x="1473.5" y="60" width="175" height="24" as="geometry" />
        </mxCell>
      </root>
    </mxGraphModel>
  </diagram>
</mxfile>
